<?xml version="1.0" standalone="no"?>
<!DOCTYPE svg PUBLIC "-//W3C//DTD SVG 1.1//EN" "http://www.w3.org/Graphics/SVG/1.1/DTD/svg11.dtd" >
<svg xmlns="http://www.w3.org/2000/svg">
<metadata></metadata>
<defs>
<font id="lightdot_7x6regular" horiz-adv-x="1792" >
<font-face units-per-em="2048" ascent="1638" descent="-410" />
<missing-glyph horiz-adv-x="768" />
<glyph horiz-adv-x="2048" />
<glyph horiz-adv-x="2048" />
<glyph unicode="&#xd;" horiz-adv-x="2048" />
<glyph unicode=" "  horiz-adv-x="768" />
<glyph unicode="&#x09;" horiz-adv-x="768" />
<glyph unicode="&#xa0;" horiz-adv-x="768" />
<glyph unicode="(" horiz-adv-x="1024" d="M384 0q-54 0 -92 36q-36 38 -36 92q0 52 36 90q38 38 92 38q52 0 90 -38t38 -90q0 -54 -38 -92q-38 -36 -90 -36v0zM640 0q-54 0 -92 36q-36 38 -36 92q0 52 36 90q38 38 92 38q52 0 90 -38t38 -90q0 -54 -38 -92q-38 -36 -90 -36v0zM128 256q-54 0 -92 36q-36 38 -36 92 q0 52 36 90q38 38 92 38q52 0 90 -38t38 -90q0 -54 -38 -92q-38 -36 -90 -36v0zM384 256q-54 0 -92 36q-36 38 -36 92q0 52 36 90q38 38 92 38q52 0 90 -38t38 -90q0 -54 -38 -92q-38 -36 -90 -36v0zM128 512q-54 0 -92 36q-36 38 -36 92q0 52 36 90q38 38 92 38 q52 0 90 -38t38 -90q0 -54 -38 -92q-38 -36 -90 -36v0zM384 512q-54 0 -92 36q-36 38 -36 92q0 52 36 90q38 38 92 38q52 0 90 -38t38 -90q0 -54 -38 -92q-38 -36 -90 -36v0zM128 768q-54 0 -92 36q-36 38 -36 92q0 52 36 90q38 38 92 38q52 0 90 -38t38 -90q0 -54 -38 -92 q-38 -36 -90 -36v0zM384 768q-54 0 -92 36q-36 38 -36 92q0 52 36 90q38 38 92 38q52 0 90 -38t38 -90q0 -54 -38 -92q-38 -36 -90 -36v0zM128 1024q-54 0 -92 36q-36 38 -36 92q0 52 36 90q38 38 92 38q52 0 90 -38t38 -90q0 -54 -38 -92q-38 -36 -90 -36v0zM384 1024 q-54 0 -92 36q-36 38 -36 92q0 52 36 90q38 38 92 38q52 0 90 -38t38 -90q0 -54 -38 -92q-38 -36 -90 -36v0zM128 1280q-54 0 -92 36q-36 38 -36 92q0 52 36 90q38 38 92 38q52 0 90 -38t38 -90q0 -54 -38 -92q-38 -36 -90 -36v0zM384 1280q-54 0 -92 36q-36 38 -36 92 q0 52 36 90q38 38 92 38q52 0 90 -38t38 -90q0 -54 -38 -92q-38 -36 -90 -36v0zM384 1536q-54 0 -92 36q-36 38 -36 92q0 52 36 90q38 38 92 38q52 0 90 -38t38 -90q0 -54 -38 -92q-38 -36 -90 -36v0zM640 1536q-54 0 -92 36q-36 38 -36 92q0 52 36 90q38 38 92 38 q52 0 90 -38t38 -90q0 -54 -38 -92q-38 -36 -90 -36v0z" />
<glyph unicode=")" horiz-adv-x="1024" d="M128 0q-54 0 -92 36q-36 38 -36 92q0 52 36 90q38 38 92 38q52 0 90 -38t38 -90q0 -54 -38 -92q-38 -36 -90 -36v0zM384 0q-54 0 -92 36q-36 38 -36 92q0 52 36 90q38 38 92 38q52 0 90 -38t38 -90q0 -54 -38 -92q-38 -36 -90 -36v0zM384 256q-54 0 -92 36q-36 38 -36 92 q0 52 36 90q38 38 92 38q52 0 90 -38t38 -90q0 -54 -38 -92q-38 -36 -90 -36v0zM640 256q-54 0 -92 36q-36 38 -36 92q0 52 36 90q38 38 92 38q52 0 90 -38t38 -90q0 -54 -38 -92q-38 -36 -90 -36v0zM384 512q-54 0 -92 36q-36 38 -36 92q0 52 36 90q38 38 92 38 q52 0 90 -38t38 -90q0 -54 -38 -92q-38 -36 -90 -36v0zM640 512q-54 0 -92 36q-36 38 -36 92q0 52 36 90q38 38 92 38q52 0 90 -38t38 -90q0 -54 -38 -92q-38 -36 -90 -36v0zM384 768q-54 0 -92 36q-36 38 -36 92q0 52 36 90q38 38 92 38q52 0 90 -38t38 -90q0 -54 -38 -92 q-38 -36 -90 -36v0zM640 768q-54 0 -92 36q-36 38 -36 92q0 52 36 90q38 38 92 38q52 0 90 -38t38 -90q0 -54 -38 -92q-38 -36 -90 -36v0zM384 1024q-54 0 -92 36q-36 38 -36 92q0 52 36 90q38 38 92 38q52 0 90 -38t38 -90q0 -54 -38 -92q-38 -36 -90 -36v0zM640 1024 q-54 0 -92 36q-36 38 -36 92q0 52 36 90q38 38 92 38q52 0 90 -38t38 -90q0 -54 -38 -92q-38 -36 -90 -36v0zM384 1280q-54 0 -92 36q-36 38 -36 92q0 52 36 90q38 38 92 38q52 0 90 -38t38 -90q0 -54 -38 -92q-38 -36 -90 -36v0zM640 1280q-54 0 -92 36q-36 38 -36 92 q0 52 36 90q38 38 92 38q52 0 90 -38t38 -90q0 -54 -38 -92q-38 -36 -90 -36v0zM128 1536q-54 0 -92 36q-36 38 -36 92q0 52 36 90q38 38 92 38q52 0 90 -38t38 -90q0 -54 -38 -92q-38 -36 -90 -36v0zM384 1536q-54 0 -92 36q-36 38 -36 92q0 52 36 90q38 38 92 38 q52 0 90 -38t38 -90q0 -54 -38 -92q-38 -36 -90 -36v0z" />
<glyph unicode="-" horiz-adv-x="768" d="M128 768q-54 0 -92 36q-36 38 -36 92q0 52 36 90q38 38 92 38q52 0 90 -38t38 -90q0 -54 -38 -92q-38 -36 -90 -36v0zM384 768q-54 0 -92 36q-36 38 -36 92q0 52 36 90q38 38 92 38q52 0 90 -38t38 -90q0 -54 -38 -92q-38 -36 -90 -36v0z" />
<glyph unicode="." horiz-adv-x="768" d="M128 0q-54 0 -92 36q-36 38 -36 92q0 52 36 90q38 38 92 38q52 0 90 -38t38 -90q0 -54 -38 -92q-38 -36 -90 -36v0zM384 0q-54 0 -92 36q-36 38 -36 92q0 52 36 90q38 38 92 38q52 0 90 -38t38 -90q0 -54 -38 -92q-38 -36 -90 -36v0zM128 256q-54 0 -92 36q-36 38 -36 92 q0 52 36 90q38 38 92 38q52 0 90 -38t38 -90q0 -54 -38 -92q-38 -36 -90 -36v0zM384 256q-54 0 -92 36q-36 38 -36 92q0 52 36 90q38 38 92 38q52 0 90 -38t38 -90q0 -54 -38 -92q-38 -36 -90 -36v0z" />
<glyph unicode="0" d="M384 0q-54 0 -92 36q-36 38 -36 92q0 52 36 90q38 38 92 38q52 0 90 -38t38 -90q0 -54 -38 -92q-38 -36 -90 -36v0zM640 0q-54 0 -92 36q-36 38 -36 92q0 52 36 90q38 38 92 38q52 0 90 -38t38 -90q0 -54 -38 -92q-38 -36 -90 -36v0zM896 0q-54 0 -92 36q-36 38 -36 92 q0 52 36 90q38 38 92 38q52 0 90 -38t38 -90q0 -54 -38 -92q-38 -36 -90 -36v0zM1152 0q-54 0 -92 36q-36 38 -36 92q0 52 36 90q38 38 92 38q52 0 90 -38t38 -90q0 -54 -38 -92q-38 -36 -90 -36v0zM128 256q-54 0 -92 36q-36 38 -36 92q0 52 36 90q38 38 92 38q52 0 90 -38 t38 -90q0 -54 -38 -92q-38 -36 -90 -36v0zM384 256q-54 0 -92 36q-36 38 -36 92q0 52 36 90q38 38 92 38q52 0 90 -38t38 -90q0 -54 -38 -92q-38 -36 -90 -36v0zM1152 256q-54 0 -92 36q-36 38 -36 92q0 52 36 90q38 38 92 38q52 0 90 -38t38 -90q0 -54 -38 -92 q-38 -36 -90 -36v0zM1408 256q-54 0 -92 36q-36 38 -36 92q0 52 36 90q38 38 92 38q52 0 90 -38t38 -90q0 -54 -38 -92q-38 -36 -90 -36v0zM128 512q-54 0 -92 36q-36 38 -36 92q0 52 36 90q38 38 92 38q52 0 90 -38t38 -90q0 -54 -38 -92q-38 -36 -90 -36v0zM384 512 q-54 0 -92 36q-36 38 -36 92q0 52 36 90q38 38 92 38q52 0 90 -38t38 -90q0 -54 -38 -92q-38 -36 -90 -36v0zM1152 512q-54 0 -92 36q-36 38 -36 92q0 52 36 90q38 38 92 38q52 0 90 -38t38 -90q0 -54 -38 -92q-38 -36 -90 -36v0zM1408 512q-54 0 -92 36q-36 38 -36 92 q0 52 36 90q38 38 92 38q52 0 90 -38t38 -90q0 -54 -38 -92q-38 -36 -90 -36v0zM128 768q-54 0 -92 36q-36 38 -36 92q0 52 36 90q38 38 92 38q52 0 90 -38t38 -90q0 -54 -38 -92q-38 -36 -90 -36v0zM384 768q-54 0 -92 36q-36 38 -36 92q0 52 36 90q38 38 92 38 q52 0 90 -38t38 -90q0 -54 -38 -92q-38 -36 -90 -36v0zM1152 768q-54 0 -92 36q-36 38 -36 92q0 52 36 90q38 38 92 38q52 0 90 -38t38 -90q0 -54 -38 -92q-38 -36 -90 -36v0zM1408 768q-54 0 -92 36q-36 38 -36 92q0 52 36 90q38 38 92 38q52 0 90 -38t38 -90 q0 -54 -38 -92q-38 -36 -90 -36v0zM128 1024q-54 0 -92 36q-36 38 -36 92q0 52 36 90q38 38 92 38q52 0 90 -38t38 -90q0 -54 -38 -92q-38 -36 -90 -36v0zM384 1024q-54 0 -92 36q-36 38 -36 92q0 52 36 90q38 38 92 38q52 0 90 -38t38 -90q0 -54 -38 -92q-38 -36 -90 -36v0 zM1152 1024q-54 0 -92 36q-36 38 -36 92q0 52 36 90q38 38 92 38q52 0 90 -38t38 -90q0 -54 -38 -92q-38 -36 -90 -36v0zM1408 1024q-54 0 -92 36q-36 38 -36 92q0 52 36 90q38 38 92 38q52 0 90 -38t38 -90q0 -54 -38 -92q-38 -36 -90 -36v0zM128 1280q-54 0 -92 36 q-36 38 -36 92q0 52 36 90q38 38 92 38q52 0 90 -38t38 -90q0 -54 -38 -92q-38 -36 -90 -36v0zM384 1280q-54 0 -92 36q-36 38 -36 92q0 52 36 90q38 38 92 38q52 0 90 -38t38 -90q0 -54 -38 -92q-38 -36 -90 -36v0zM1152 1280q-54 0 -92 36q-36 38 -36 92q0 52 36 90 q38 38 92 38q52 0 90 -38t38 -90q0 -54 -38 -92q-38 -36 -90 -36v0zM1408 1280q-54 0 -92 36q-36 38 -36 92q0 52 36 90q38 38 92 38q52 0 90 -38t38 -90q0 -54 -38 -92q-38 -36 -90 -36v0zM384 1536q-54 0 -92 36q-36 38 -36 92q0 52 36 90q38 38 92 38q52 0 90 -38t38 -90 q0 -54 -38 -92q-38 -36 -90 -36v0zM640 1536q-54 0 -92 36q-36 38 -36 92q0 52 36 90q38 38 92 38q52 0 90 -38t38 -90q0 -54 -38 -92q-38 -36 -90 -36v0zM896 1536q-54 0 -92 36q-36 38 -36 92q0 52 36 90q38 38 92 38q52 0 90 -38t38 -90q0 -54 -38 -92q-38 -36 -90 -36v0 zM1152 1536q-54 0 -92 36q-36 38 -36 92q0 52 36 90q38 38 92 38q52 0 90 -38t38 -90q0 -54 -38 -92q-38 -36 -90 -36v0z" />
<glyph unicode="1" horiz-adv-x="1024" d="M384 0q-54 0 -92 36q-36 38 -36 92q0 52 36 90q38 38 92 38q52 0 90 -38t38 -90q0 -54 -38 -92q-38 -36 -90 -36v0zM640 0q-54 0 -92 36q-36 38 -36 92q0 52 36 90q38 38 92 38q52 0 90 -38t38 -90q0 -54 -38 -92q-38 -36 -90 -36v0zM384 256q-54 0 -92 36q-36 38 -36 92 q0 52 36 90q38 38 92 38q52 0 90 -38t38 -90q0 -54 -38 -92q-38 -36 -90 -36v0zM640 256q-54 0 -92 36q-36 38 -36 92q0 52 36 90q38 38 92 38q52 0 90 -38t38 -90q0 -54 -38 -92q-38 -36 -90 -36v0zM384 512q-54 0 -92 36q-36 38 -36 92q0 52 36 90q38 38 92 38 q52 0 90 -38t38 -90q0 -54 -38 -92q-38 -36 -90 -36v0zM640 512q-54 0 -92 36q-36 38 -36 92q0 52 36 90q38 38 92 38q52 0 90 -38t38 -90q0 -54 -38 -92q-38 -36 -90 -36v0zM384 768q-54 0 -92 36q-36 38 -36 92q0 52 36 90q38 38 92 38q52 0 90 -38t38 -90q0 -54 -38 -92 q-38 -36 -90 -36v0zM640 768q-54 0 -92 36q-36 38 -36 92q0 52 36 90q38 38 92 38q52 0 90 -38t38 -90q0 -54 -38 -92q-38 -36 -90 -36v0zM384 1024q-54 0 -92 36q-36 38 -36 92q0 52 36 90q38 38 92 38q52 0 90 -38t38 -90q0 -54 -38 -92q-38 -36 -90 -36v0zM640 1024 q-54 0 -92 36q-36 38 -36 92q0 52 36 90q38 38 92 38q52 0 90 -38t38 -90q0 -54 -38 -92q-38 -36 -90 -36v0zM128 1280q-54 0 -92 36q-36 38 -36 92q0 52 36 90q38 38 92 38q52 0 90 -38t38 -90q0 -54 -38 -92q-38 -36 -90 -36v0zM384 1280q-54 0 -92 36q-36 38 -36 92 q0 52 36 90q38 38 92 38q52 0 90 -38t38 -90q0 -54 -38 -92q-38 -36 -90 -36v0zM640 1280q-54 0 -92 36q-36 38 -36 92q0 52 36 90q38 38 92 38q52 0 90 -38t38 -90q0 -54 -38 -92q-38 -36 -90 -36v0zM384 1536q-54 0 -92 36q-36 38 -36 92q0 52 36 90q38 38 92 38 q52 0 90 -38t38 -90q0 -54 -38 -92q-38 -36 -90 -36v0zM640 1536q-54 0 -92 36q-36 38 -36 92q0 52 36 90q38 38 92 38q52 0 90 -38t38 -90q0 -54 -38 -92q-38 -36 -90 -36v0z" />
<glyph unicode="2" d="M128 0q-54 0 -92 36q-36 38 -36 92q0 52 36 90q38 38 92 38q52 0 90 -38t38 -90q0 -54 -38 -92q-38 -36 -90 -36v0zM384 0q-54 0 -92 36q-36 38 -36 92q0 52 36 90q38 38 92 38q52 0 90 -38t38 -90q0 -54 -38 -92q-38 -36 -90 -36v0zM640 0q-54 0 -92 36q-36 38 -36 92 q0 52 36 90q38 38 92 38q52 0 90 -38t38 -90q0 -54 -38 -92q-38 -36 -90 -36v0zM896 0q-54 0 -92 36q-36 38 -36 92q0 52 36 90q38 38 92 38q52 0 90 -38t38 -90q0 -54 -38 -92q-38 -36 -90 -36v0zM1152 0q-54 0 -92 36q-36 38 -36 92q0 52 36 90q38 38 92 38q52 0 90 -38 t38 -90q0 -54 -38 -92q-38 -36 -90 -36v0zM1408 0q-54 0 -92 36q-36 38 -36 92q0 52 36 90q38 38 92 38q52 0 90 -38t38 -90q0 -54 -38 -92q-38 -36 -90 -36v0zM128 256q-54 0 -92 36q-36 38 -36 92q0 52 36 90q38 38 92 38q52 0 90 -38t38 -90q0 -54 -38 -92 q-38 -36 -90 -36v0zM384 256q-54 0 -92 36q-36 38 -36 92q0 52 36 90q38 38 92 38q52 0 90 -38t38 -90q0 -54 -38 -92q-38 -36 -90 -36v0zM128 512q-54 0 -92 36q-36 38 -36 92q0 52 36 90q38 38 92 38q52 0 90 -38t38 -90q0 -54 -38 -92q-38 -36 -90 -36v0zM384 512 q-54 0 -92 36q-36 38 -36 92q0 52 36 90q38 38 92 38q52 0 90 -38t38 -90q0 -54 -38 -92q-38 -36 -90 -36v0zM384 768q-54 0 -92 36q-36 38 -36 92q0 52 36 90q38 38 92 38q52 0 90 -38t38 -90q0 -54 -38 -92q-38 -36 -90 -36v0zM640 768q-54 0 -92 36q-36 38 -36 92 q0 52 36 90q38 38 92 38q52 0 90 -38t38 -90q0 -54 -38 -92q-38 -36 -90 -36v0zM896 768q-54 0 -92 36q-36 38 -36 92q0 52 36 90q38 38 92 38q52 0 90 -38t38 -90q0 -54 -38 -92q-38 -36 -90 -36v0zM1152 768q-54 0 -92 36q-36 38 -36 92q0 52 36 90q38 38 92 38 q52 0 90 -38t38 -90q0 -54 -38 -92q-38 -36 -90 -36v0zM1152 1024q-54 0 -92 36q-36 38 -36 92q0 52 36 90q38 38 92 38q52 0 90 -38t38 -90q0 -54 -38 -92q-38 -36 -90 -36v0zM1408 1024q-54 0 -92 36q-36 38 -36 92q0 52 36 90q38 38 92 38q52 0 90 -38t38 -90 q0 -54 -38 -92q-38 -36 -90 -36v0zM128 1280q-54 0 -92 36q-36 38 -36 92q0 52 36 90q38 38 92 38q52 0 90 -38t38 -90q0 -54 -38 -92q-38 -36 -90 -36v0zM1152 1280q-54 0 -92 36q-36 38 -36 92q0 52 36 90q38 38 92 38q52 0 90 -38t38 -90q0 -54 -38 -92q-38 -36 -90 -36 v0zM1408 1280q-54 0 -92 36q-36 38 -36 92q0 52 36 90q38 38 92 38q52 0 90 -38t38 -90q0 -54 -38 -92q-38 -36 -90 -36v0zM384 1536q-54 0 -92 36q-36 38 -36 92q0 52 36 90q38 38 92 38q52 0 90 -38t38 -90q0 -54 -38 -92q-38 -36 -90 -36v0zM640 1536q-54 0 -92 36 q-36 38 -36 92q0 52 36 90q38 38 92 38q52 0 90 -38t38 -90q0 -54 -38 -92q-38 -36 -90 -36v0zM896 1536q-54 0 -92 36q-36 38 -36 92q0 52 36 90q38 38 92 38q52 0 90 -38t38 -90q0 -54 -38 -92q-38 -36 -90 -36v0zM1152 1536q-54 0 -92 36q-36 38 -36 92q0 52 36 90 q38 38 92 38q52 0 90 -38t38 -90q0 -54 -38 -92q-38 -36 -90 -36v0z" />
<glyph unicode="3" d="M128 0q-54 0 -92 36q-36 38 -36 92q0 52 36 90q38 38 92 38q52 0 90 -38t38 -90q0 -54 -38 -92q-38 -36 -90 -36v0zM384 0q-54 0 -92 36q-36 38 -36 92q0 52 36 90q38 38 92 38q52 0 90 -38t38 -90q0 -54 -38 -92q-38 -36 -90 -36v0zM640 0q-54 0 -92 36q-36 38 -36 92 q0 52 36 90q38 38 92 38q52 0 90 -38t38 -90q0 -54 -38 -92q-38 -36 -90 -36v0zM896 0q-54 0 -92 36q-36 38 -36 92q0 52 36 90q38 38 92 38q52 0 90 -38t38 -90q0 -54 -38 -92q-38 -36 -90 -36v0zM1152 0q-54 0 -92 36q-36 38 -36 92q0 52 36 90q38 38 92 38q52 0 90 -38 t38 -90q0 -54 -38 -92q-38 -36 -90 -36v0zM1152 256q-54 0 -92 36q-36 38 -36 92q0 52 36 90q38 38 92 38q52 0 90 -38t38 -90q0 -54 -38 -92q-38 -36 -90 -36v0zM1408 256q-54 0 -92 36q-36 38 -36 92q0 52 36 90q38 38 92 38q52 0 90 -38t38 -90q0 -54 -38 -92 q-38 -36 -90 -36v0zM1152 512q-54 0 -92 36q-36 38 -36 92q0 52 36 90q38 38 92 38q52 0 90 -38t38 -90q0 -54 -38 -92q-38 -36 -90 -36v0zM1408 512q-54 0 -92 36q-36 38 -36 92q0 52 36 90q38 38 92 38q52 0 90 -38t38 -90q0 -54 -38 -92q-38 -36 -90 -36v0zM128 768 q-54 0 -92 36q-36 38 -36 92q0 52 36 90q38 38 92 38q52 0 90 -38t38 -90q0 -54 -38 -92q-38 -36 -90 -36v0zM384 768q-54 0 -92 36q-36 38 -36 92q0 52 36 90q38 38 92 38q52 0 90 -38t38 -90q0 -54 -38 -92q-38 -36 -90 -36v0zM640 768q-54 0 -92 36q-36 38 -36 92 q0 52 36 90q38 38 92 38q52 0 90 -38t38 -90q0 -54 -38 -92q-38 -36 -90 -36v0zM896 768q-54 0 -92 36q-36 38 -36 92q0 52 36 90q38 38 92 38q52 0 90 -38t38 -90q0 -54 -38 -92q-38 -36 -90 -36v0zM1152 768q-54 0 -92 36q-36 38 -36 92q0 52 36 90q38 38 92 38 q52 0 90 -38t38 -90q0 -54 -38 -92q-38 -36 -90 -36v0zM1152 1024q-54 0 -92 36q-36 38 -36 92q0 52 36 90q38 38 92 38q52 0 90 -38t38 -90q0 -54 -38 -92q-38 -36 -90 -36v0zM1408 1024q-54 0 -92 36q-36 38 -36 92q0 52 36 90q38 38 92 38q52 0 90 -38t38 -90 q0 -54 -38 -92q-38 -36 -90 -36v0zM1152 1280q-54 0 -92 36q-36 38 -36 92q0 52 36 90q38 38 92 38q52 0 90 -38t38 -90q0 -54 -38 -92q-38 -36 -90 -36v0zM1408 1280q-54 0 -92 36q-36 38 -36 92q0 52 36 90q38 38 92 38q52 0 90 -38t38 -90q0 -54 -38 -92q-38 -36 -90 -36 v0zM128 1536q-54 0 -92 36q-36 38 -36 92q0 52 36 90q38 38 92 38q52 0 90 -38t38 -90q0 -54 -38 -92q-38 -36 -90 -36v0zM384 1536q-54 0 -92 36q-36 38 -36 92q0 52 36 90q38 38 92 38q52 0 90 -38t38 -90q0 -54 -38 -92q-38 -36 -90 -36v0zM640 1536q-54 0 -92 36 q-36 38 -36 92q0 52 36 90q38 38 92 38q52 0 90 -38t38 -90q0 -54 -38 -92q-38 -36 -90 -36v0zM896 1536q-54 0 -92 36q-36 38 -36 92q0 52 36 90q38 38 92 38q52 0 90 -38t38 -90q0 -54 -38 -92q-38 -36 -90 -36v0zM1152 1536q-54 0 -92 36q-36 38 -36 92q0 52 36 90 q38 38 92 38q52 0 90 -38t38 -90q0 -54 -38 -92q-38 -36 -90 -36v0z" />
<glyph unicode="4" d="M1152 0q-54 0 -92 36q-36 38 -36 92q0 52 36 90q38 38 92 38q52 0 90 -38t38 -90q0 -54 -38 -92q-38 -36 -90 -36v0zM1408 0q-54 0 -92 36q-36 38 -36 92q0 52 36 90q38 38 92 38q52 0 90 -38t38 -90q0 -54 -38 -92q-38 -36 -90 -36v0zM1152 256q-54 0 -92 36 q-36 38 -36 92q0 52 36 90q38 38 92 38q52 0 90 -38t38 -90q0 -54 -38 -92q-38 -36 -90 -36v0zM1408 256q-54 0 -92 36q-36 38 -36 92q0 52 36 90q38 38 92 38q52 0 90 -38t38 -90q0 -54 -38 -92q-38 -36 -90 -36v0zM128 512q-54 0 -92 36q-36 38 -36 92q0 52 36 90 q38 38 92 38q52 0 90 -38t38 -90q0 -54 -38 -92q-38 -36 -90 -36v0zM384 512q-54 0 -92 36q-36 38 -36 92q0 52 36 90q38 38 92 38q52 0 90 -38t38 -90q0 -54 -38 -92q-38 -36 -90 -36v0zM640 512q-54 0 -92 36q-36 38 -36 92q0 52 36 90q38 38 92 38q52 0 90 -38t38 -90 q0 -54 -38 -92q-38 -36 -90 -36v0zM896 512q-54 0 -92 36q-36 38 -36 92q0 52 36 90q38 38 92 38q52 0 90 -38t38 -90q0 -54 -38 -92q-38 -36 -90 -36v0zM1152 512q-54 0 -92 36q-36 38 -36 92q0 52 36 90q38 38 92 38q52 0 90 -38t38 -90q0 -54 -38 -92q-38 -36 -90 -36v0z M1408 512q-54 0 -92 36q-36 38 -36 92q0 52 36 90q38 38 92 38q52 0 90 -38t38 -90q0 -54 -38 -92q-38 -36 -90 -36v0zM128 768q-54 0 -92 36q-36 38 -36 92q0 52 36 90q38 38 92 38q52 0 90 -38t38 -90q0 -54 -38 -92q-38 -36 -90 -36v0zM384 768q-54 0 -92 36 q-36 38 -36 92q0 52 36 90q38 38 92 38q52 0 90 -38t38 -90q0 -54 -38 -92q-38 -36 -90 -36v0zM1152 768q-54 0 -92 36q-36 38 -36 92q0 52 36 90q38 38 92 38q52 0 90 -38t38 -90q0 -54 -38 -92q-38 -36 -90 -36v0zM1408 768q-54 0 -92 36q-36 38 -36 92q0 52 36 90 q38 38 92 38q52 0 90 -38t38 -90q0 -54 -38 -92q-38 -36 -90 -36v0zM128 1024q-54 0 -92 36q-36 38 -36 92q0 52 36 90q38 38 92 38q52 0 90 -38t38 -90q0 -54 -38 -92q-38 -36 -90 -36v0zM384 1024q-54 0 -92 36q-36 38 -36 92q0 52 36 90q38 38 92 38q52 0 90 -38t38 -90 q0 -54 -38 -92q-38 -36 -90 -36v0zM1152 1024q-54 0 -92 36q-36 38 -36 92q0 52 36 90q38 38 92 38q52 0 90 -38t38 -90q0 -54 -38 -92q-38 -36 -90 -36v0zM1408 1024q-54 0 -92 36q-36 38 -36 92q0 52 36 90q38 38 92 38q52 0 90 -38t38 -90q0 -54 -38 -92q-38 -36 -90 -36 v0zM128 1280q-54 0 -92 36q-36 38 -36 92q0 52 36 90q38 38 92 38q52 0 90 -38t38 -90q0 -54 -38 -92q-38 -36 -90 -36v0zM384 1280q-54 0 -92 36q-36 38 -36 92q0 52 36 90q38 38 92 38q52 0 90 -38t38 -90q0 -54 -38 -92q-38 -36 -90 -36v0zM1152 1280q-54 0 -92 36 q-36 38 -36 92q0 52 36 90q38 38 92 38q52 0 90 -38t38 -90q0 -54 -38 -92q-38 -36 -90 -36v0zM1408 1280q-54 0 -92 36q-36 38 -36 92q0 52 36 90q38 38 92 38q52 0 90 -38t38 -90q0 -54 -38 -92q-38 -36 -90 -36v0zM128 1536q-54 0 -92 36q-36 38 -36 92q0 52 36 90 q38 38 92 38q52 0 90 -38t38 -90q0 -54 -38 -92q-38 -36 -90 -36v0zM384 1536q-54 0 -92 36q-36 38 -36 92q0 52 36 90q38 38 92 38q52 0 90 -38t38 -90q0 -54 -38 -92q-38 -36 -90 -36v0zM1152 1536q-54 0 -92 36q-36 38 -36 92q0 52 36 90q38 38 92 38q52 0 90 -38t38 -90 q0 -54 -38 -92q-38 -36 -90 -36v0zM1408 1536q-54 0 -92 36q-36 38 -36 92q0 52 36 90q38 38 92 38q52 0 90 -38t38 -90q0 -54 -38 -92q-38 -36 -90 -36v0z" />
<glyph unicode="5" d="M128 0q-54 0 -92 36q-36 38 -36 92q0 52 36 90q38 38 92 38q52 0 90 -38t38 -90q0 -54 -38 -92q-38 -36 -90 -36v0zM384 0q-54 0 -92 36q-36 38 -36 92q0 52 36 90q38 38 92 38q52 0 90 -38t38 -90q0 -54 -38 -92q-38 -36 -90 -36v0zM640 0q-54 0 -92 36q-36 38 -36 92 q0 52 36 90q38 38 92 38q52 0 90 -38t38 -90q0 -54 -38 -92q-38 -36 -90 -36v0zM896 0q-54 0 -92 36q-36 38 -36 92q0 52 36 90q38 38 92 38q52 0 90 -38t38 -90q0 -54 -38 -92q-38 -36 -90 -36v0zM1152 0q-54 0 -92 36q-36 38 -36 92q0 52 36 90q38 38 92 38q52 0 90 -38 t38 -90q0 -54 -38 -92q-38 -36 -90 -36v0zM1152 256q-54 0 -92 36q-36 38 -36 92q0 52 36 90q38 38 92 38q52 0 90 -38t38 -90q0 -54 -38 -92q-38 -36 -90 -36v0zM1408 256q-54 0 -92 36q-36 38 -36 92q0 52 36 90q38 38 92 38q52 0 90 -38t38 -90q0 -54 -38 -92 q-38 -36 -90 -36v0zM1152 512q-54 0 -92 36q-36 38 -36 92q0 52 36 90q38 38 92 38q52 0 90 -38t38 -90q0 -54 -38 -92q-38 -36 -90 -36v0zM1408 512q-54 0 -92 36q-36 38 -36 92q0 52 36 90q38 38 92 38q52 0 90 -38t38 -90q0 -54 -38 -92q-38 -36 -90 -36v0zM128 768 q-54 0 -92 36q-36 38 -36 92q0 52 36 90q38 38 92 38q52 0 90 -38t38 -90q0 -54 -38 -92q-38 -36 -90 -36v0zM384 768q-54 0 -92 36q-36 38 -36 92q0 52 36 90q38 38 92 38q52 0 90 -38t38 -90q0 -54 -38 -92q-38 -36 -90 -36v0zM640 768q-54 0 -92 36q-36 38 -36 92 q0 52 36 90q38 38 92 38q52 0 90 -38t38 -90q0 -54 -38 -92q-38 -36 -90 -36v0zM896 768q-54 0 -92 36q-36 38 -36 92q0 52 36 90q38 38 92 38q52 0 90 -38t38 -90q0 -54 -38 -92q-38 -36 -90 -36v0zM1152 768q-54 0 -92 36q-36 38 -36 92q0 52 36 90q38 38 92 38 q52 0 90 -38t38 -90q0 -54 -38 -92q-38 -36 -90 -36v0zM128 1024q-54 0 -92 36q-36 38 -36 92q0 52 36 90q38 38 92 38q52 0 90 -38t38 -90q0 -54 -38 -92q-38 -36 -90 -36v0zM384 1024q-54 0 -92 36q-36 38 -36 92q0 52 36 90q38 38 92 38q52 0 90 -38t38 -90 q0 -54 -38 -92q-38 -36 -90 -36v0zM128 1280q-54 0 -92 36q-36 38 -36 92q0 52 36 90q38 38 92 38q52 0 90 -38t38 -90q0 -54 -38 -92q-38 -36 -90 -36v0zM384 1280q-54 0 -92 36q-36 38 -36 92q0 52 36 90q38 38 92 38q52 0 90 -38t38 -90q0 -54 -38 -92q-38 -36 -90 -36v0 zM128 1536q-54 0 -92 36q-36 38 -36 92q0 52 36 90q38 38 92 38q52 0 90 -38t38 -90q0 -54 -38 -92q-38 -36 -90 -36v0zM384 1536q-54 0 -92 36q-36 38 -36 92q0 52 36 90q38 38 92 38q52 0 90 -38t38 -90q0 -54 -38 -92q-38 -36 -90 -36v0zM640 1536q-54 0 -92 36 q-36 38 -36 92q0 52 36 90q38 38 92 38q52 0 90 -38t38 -90q0 -54 -38 -92q-38 -36 -90 -36v0zM896 1536q-54 0 -92 36q-36 38 -36 92q0 52 36 90q38 38 92 38q52 0 90 -38t38 -90q0 -54 -38 -92q-38 -36 -90 -36v0zM1152 1536q-54 0 -92 36q-36 38 -36 92q0 52 36 90 q38 38 92 38q52 0 90 -38t38 -90q0 -54 -38 -92q-38 -36 -90 -36v0zM1408 1536q-54 0 -92 36q-36 38 -36 92q0 52 36 90q38 38 92 38q52 0 90 -38t38 -90q0 -54 -38 -92q-38 -36 -90 -36v0z" />
<glyph unicode="6" d="M384 0q-54 0 -92 36q-36 38 -36 92q0 52 36 90q38 38 92 38q52 0 90 -38t38 -90q0 -54 -38 -92q-38 -36 -90 -36v0zM640 0q-54 0 -92 36q-36 38 -36 92q0 52 36 90q38 38 92 38q52 0 90 -38t38 -90q0 -54 -38 -92q-38 -36 -90 -36v0zM896 0q-54 0 -92 36q-36 38 -36 92 q0 52 36 90q38 38 92 38q52 0 90 -38t38 -90q0 -54 -38 -92q-38 -36 -90 -36v0zM1152 0q-54 0 -92 36q-36 38 -36 92q0 52 36 90q38 38 92 38q52 0 90 -38t38 -90q0 -54 -38 -92q-38 -36 -90 -36v0zM128 256q-54 0 -92 36q-36 38 -36 92q0 52 36 90q38 38 92 38q52 0 90 -38 t38 -90q0 -54 -38 -92q-38 -36 -90 -36v0zM384 256q-54 0 -92 36q-36 38 -36 92q0 52 36 90q38 38 92 38q52 0 90 -38t38 -90q0 -54 -38 -92q-38 -36 -90 -36v0zM1152 256q-54 0 -92 36q-36 38 -36 92q0 52 36 90q38 38 92 38q52 0 90 -38t38 -90q0 -54 -38 -92 q-38 -36 -90 -36v0zM1408 256q-54 0 -92 36q-36 38 -36 92q0 52 36 90q38 38 92 38q52 0 90 -38t38 -90q0 -54 -38 -92q-38 -36 -90 -36v0zM128 512q-54 0 -92 36q-36 38 -36 92q0 52 36 90q38 38 92 38q52 0 90 -38t38 -90q0 -54 -38 -92q-38 -36 -90 -36v0zM384 512 q-54 0 -92 36q-36 38 -36 92q0 52 36 90q38 38 92 38q52 0 90 -38t38 -90q0 -54 -38 -92q-38 -36 -90 -36v0zM1152 512q-54 0 -92 36q-36 38 -36 92q0 52 36 90q38 38 92 38q52 0 90 -38t38 -90q0 -54 -38 -92q-38 -36 -90 -36v0zM1408 512q-54 0 -92 36q-36 38 -36 92 q0 52 36 90q38 38 92 38q52 0 90 -38t38 -90q0 -54 -38 -92q-38 -36 -90 -36v0zM128 768q-54 0 -92 36q-36 38 -36 92q0 52 36 90q38 38 92 38q52 0 90 -38t38 -90q0 -54 -38 -92q-38 -36 -90 -36v0zM384 768q-54 0 -92 36q-36 38 -36 92q0 52 36 90q38 38 92 38 q52 0 90 -38t38 -90q0 -54 -38 -92q-38 -36 -90 -36v0zM640 768q-54 0 -92 36q-36 38 -36 92q0 52 36 90q38 38 92 38q52 0 90 -38t38 -90q0 -54 -38 -92q-38 -36 -90 -36v0zM896 768q-54 0 -92 36q-36 38 -36 92q0 52 36 90q38 38 92 38q52 0 90 -38t38 -90q0 -54 -38 -92 q-38 -36 -90 -36v0zM1152 768q-54 0 -92 36q-36 38 -36 92q0 52 36 90q38 38 92 38q52 0 90 -38t38 -90q0 -54 -38 -92q-38 -36 -90 -36v0zM128 1024q-54 0 -92 36q-36 38 -36 92q0 52 36 90q38 38 92 38q52 0 90 -38t38 -90q0 -54 -38 -92q-38 -36 -90 -36v0zM384 1024 q-54 0 -92 36q-36 38 -36 92q0 52 36 90q38 38 92 38q52 0 90 -38t38 -90q0 -54 -38 -92q-38 -36 -90 -36v0zM128 1280q-54 0 -92 36q-36 38 -36 92q0 52 36 90q38 38 92 38q52 0 90 -38t38 -90q0 -54 -38 -92q-38 -36 -90 -36v0zM384 1280q-54 0 -92 36q-36 38 -36 92 q0 52 36 90q38 38 92 38q52 0 90 -38t38 -90q0 -54 -38 -92q-38 -36 -90 -36v0zM384 1536q-54 0 -92 36q-36 38 -36 92q0 52 36 90q38 38 92 38q52 0 90 -38t38 -90q0 -54 -38 -92q-38 -36 -90 -36v0zM640 1536q-54 0 -92 36q-36 38 -36 92q0 52 36 90q38 38 92 38 q52 0 90 -38t38 -90q0 -54 -38 -92q-38 -36 -90 -36v0zM896 1536q-54 0 -92 36q-36 38 -36 92q0 52 36 90q38 38 92 38q52 0 90 -38t38 -90q0 -54 -38 -92q-38 -36 -90 -36v0zM1152 1536q-54 0 -92 36q-36 38 -36 92q0 52 36 90q38 38 92 38q52 0 90 -38t38 -90 q0 -54 -38 -92q-38 -36 -90 -36v0zM1408 1536q-54 0 -92 36q-36 38 -36 92q0 52 36 90q38 38 92 38q52 0 90 -38t38 -90q0 -54 -38 -92q-38 -36 -90 -36v0z" />
<glyph unicode="7" d="M640 0q-54 0 -92 36q-36 38 -36 92q0 52 36 90q38 38 92 38q52 0 90 -38t38 -90q0 -54 -38 -92q-38 -36 -90 -36v0zM896 0q-54 0 -92 36q-36 38 -36 92q0 52 36 90q38 38 92 38q52 0 90 -38t38 -90q0 -54 -38 -92q-38 -36 -90 -36v0zM640 256q-54 0 -92 36q-36 38 -36 92 q0 52 36 90q38 38 92 38q52 0 90 -38t38 -90q0 -54 -38 -92q-38 -36 -90 -36v0zM896 256q-54 0 -92 36q-36 38 -36 92q0 52 36 90q38 38 92 38q52 0 90 -38t38 -90q0 -54 -38 -92q-38 -36 -90 -36v0zM640 512q-54 0 -92 36q-36 38 -36 92q0 52 36 90q38 38 92 38 q52 0 90 -38t38 -90q0 -54 -38 -92q-38 -36 -90 -36v0zM896 512q-54 0 -92 36q-36 38 -36 92q0 52 36 90q38 38 92 38q52 0 90 -38t38 -90q0 -54 -38 -92q-38 -36 -90 -36v0zM640 768q-54 0 -92 36q-36 38 -36 92q0 52 36 90q38 38 92 38q52 0 90 -38t38 -90q0 -54 -38 -92 q-38 -36 -90 -36v0zM896 768q-54 0 -92 36q-36 38 -36 92q0 52 36 90q38 38 92 38q52 0 90 -38t38 -90q0 -54 -38 -92q-38 -36 -90 -36v0zM896 1024q-54 0 -92 36q-36 38 -36 92q0 52 36 90q38 38 92 38q52 0 90 -38t38 -90q0 -54 -38 -92q-38 -36 -90 -36v0zM1152 1024 q-54 0 -92 36q-36 38 -36 92q0 52 36 90q38 38 92 38q52 0 90 -38t38 -90q0 -54 -38 -92q-38 -36 -90 -36v0zM1152 1280q-54 0 -92 36q-36 38 -36 92q0 52 36 90q38 38 92 38q52 0 90 -38t38 -90q0 -54 -38 -92q-38 -36 -90 -36v0zM1408 1280q-54 0 -92 36q-36 38 -36 92 q0 52 36 90q38 38 92 38q52 0 90 -38t38 -90q0 -54 -38 -92q-38 -36 -90 -36v0zM128 1536q-54 0 -92 36q-36 38 -36 92q0 52 36 90q38 38 92 38q52 0 90 -38t38 -90q0 -54 -38 -92q-38 -36 -90 -36v0zM384 1536q-54 0 -92 36q-36 38 -36 92q0 52 36 90q38 38 92 38 q52 0 90 -38t38 -90q0 -54 -38 -92q-38 -36 -90 -36v0zM640 1536q-54 0 -92 36q-36 38 -36 92q0 52 36 90q38 38 92 38q52 0 90 -38t38 -90q0 -54 -38 -92q-38 -36 -90 -36v0zM896 1536q-54 0 -92 36q-36 38 -36 92q0 52 36 90q38 38 92 38q52 0 90 -38t38 -90 q0 -54 -38 -92q-38 -36 -90 -36v0zM1152 1536q-54 0 -92 36q-36 38 -36 92q0 52 36 90q38 38 92 38q52 0 90 -38t38 -90q0 -54 -38 -92q-38 -36 -90 -36v0zM1408 1536q-54 0 -92 36q-36 38 -36 92q0 52 36 90q38 38 92 38q52 0 90 -38t38 -90q0 -54 -38 -92q-38 -36 -90 -36 v0z" />
<glyph unicode="8" d="M384 0q-54 0 -92 36q-36 38 -36 92q0 52 36 90q38 38 92 38q52 0 90 -38t38 -90q0 -54 -38 -92q-38 -36 -90 -36v0zM640 0q-54 0 -92 36q-36 38 -36 92q0 52 36 90q38 38 92 38q52 0 90 -38t38 -90q0 -54 -38 -92q-38 -36 -90 -36v0zM896 0q-54 0 -92 36q-36 38 -36 92 q0 52 36 90q38 38 92 38q52 0 90 -38t38 -90q0 -54 -38 -92q-38 -36 -90 -36v0zM1152 0q-54 0 -92 36q-36 38 -36 92q0 52 36 90q38 38 92 38q52 0 90 -38t38 -90q0 -54 -38 -92q-38 -36 -90 -36v0zM128 256q-54 0 -92 36q-36 38 -36 92q0 52 36 90q38 38 92 38q52 0 90 -38 t38 -90q0 -54 -38 -92q-38 -36 -90 -36v0zM384 256q-54 0 -92 36q-36 38 -36 92q0 52 36 90q38 38 92 38q52 0 90 -38t38 -90q0 -54 -38 -92q-38 -36 -90 -36v0zM1152 256q-54 0 -92 36q-36 38 -36 92q0 52 36 90q38 38 92 38q52 0 90 -38t38 -90q0 -54 -38 -92 q-38 -36 -90 -36v0zM1408 256q-54 0 -92 36q-36 38 -36 92q0 52 36 90q38 38 92 38q52 0 90 -38t38 -90q0 -54 -38 -92q-38 -36 -90 -36v0zM128 512q-54 0 -92 36q-36 38 -36 92q0 52 36 90q38 38 92 38q52 0 90 -38t38 -90q0 -54 -38 -92q-38 -36 -90 -36v0zM384 512 q-54 0 -92 36q-36 38 -36 92q0 52 36 90q38 38 92 38q52 0 90 -38t38 -90q0 -54 -38 -92q-38 -36 -90 -36v0zM1152 512q-54 0 -92 36q-36 38 -36 92q0 52 36 90q38 38 92 38q52 0 90 -38t38 -90q0 -54 -38 -92q-38 -36 -90 -36v0zM1408 512q-54 0 -92 36q-36 38 -36 92 q0 52 36 90q38 38 92 38q52 0 90 -38t38 -90q0 -54 -38 -92q-38 -36 -90 -36v0zM384 768q-54 0 -92 36q-36 38 -36 92q0 52 36 90q38 38 92 38q52 0 90 -38t38 -90q0 -54 -38 -92q-38 -36 -90 -36v0zM640 768q-54 0 -92 36q-36 38 -36 92q0 52 36 90q38 38 92 38 q52 0 90 -38t38 -90q0 -54 -38 -92q-38 -36 -90 -36v0zM896 768q-54 0 -92 36q-36 38 -36 92q0 52 36 90q38 38 92 38q52 0 90 -38t38 -90q0 -54 -38 -92q-38 -36 -90 -36v0zM1152 768q-54 0 -92 36q-36 38 -36 92q0 52 36 90q38 38 92 38q52 0 90 -38t38 -90q0 -54 -38 -92 q-38 -36 -90 -36v0zM128 1024q-54 0 -92 36q-36 38 -36 92q0 52 36 90q38 38 92 38q52 0 90 -38t38 -90q0 -54 -38 -92q-38 -36 -90 -36v0zM384 1024q-54 0 -92 36q-36 38 -36 92q0 52 36 90q38 38 92 38q52 0 90 -38t38 -90q0 -54 -38 -92q-38 -36 -90 -36v0zM1152 1024 q-54 0 -92 36q-36 38 -36 92q0 52 36 90q38 38 92 38q52 0 90 -38t38 -90q0 -54 -38 -92q-38 -36 -90 -36v0zM1408 1024q-54 0 -92 36q-36 38 -36 92q0 52 36 90q38 38 92 38q52 0 90 -38t38 -90q0 -54 -38 -92q-38 -36 -90 -36v0zM128 1280q-54 0 -92 36q-36 38 -36 92 q0 52 36 90q38 38 92 38q52 0 90 -38t38 -90q0 -54 -38 -92q-38 -36 -90 -36v0zM384 1280q-54 0 -92 36q-36 38 -36 92q0 52 36 90q38 38 92 38q52 0 90 -38t38 -90q0 -54 -38 -92q-38 -36 -90 -36v0zM1152 1280q-54 0 -92 36q-36 38 -36 92q0 52 36 90q38 38 92 38 q52 0 90 -38t38 -90q0 -54 -38 -92q-38 -36 -90 -36v0zM1408 1280q-54 0 -92 36q-36 38 -36 92q0 52 36 90q38 38 92 38q52 0 90 -38t38 -90q0 -54 -38 -92q-38 -36 -90 -36v0zM384 1536q-54 0 -92 36q-36 38 -36 92q0 52 36 90q38 38 92 38q52 0 90 -38t38 -90 q0 -54 -38 -92q-38 -36 -90 -36v0zM640 1536q-54 0 -92 36q-36 38 -36 92q0 52 36 90q38 38 92 38q52 0 90 -38t38 -90q0 -54 -38 -92q-38 -36 -90 -36v0zM896 1536q-54 0 -92 36q-36 38 -36 92q0 52 36 90q38 38 92 38q52 0 90 -38t38 -90q0 -54 -38 -92q-38 -36 -90 -36v0 zM1152 1536q-54 0 -92 36q-36 38 -36 92q0 52 36 90q38 38 92 38q52 0 90 -38t38 -90q0 -54 -38 -92q-38 -36 -90 -36v0z" />
<glyph unicode="9" d="M384 0q-54 0 -92 36q-36 38 -36 92q0 52 36 90q38 38 92 38q52 0 90 -38t38 -90q0 -54 -38 -92q-38 -36 -90 -36v0zM640 0q-54 0 -92 36q-36 38 -36 92q0 52 36 90q38 38 92 38q52 0 90 -38t38 -90q0 -54 -38 -92q-38 -36 -90 -36v0zM896 0q-54 0 -92 36q-36 38 -36 92 q0 52 36 90q38 38 92 38q52 0 90 -38t38 -90q0 -54 -38 -92q-38 -36 -90 -36v0zM1152 0q-54 0 -92 36q-36 38 -36 92q0 52 36 90q38 38 92 38q52 0 90 -38t38 -90q0 -54 -38 -92q-38 -36 -90 -36v0zM128 256q-54 0 -92 36q-36 38 -36 92q0 52 36 90q38 38 92 38q52 0 90 -38 t38 -90q0 -54 -38 -92q-38 -36 -90 -36v0zM384 256q-54 0 -92 36q-36 38 -36 92q0 52 36 90q38 38 92 38q52 0 90 -38t38 -90q0 -54 -38 -92q-38 -36 -90 -36v0zM1152 256q-54 0 -92 36q-36 38 -36 92q0 52 36 90q38 38 92 38q52 0 90 -38t38 -90q0 -54 -38 -92 q-38 -36 -90 -36v0zM1408 256q-54 0 -92 36q-36 38 -36 92q0 52 36 90q38 38 92 38q52 0 90 -38t38 -90q0 -54 -38 -92q-38 -36 -90 -36v0zM1152 512q-54 0 -92 36q-36 38 -36 92q0 52 36 90q38 38 92 38q52 0 90 -38t38 -90q0 -54 -38 -92q-38 -36 -90 -36v0zM1408 512 q-54 0 -92 36q-36 38 -36 92q0 52 36 90q38 38 92 38q52 0 90 -38t38 -90q0 -54 -38 -92q-38 -36 -90 -36v0zM384 768q-54 0 -92 36q-36 38 -36 92q0 52 36 90q38 38 92 38q52 0 90 -38t38 -90q0 -54 -38 -92q-38 -36 -90 -36v0zM640 768q-54 0 -92 36q-36 38 -36 92 q0 52 36 90q38 38 92 38q52 0 90 -38t38 -90q0 -54 -38 -92q-38 -36 -90 -36v0zM896 768q-54 0 -92 36q-36 38 -36 92q0 52 36 90q38 38 92 38q52 0 90 -38t38 -90q0 -54 -38 -92q-38 -36 -90 -36v0zM1152 768q-54 0 -92 36q-36 38 -36 92q0 52 36 90q38 38 92 38 q52 0 90 -38t38 -90q0 -54 -38 -92q-38 -36 -90 -36v0zM1408 768q-54 0 -92 36q-36 38 -36 92q0 52 36 90q38 38 92 38q52 0 90 -38t38 -90q0 -54 -38 -92q-38 -36 -90 -36v0zM128 1024q-54 0 -92 36q-36 38 -36 92q0 52 36 90q38 38 92 38q52 0 90 -38t38 -90 q0 -54 -38 -92q-38 -36 -90 -36v0zM384 1024q-54 0 -92 36q-36 38 -36 92q0 52 36 90q38 38 92 38q52 0 90 -38t38 -90q0 -54 -38 -92q-38 -36 -90 -36v0zM1152 1024q-54 0 -92 36q-36 38 -36 92q0 52 36 90q38 38 92 38q52 0 90 -38t38 -90q0 -54 -38 -92q-38 -36 -90 -36 v0zM1408 1024q-54 0 -92 36q-36 38 -36 92q0 52 36 90q38 38 92 38q52 0 90 -38t38 -90q0 -54 -38 -92q-38 -36 -90 -36v0zM128 1280q-54 0 -92 36q-36 38 -36 92q0 52 36 90q38 38 92 38q52 0 90 -38t38 -90q0 -54 -38 -92q-38 -36 -90 -36v0zM384 1280q-54 0 -92 36 q-36 38 -36 92q0 52 36 90q38 38 92 38q52 0 90 -38t38 -90q0 -54 -38 -92q-38 -36 -90 -36v0zM1152 1280q-54 0 -92 36q-36 38 -36 92q0 52 36 90q38 38 92 38q52 0 90 -38t38 -90q0 -54 -38 -92q-38 -36 -90 -36v0zM1408 1280q-54 0 -92 36q-36 38 -36 92q0 52 36 90 q38 38 92 38q52 0 90 -38t38 -90q0 -54 -38 -92q-38 -36 -90 -36v0zM384 1536q-54 0 -92 36q-36 38 -36 92q0 52 36 90q38 38 92 38q52 0 90 -38t38 -90q0 -54 -38 -92q-38 -36 -90 -36v0zM640 1536q-54 0 -92 36q-36 38 -36 92q0 52 36 90q38 38 92 38q52 0 90 -38t38 -90 q0 -54 -38 -92q-38 -36 -90 -36v0zM896 1536q-54 0 -92 36q-36 38 -36 92q0 52 36 90q38 38 92 38q52 0 90 -38t38 -90q0 -54 -38 -92q-38 -36 -90 -36v0zM1152 1536q-54 0 -92 36q-36 38 -36 92q0 52 36 90q38 38 92 38q52 0 90 -38t38 -90q0 -54 -38 -92q-38 -36 -90 -36 v0z" />
<glyph unicode=":" horiz-adv-x="768" d="M128 256q-54 0 -92 36q-36 38 -36 92q0 52 36 90q38 38 92 38q52 0 90 -38t38 -90q0 -54 -38 -92q-38 -36 -90 -36v0zM384 256q-54 0 -92 36q-36 38 -36 92q0 52 36 90q38 38 92 38q52 0 90 -38t38 -90q0 -54 -38 -92q-38 -36 -90 -36v0zM128 512q-54 0 -92 36 q-36 38 -36 92q0 52 36 90q38 38 92 38q52 0 90 -38t38 -90q0 -54 -38 -92q-38 -36 -90 -36v0zM384 512q-54 0 -92 36q-36 38 -36 92q0 52 36 90q38 38 92 38q52 0 90 -38t38 -90q0 -54 -38 -92q-38 -36 -90 -36v0zM128 1024q-54 0 -92 36q-36 38 -36 92q0 52 36 90 q38 38 92 38q52 0 90 -38t38 -90q0 -54 -38 -92q-38 -36 -90 -36v0zM384 1024q-54 0 -92 36q-36 38 -36 92q0 52 36 90q38 38 92 38q52 0 90 -38t38 -90q0 -54 -38 -92q-38 -36 -90 -36v0zM128 1280q-54 0 -92 36q-36 38 -36 92q0 52 36 90q38 38 92 38q52 0 90 -38t38 -90 q0 -54 -38 -92q-38 -36 -90 -36v0zM384 1280q-54 0 -92 36q-36 38 -36 92q0 52 36 90q38 38 92 38q52 0 90 -38t38 -90q0 -54 -38 -92q-38 -36 -90 -36v0z" />
<glyph unicode="&#x3c;" horiz-adv-x="1280" d="M640 256q-54 0 -92 36q-36 38 -36 92q0 52 36 90q38 38 92 38q52 0 90 -38t38 -90q0 -54 -38 -92q-38 -36 -90 -36v0zM896 256q-54 0 -92 36q-36 38 -36 92q0 52 36 90q38 38 92 38q52 0 90 -38t38 -90q0 -54 -38 -92q-38 -36 -90 -36v0zM384 512q-54 0 -92 36 q-36 38 -36 92q0 52 36 90q38 38 92 38q52 0 90 -38t38 -90q0 -54 -38 -92q-38 -36 -90 -36v0zM640 512q-54 0 -92 36q-36 38 -36 92q0 52 36 90q38 38 92 38q52 0 90 -38t38 -90q0 -54 -38 -92q-38 -36 -90 -36v0zM128 768q-54 0 -92 36q-36 38 -36 92q0 52 36 90 q38 38 92 38q52 0 90 -38t38 -90q0 -54 -38 -92q-38 -36 -90 -36v0zM384 768q-54 0 -92 36q-36 38 -36 92q0 52 36 90q38 38 92 38q52 0 90 -38t38 -90q0 -54 -38 -92q-38 -36 -90 -36v0zM384 1024q-54 0 -92 36q-36 38 -36 92q0 52 36 90q38 38 92 38q52 0 90 -38t38 -90 q0 -54 -38 -92q-38 -36 -90 -36v0zM640 1024q-54 0 -92 36q-36 38 -36 92q0 52 36 90q38 38 92 38q52 0 90 -38t38 -90q0 -54 -38 -92q-38 -36 -90 -36v0zM640 1280q-54 0 -92 36q-36 38 -36 92q0 52 36 90q38 38 92 38q52 0 90 -38t38 -90q0 -54 -38 -92q-38 -36 -90 -36v0 zM896 1280q-54 0 -92 36q-36 38 -36 92q0 52 36 90q38 38 92 38q52 0 90 -38t38 -90q0 -54 -38 -92q-38 -36 -90 -36v0z" />
<glyph unicode="&#x3e;" horiz-adv-x="1280" d="M128 256q-54 0 -92 36q-36 38 -36 92q0 52 36 90q38 38 92 38q52 0 90 -38t38 -90q0 -54 -38 -92q-38 -36 -90 -36v0zM384 256q-54 0 -92 36q-36 38 -36 92q0 52 36 90q38 38 92 38q52 0 90 -38t38 -90q0 -54 -38 -92q-38 -36 -90 -36v0zM384 512q-54 0 -92 36 q-36 38 -36 92q0 52 36 90q38 38 92 38q52 0 90 -38t38 -90q0 -54 -38 -92q-38 -36 -90 -36v0zM640 512q-54 0 -92 36q-36 38 -36 92q0 52 36 90q38 38 92 38q52 0 90 -38t38 -90q0 -54 -38 -92q-38 -36 -90 -36v0zM640 768q-54 0 -92 36q-36 38 -36 92q0 52 36 90 q38 38 92 38q52 0 90 -38t38 -90q0 -54 -38 -92q-38 -36 -90 -36v0zM896 768q-54 0 -92 36q-36 38 -36 92q0 52 36 90q38 38 92 38q52 0 90 -38t38 -90q0 -54 -38 -92q-38 -36 -90 -36v0zM384 1024q-54 0 -92 36q-36 38 -36 92q0 52 36 90q38 38 92 38q52 0 90 -38t38 -90 q0 -54 -38 -92q-38 -36 -90 -36v0zM640 1024q-54 0 -92 36q-36 38 -36 92q0 52 36 90q38 38 92 38q52 0 90 -38t38 -90q0 -54 -38 -92q-38 -36 -90 -36v0zM128 1280q-54 0 -92 36q-36 38 -36 92q0 52 36 90q38 38 92 38q52 0 90 -38t38 -90q0 -54 -38 -92q-38 -36 -90 -36v0 zM384 1280q-54 0 -92 36q-36 38 -36 92q0 52 36 90q38 38 92 38q52 0 90 -38t38 -90q0 -54 -38 -92q-38 -36 -90 -36v0z" />
<glyph unicode="A" d="M128 0q-54 0 -92 36q-36 38 -36 92q0 52 36 90q38 38 92 38q52 0 90 -38t38 -90q0 -54 -38 -92q-38 -36 -90 -36v0zM384 0q-54 0 -92 36q-36 38 -36 92q0 52 36 90q38 38 92 38q52 0 90 -38t38 -90q0 -54 -38 -92q-38 -36 -90 -36v0zM1152 0q-54 0 -92 36q-36 38 -36 92 q0 52 36 90q38 38 92 38q52 0 90 -38t38 -90q0 -54 -38 -92q-38 -36 -90 -36v0zM1408 0q-54 0 -92 36q-36 38 -36 92q0 52 36 90q38 38 92 38q52 0 90 -38t38 -90q0 -54 -38 -92q-38 -36 -90 -36v0zM128 256q-54 0 -92 36q-36 38 -36 92q0 52 36 90q38 38 92 38q52 0 90 -38 t38 -90q0 -54 -38 -92q-38 -36 -90 -36v0zM384 256q-54 0 -92 36q-36 38 -36 92q0 52 36 90q38 38 92 38q52 0 90 -38t38 -90q0 -54 -38 -92q-38 -36 -90 -36v0zM1152 256q-54 0 -92 36q-36 38 -36 92q0 52 36 90q38 38 92 38q52 0 90 -38t38 -90q0 -54 -38 -92 q-38 -36 -90 -36v0zM1408 256q-54 0 -92 36q-36 38 -36 92q0 52 36 90q38 38 92 38q52 0 90 -38t38 -90q0 -54 -38 -92q-38 -36 -90 -36v0zM128 512q-54 0 -92 36q-36 38 -36 92q0 52 36 90q38 38 92 38q52 0 90 -38t38 -90q0 -54 -38 -92q-38 -36 -90 -36v0zM384 512 q-54 0 -92 36q-36 38 -36 92q0 52 36 90q38 38 92 38q52 0 90 -38t38 -90q0 -54 -38 -92q-38 -36 -90 -36v0zM1152 512q-54 0 -92 36q-36 38 -36 92q0 52 36 90q38 38 92 38q52 0 90 -38t38 -90q0 -54 -38 -92q-38 -36 -90 -36v0zM1408 512q-54 0 -92 36q-36 38 -36 92 q0 52 36 90q38 38 92 38q52 0 90 -38t38 -90q0 -54 -38 -92q-38 -36 -90 -36v0zM128 768q-54 0 -92 36q-36 38 -36 92q0 52 36 90q38 38 92 38q52 0 90 -38t38 -90q0 -54 -38 -92q-38 -36 -90 -36v0zM384 768q-54 0 -92 36q-36 38 -36 92q0 52 36 90q38 38 92 38 q52 0 90 -38t38 -90q0 -54 -38 -92q-38 -36 -90 -36v0zM640 768q-54 0 -92 36q-36 38 -36 92q0 52 36 90q38 38 92 38q52 0 90 -38t38 -90q0 -54 -38 -92q-38 -36 -90 -36v0zM896 768q-54 0 -92 36q-36 38 -36 92q0 52 36 90q38 38 92 38q52 0 90 -38t38 -90q0 -54 -38 -92 q-38 -36 -90 -36v0zM1152 768q-54 0 -92 36q-36 38 -36 92q0 52 36 90q38 38 92 38q52 0 90 -38t38 -90q0 -54 -38 -92q-38 -36 -90 -36v0zM1408 768q-54 0 -92 36q-36 38 -36 92q0 52 36 90q38 38 92 38q52 0 90 -38t38 -90q0 -54 -38 -92q-38 -36 -90 -36v0zM128 1024 q-54 0 -92 36q-36 38 -36 92q0 52 36 90q38 38 92 38q52 0 90 -38t38 -90q0 -54 -38 -92q-38 -36 -90 -36v0zM384 1024q-54 0 -92 36q-36 38 -36 92q0 52 36 90q38 38 92 38q52 0 90 -38t38 -90q0 -54 -38 -92q-38 -36 -90 -36v0zM1152 1024q-54 0 -92 36q-36 38 -36 92 q0 52 36 90q38 38 92 38q52 0 90 -38t38 -90q0 -54 -38 -92q-38 -36 -90 -36v0zM1408 1024q-54 0 -92 36q-36 38 -36 92q0 52 36 90q38 38 92 38q52 0 90 -38t38 -90q0 -54 -38 -92q-38 -36 -90 -36v0zM128 1280q-54 0 -92 36q-36 38 -36 92q0 52 36 90q38 38 92 38 q52 0 90 -38t38 -90q0 -54 -38 -92q-38 -36 -90 -36v0zM384 1280q-54 0 -92 36q-36 38 -36 92q0 52 36 90q38 38 92 38q52 0 90 -38t38 -90q0 -54 -38 -92q-38 -36 -90 -36v0zM1152 1280q-54 0 -92 36q-36 38 -36 92q0 52 36 90q38 38 92 38q52 0 90 -38t38 -90 q0 -54 -38 -92q-38 -36 -90 -36v0zM1408 1280q-54 0 -92 36q-36 38 -36 92q0 52 36 90q38 38 92 38q52 0 90 -38t38 -90q0 -54 -38 -92q-38 -36 -90 -36v0zM384 1536q-54 0 -92 36q-36 38 -36 92q0 52 36 90q38 38 92 38q52 0 90 -38t38 -90q0 -54 -38 -92q-38 -36 -90 -36 v0zM640 1536q-54 0 -92 36q-36 38 -36 92q0 52 36 90q38 38 92 38q52 0 90 -38t38 -90q0 -54 -38 -92q-38 -36 -90 -36v0zM896 1536q-54 0 -92 36q-36 38 -36 92q0 52 36 90q38 38 92 38q52 0 90 -38t38 -90q0 -54 -38 -92q-38 -36 -90 -36v0zM1152 1536q-54 0 -92 36 q-36 38 -36 92q0 52 36 90q38 38 92 38q52 0 90 -38t38 -90q0 -54 -38 -92q-38 -36 -90 -36v0z" />
<glyph unicode="B" d="M128 0q-54 0 -92 36q-36 38 -36 92q0 52 36 90q38 38 92 38q52 0 90 -38t38 -90q0 -54 -38 -92q-38 -36 -90 -36v0zM384 0q-54 0 -92 36q-36 38 -36 92q0 52 36 90q38 38 92 38q52 0 90 -38t38 -90q0 -54 -38 -92q-38 -36 -90 -36v0zM640 0q-54 0 -92 36q-36 38 -36 92 q0 52 36 90q38 38 92 38q52 0 90 -38t38 -90q0 -54 -38 -92q-38 -36 -90 -36v0zM896 0q-54 0 -92 36q-36 38 -36 92q0 52 36 90q38 38 92 38q52 0 90 -38t38 -90q0 -54 -38 -92q-38 -36 -90 -36v0zM1152 0q-54 0 -92 36q-36 38 -36 92q0 52 36 90q38 38 92 38q52 0 90 -38 t38 -90q0 -54 -38 -92q-38 -36 -90 -36v0zM128 256q-54 0 -92 36q-36 38 -36 92q0 52 36 90q38 38 92 38q52 0 90 -38t38 -90q0 -54 -38 -92q-38 -36 -90 -36v0zM384 256q-54 0 -92 36q-36 38 -36 92q0 52 36 90q38 38 92 38q52 0 90 -38t38 -90q0 -54 -38 -92 q-38 -36 -90 -36v0zM1152 256q-54 0 -92 36q-36 38 -36 92q0 52 36 90q38 38 92 38q52 0 90 -38t38 -90q0 -54 -38 -92q-38 -36 -90 -36v0zM1408 256q-54 0 -92 36q-36 38 -36 92q0 52 36 90q38 38 92 38q52 0 90 -38t38 -90q0 -54 -38 -92q-38 -36 -90 -36v0zM128 512 q-54 0 -92 36q-36 38 -36 92q0 52 36 90q38 38 92 38q52 0 90 -38t38 -90q0 -54 -38 -92q-38 -36 -90 -36v0zM384 512q-54 0 -92 36q-36 38 -36 92q0 52 36 90q38 38 92 38q52 0 90 -38t38 -90q0 -54 -38 -92q-38 -36 -90 -36v0zM1152 512q-54 0 -92 36q-36 38 -36 92 q0 52 36 90q38 38 92 38q52 0 90 -38t38 -90q0 -54 -38 -92q-38 -36 -90 -36v0zM1408 512q-54 0 -92 36q-36 38 -36 92q0 52 36 90q38 38 92 38q52 0 90 -38t38 -90q0 -54 -38 -92q-38 -36 -90 -36v0zM128 768q-54 0 -92 36q-36 38 -36 92q0 52 36 90q38 38 92 38 q52 0 90 -38t38 -90q0 -54 -38 -92q-38 -36 -90 -36v0zM384 768q-54 0 -92 36q-36 38 -36 92q0 52 36 90q38 38 92 38q52 0 90 -38t38 -90q0 -54 -38 -92q-38 -36 -90 -36v0zM640 768q-54 0 -92 36q-36 38 -36 92q0 52 36 90q38 38 92 38q52 0 90 -38t38 -90q0 -54 -38 -92 q-38 -36 -90 -36v0zM896 768q-54 0 -92 36q-36 38 -36 92q0 52 36 90q38 38 92 38q52 0 90 -38t38 -90q0 -54 -38 -92q-38 -36 -90 -36v0zM1152 768q-54 0 -92 36q-36 38 -36 92q0 52 36 90q38 38 92 38q52 0 90 -38t38 -90q0 -54 -38 -92q-38 -36 -90 -36v0zM128 1024 q-54 0 -92 36q-36 38 -36 92q0 52 36 90q38 38 92 38q52 0 90 -38t38 -90q0 -54 -38 -92q-38 -36 -90 -36v0zM384 1024q-54 0 -92 36q-36 38 -36 92q0 52 36 90q38 38 92 38q52 0 90 -38t38 -90q0 -54 -38 -92q-38 -36 -90 -36v0zM1152 1024q-54 0 -92 36q-36 38 -36 92 q0 52 36 90q38 38 92 38q52 0 90 -38t38 -90q0 -54 -38 -92q-38 -36 -90 -36v0zM1408 1024q-54 0 -92 36q-36 38 -36 92q0 52 36 90q38 38 92 38q52 0 90 -38t38 -90q0 -54 -38 -92q-38 -36 -90 -36v0zM128 1280q-54 0 -92 36q-36 38 -36 92q0 52 36 90q38 38 92 38 q52 0 90 -38t38 -90q0 -54 -38 -92q-38 -36 -90 -36v0zM384 1280q-54 0 -92 36q-36 38 -36 92q0 52 36 90q38 38 92 38q52 0 90 -38t38 -90q0 -54 -38 -92q-38 -36 -90 -36v0zM1152 1280q-54 0 -92 36q-36 38 -36 92q0 52 36 90q38 38 92 38q52 0 90 -38t38 -90 q0 -54 -38 -92q-38 -36 -90 -36v0zM1408 1280q-54 0 -92 36q-36 38 -36 92q0 52 36 90q38 38 92 38q52 0 90 -38t38 -90q0 -54 -38 -92q-38 -36 -90 -36v0zM128 1536q-54 0 -92 36q-36 38 -36 92q0 52 36 90q38 38 92 38q52 0 90 -38t38 -90q0 -54 -38 -92q-38 -36 -90 -36 v0zM384 1536q-54 0 -92 36q-36 38 -36 92q0 52 36 90q38 38 92 38q52 0 90 -38t38 -90q0 -54 -38 -92q-38 -36 -90 -36v0zM640 1536q-54 0 -92 36q-36 38 -36 92q0 52 36 90q38 38 92 38q52 0 90 -38t38 -90q0 -54 -38 -92q-38 -36 -90 -36v0zM896 1536q-54 0 -92 36 q-36 38 -36 92q0 52 36 90q38 38 92 38q52 0 90 -38t38 -90q0 -54 -38 -92q-38 -36 -90 -36v0zM1152 1536q-54 0 -92 36q-36 38 -36 92q0 52 36 90q38 38 92 38q52 0 90 -38t38 -90q0 -54 -38 -92q-38 -36 -90 -36v0z" />
<glyph unicode="C" d="M384 0q-54 0 -92 36q-36 38 -36 92q0 52 36 90q38 38 92 38q52 0 90 -38t38 -90q0 -54 -38 -92q-38 -36 -90 -36v0zM640 0q-54 0 -92 36q-36 38 -36 92q0 52 36 90q38 38 92 38q52 0 90 -38t38 -90q0 -54 -38 -92q-38 -36 -90 -36v0zM896 0q-54 0 -92 36q-36 38 -36 92 q0 52 36 90q38 38 92 38q52 0 90 -38t38 -90q0 -54 -38 -92q-38 -36 -90 -36v0zM1152 0q-54 0 -92 36q-36 38 -36 92q0 52 36 90q38 38 92 38q52 0 90 -38t38 -90q0 -54 -38 -92q-38 -36 -90 -36v0zM128 256q-54 0 -92 36q-36 38 -36 92q0 52 36 90q38 38 92 38q52 0 90 -38 t38 -90q0 -54 -38 -92q-38 -36 -90 -36v0zM384 256q-54 0 -92 36q-36 38 -36 92q0 52 36 90q38 38 92 38q52 0 90 -38t38 -90q0 -54 -38 -92q-38 -36 -90 -36v0zM1152 256q-54 0 -92 36q-36 38 -36 92q0 52 36 90q38 38 92 38q52 0 90 -38t38 -90q0 -54 -38 -92 q-38 -36 -90 -36v0zM1408 256q-54 0 -92 36q-36 38 -36 92q0 52 36 90q38 38 92 38q52 0 90 -38t38 -90q0 -54 -38 -92q-38 -36 -90 -36v0zM128 512q-54 0 -92 36q-36 38 -36 92q0 52 36 90q38 38 92 38q52 0 90 -38t38 -90q0 -54 -38 -92q-38 -36 -90 -36v0zM384 512 q-54 0 -92 36q-36 38 -36 92q0 52 36 90q38 38 92 38q52 0 90 -38t38 -90q0 -54 -38 -92q-38 -36 -90 -36v0zM128 768q-54 0 -92 36q-36 38 -36 92q0 52 36 90q38 38 92 38q52 0 90 -38t38 -90q0 -54 -38 -92q-38 -36 -90 -36v0zM384 768q-54 0 -92 36q-36 38 -36 92 q0 52 36 90q38 38 92 38q52 0 90 -38t38 -90q0 -54 -38 -92q-38 -36 -90 -36v0zM128 1024q-54 0 -92 36q-36 38 -36 92q0 52 36 90q38 38 92 38q52 0 90 -38t38 -90q0 -54 -38 -92q-38 -36 -90 -36v0zM384 1024q-54 0 -92 36q-36 38 -36 92q0 52 36 90q38 38 92 38 q52 0 90 -38t38 -90q0 -54 -38 -92q-38 -36 -90 -36v0zM128 1280q-54 0 -92 36q-36 38 -36 92q0 52 36 90q38 38 92 38q52 0 90 -38t38 -90q0 -54 -38 -92q-38 -36 -90 -36v0zM384 1280q-54 0 -92 36q-36 38 -36 92q0 52 36 90q38 38 92 38q52 0 90 -38t38 -90 q0 -54 -38 -92q-38 -36 -90 -36v0zM1152 1280q-54 0 -92 36q-36 38 -36 92q0 52 36 90q38 38 92 38q52 0 90 -38t38 -90q0 -54 -38 -92q-38 -36 -90 -36v0zM1408 1280q-54 0 -92 36q-36 38 -36 92q0 52 36 90q38 38 92 38q52 0 90 -38t38 -90q0 -54 -38 -92q-38 -36 -90 -36 v0zM384 1536q-54 0 -92 36q-36 38 -36 92q0 52 36 90q38 38 92 38q52 0 90 -38t38 -90q0 -54 -38 -92q-38 -36 -90 -36v0zM640 1536q-54 0 -92 36q-36 38 -36 92q0 52 36 90q38 38 92 38q52 0 90 -38t38 -90q0 -54 -38 -92q-38 -36 -90 -36v0zM896 1536q-54 0 -92 36 q-36 38 -36 92q0 52 36 90q38 38 92 38q52 0 90 -38t38 -90q0 -54 -38 -92q-38 -36 -90 -36v0zM1152 1536q-54 0 -92 36q-36 38 -36 92q0 52 36 90q38 38 92 38q52 0 90 -38t38 -90q0 -54 -38 -92q-38 -36 -90 -36v0z" />
<glyph unicode="D" d="M128 0q-54 0 -92 36q-36 38 -36 92q0 52 36 90q38 38 92 38q52 0 90 -38t38 -90q0 -54 -38 -92q-38 -36 -90 -36v0zM384 0q-54 0 -92 36q-36 38 -36 92q0 52 36 90q38 38 92 38q52 0 90 -38t38 -90q0 -54 -38 -92q-38 -36 -90 -36v0zM640 0q-54 0 -92 36q-36 38 -36 92 q0 52 36 90q38 38 92 38q52 0 90 -38t38 -90q0 -54 -38 -92q-38 -36 -90 -36v0zM896 0q-54 0 -92 36q-36 38 -36 92q0 52 36 90q38 38 92 38q52 0 90 -38t38 -90q0 -54 -38 -92q-38 -36 -90 -36v0zM1152 0q-54 0 -92 36q-36 38 -36 92q0 52 36 90q38 38 92 38q52 0 90 -38 t38 -90q0 -54 -38 -92q-38 -36 -90 -36v0zM128 256q-54 0 -92 36q-36 38 -36 92q0 52 36 90q38 38 92 38q52 0 90 -38t38 -90q0 -54 -38 -92q-38 -36 -90 -36v0zM384 256q-54 0 -92 36q-36 38 -36 92q0 52 36 90q38 38 92 38q52 0 90 -38t38 -90q0 -54 -38 -92 q-38 -36 -90 -36v0zM1152 256q-54 0 -92 36q-36 38 -36 92q0 52 36 90q38 38 92 38q52 0 90 -38t38 -90q0 -54 -38 -92q-38 -36 -90 -36v0zM1408 256q-54 0 -92 36q-36 38 -36 92q0 52 36 90q38 38 92 38q52 0 90 -38t38 -90q0 -54 -38 -92q-38 -36 -90 -36v0zM128 512 q-54 0 -92 36q-36 38 -36 92q0 52 36 90q38 38 92 38q52 0 90 -38t38 -90q0 -54 -38 -92q-38 -36 -90 -36v0zM384 512q-54 0 -92 36q-36 38 -36 92q0 52 36 90q38 38 92 38q52 0 90 -38t38 -90q0 -54 -38 -92q-38 -36 -90 -36v0zM1152 512q-54 0 -92 36q-36 38 -36 92 q0 52 36 90q38 38 92 38q52 0 90 -38t38 -90q0 -54 -38 -92q-38 -36 -90 -36v0zM1408 512q-54 0 -92 36q-36 38 -36 92q0 52 36 90q38 38 92 38q52 0 90 -38t38 -90q0 -54 -38 -92q-38 -36 -90 -36v0zM128 768q-54 0 -92 36q-36 38 -36 92q0 52 36 90q38 38 92 38 q52 0 90 -38t38 -90q0 -54 -38 -92q-38 -36 -90 -36v0zM384 768q-54 0 -92 36q-36 38 -36 92q0 52 36 90q38 38 92 38q52 0 90 -38t38 -90q0 -54 -38 -92q-38 -36 -90 -36v0zM1152 768q-54 0 -92 36q-36 38 -36 92q0 52 36 90q38 38 92 38q52 0 90 -38t38 -90q0 -54 -38 -92 q-38 -36 -90 -36v0zM1408 768q-54 0 -92 36q-36 38 -36 92q0 52 36 90q38 38 92 38q52 0 90 -38t38 -90q0 -54 -38 -92q-38 -36 -90 -36v0zM128 1024q-54 0 -92 36q-36 38 -36 92q0 52 36 90q38 38 92 38q52 0 90 -38t38 -90q0 -54 -38 -92q-38 -36 -90 -36v0zM384 1024 q-54 0 -92 36q-36 38 -36 92q0 52 36 90q38 38 92 38q52 0 90 -38t38 -90q0 -54 -38 -92q-38 -36 -90 -36v0zM1152 1024q-54 0 -92 36q-36 38 -36 92q0 52 36 90q38 38 92 38q52 0 90 -38t38 -90q0 -54 -38 -92q-38 -36 -90 -36v0zM1408 1024q-54 0 -92 36q-36 38 -36 92 q0 52 36 90q38 38 92 38q52 0 90 -38t38 -90q0 -54 -38 -92q-38 -36 -90 -36v0zM128 1280q-54 0 -92 36q-36 38 -36 92q0 52 36 90q38 38 92 38q52 0 90 -38t38 -90q0 -54 -38 -92q-38 -36 -90 -36v0zM384 1280q-54 0 -92 36q-36 38 -36 92q0 52 36 90q38 38 92 38 q52 0 90 -38t38 -90q0 -54 -38 -92q-38 -36 -90 -36v0zM1152 1280q-54 0 -92 36q-36 38 -36 92q0 52 36 90q38 38 92 38q52 0 90 -38t38 -90q0 -54 -38 -92q-38 -36 -90 -36v0zM1408 1280q-54 0 -92 36q-36 38 -36 92q0 52 36 90q38 38 92 38q52 0 90 -38t38 -90 q0 -54 -38 -92q-38 -36 -90 -36v0zM128 1536q-54 0 -92 36q-36 38 -36 92q0 52 36 90q38 38 92 38q52 0 90 -38t38 -90q0 -54 -38 -92q-38 -36 -90 -36v0zM384 1536q-54 0 -92 36q-36 38 -36 92q0 52 36 90q38 38 92 38q52 0 90 -38t38 -90q0 -54 -38 -92q-38 -36 -90 -36v0 zM640 1536q-54 0 -92 36q-36 38 -36 92q0 52 36 90q38 38 92 38q52 0 90 -38t38 -90q0 -54 -38 -92q-38 -36 -90 -36v0zM896 1536q-54 0 -92 36q-36 38 -36 92q0 52 36 90q38 38 92 38q52 0 90 -38t38 -90q0 -54 -38 -92q-38 -36 -90 -36v0zM1152 1536q-54 0 -92 36 q-36 38 -36 92q0 52 36 90q38 38 92 38q52 0 90 -38t38 -90q0 -54 -38 -92q-38 -36 -90 -36v0z" />
<glyph unicode="E" d="M128 0q-54 0 -92 36q-36 38 -36 92q0 52 36 90q38 38 92 38q52 0 90 -38t38 -90q0 -54 -38 -92q-38 -36 -90 -36v0zM384 0q-54 0 -92 36q-36 38 -36 92q0 52 36 90q38 38 92 38q52 0 90 -38t38 -90q0 -54 -38 -92q-38 -36 -90 -36v0zM640 0q-54 0 -92 36q-36 38 -36 92 q0 52 36 90q38 38 92 38q52 0 90 -38t38 -90q0 -54 -38 -92q-38 -36 -90 -36v0zM896 0q-54 0 -92 36q-36 38 -36 92q0 52 36 90q38 38 92 38q52 0 90 -38t38 -90q0 -54 -38 -92q-38 -36 -90 -36v0zM1152 0q-54 0 -92 36q-36 38 -36 92q0 52 36 90q38 38 92 38q52 0 90 -38 t38 -90q0 -54 -38 -92q-38 -36 -90 -36v0zM1408 0q-54 0 -92 36q-36 38 -36 92q0 52 36 90q38 38 92 38q52 0 90 -38t38 -90q0 -54 -38 -92q-38 -36 -90 -36v0zM128 256q-54 0 -92 36q-36 38 -36 92q0 52 36 90q38 38 92 38q52 0 90 -38t38 -90q0 -54 -38 -92 q-38 -36 -90 -36v0zM384 256q-54 0 -92 36q-36 38 -36 92q0 52 36 90q38 38 92 38q52 0 90 -38t38 -90q0 -54 -38 -92q-38 -36 -90 -36v0zM128 512q-54 0 -92 36q-36 38 -36 92q0 52 36 90q38 38 92 38q52 0 90 -38t38 -90q0 -54 -38 -92q-38 -36 -90 -36v0zM384 512 q-54 0 -92 36q-36 38 -36 92q0 52 36 90q38 38 92 38q52 0 90 -38t38 -90q0 -54 -38 -92q-38 -36 -90 -36v0zM128 768q-54 0 -92 36q-36 38 -36 92q0 52 36 90q38 38 92 38q52 0 90 -38t38 -90q0 -54 -38 -92q-38 -36 -90 -36v0zM384 768q-54 0 -92 36q-36 38 -36 92 q0 52 36 90q38 38 92 38q52 0 90 -38t38 -90q0 -54 -38 -92q-38 -36 -90 -36v0zM640 768q-54 0 -92 36q-36 38 -36 92q0 52 36 90q38 38 92 38q52 0 90 -38t38 -90q0 -54 -38 -92q-38 -36 -90 -36v0zM896 768q-54 0 -92 36q-36 38 -36 92q0 52 36 90q38 38 92 38 q52 0 90 -38t38 -90q0 -54 -38 -92q-38 -36 -90 -36v0zM128 1024q-54 0 -92 36q-36 38 -36 92q0 52 36 90q38 38 92 38q52 0 90 -38t38 -90q0 -54 -38 -92q-38 -36 -90 -36v0zM384 1024q-54 0 -92 36q-36 38 -36 92q0 52 36 90q38 38 92 38q52 0 90 -38t38 -90 q0 -54 -38 -92q-38 -36 -90 -36v0zM128 1280q-54 0 -92 36q-36 38 -36 92q0 52 36 90q38 38 92 38q52 0 90 -38t38 -90q0 -54 -38 -92q-38 -36 -90 -36v0zM384 1280q-54 0 -92 36q-36 38 -36 92q0 52 36 90q38 38 92 38q52 0 90 -38t38 -90q0 -54 -38 -92q-38 -36 -90 -36v0 zM128 1536q-54 0 -92 36q-36 38 -36 92q0 52 36 90q38 38 92 38q52 0 90 -38t38 -90q0 -54 -38 -92q-38 -36 -90 -36v0zM384 1536q-54 0 -92 36q-36 38 -36 92q0 52 36 90q38 38 92 38q52 0 90 -38t38 -90q0 -54 -38 -92q-38 -36 -90 -36v0zM640 1536q-54 0 -92 36 q-36 38 -36 92q0 52 36 90q38 38 92 38q52 0 90 -38t38 -90q0 -54 -38 -92q-38 -36 -90 -36v0zM896 1536q-54 0 -92 36q-36 38 -36 92q0 52 36 90q38 38 92 38q52 0 90 -38t38 -90q0 -54 -38 -92q-38 -36 -90 -36v0zM1152 1536q-54 0 -92 36q-36 38 -36 92q0 52 36 90 q38 38 92 38q52 0 90 -38t38 -90q0 -54 -38 -92q-38 -36 -90 -36v0zM1408 1536q-54 0 -92 36q-36 38 -36 92q0 52 36 90q38 38 92 38q52 0 90 -38t38 -90q0 -54 -38 -92q-38 -36 -90 -36v0z" />
<glyph unicode="F" d="M128 0q-54 0 -92 36q-36 38 -36 92q0 52 36 90q38 38 92 38q52 0 90 -38t38 -90q0 -54 -38 -92q-38 -36 -90 -36v0zM384 0q-54 0 -92 36q-36 38 -36 92q0 52 36 90q38 38 92 38q52 0 90 -38t38 -90q0 -54 -38 -92q-38 -36 -90 -36v0zM128 256q-54 0 -92 36q-36 38 -36 92 q0 52 36 90q38 38 92 38q52 0 90 -38t38 -90q0 -54 -38 -92q-38 -36 -90 -36v0zM384 256q-54 0 -92 36q-36 38 -36 92q0 52 36 90q38 38 92 38q52 0 90 -38t38 -90q0 -54 -38 -92q-38 -36 -90 -36v0zM128 512q-54 0 -92 36q-36 38 -36 92q0 52 36 90q38 38 92 38 q52 0 90 -38t38 -90q0 -54 -38 -92q-38 -36 -90 -36v0zM384 512q-54 0 -92 36q-36 38 -36 92q0 52 36 90q38 38 92 38q52 0 90 -38t38 -90q0 -54 -38 -92q-38 -36 -90 -36v0zM128 768q-54 0 -92 36q-36 38 -36 92q0 52 36 90q38 38 92 38q52 0 90 -38t38 -90q0 -54 -38 -92 q-38 -36 -90 -36v0zM384 768q-54 0 -92 36q-36 38 -36 92q0 52 36 90q38 38 92 38q52 0 90 -38t38 -90q0 -54 -38 -92q-38 -36 -90 -36v0zM640 768q-54 0 -92 36q-36 38 -36 92q0 52 36 90q38 38 92 38q52 0 90 -38t38 -90q0 -54 -38 -92q-38 -36 -90 -36v0zM896 768 q-54 0 -92 36q-36 38 -36 92q0 52 36 90q38 38 92 38q52 0 90 -38t38 -90q0 -54 -38 -92q-38 -36 -90 -36v0zM128 1024q-54 0 -92 36q-36 38 -36 92q0 52 36 90q38 38 92 38q52 0 90 -38t38 -90q0 -54 -38 -92q-38 -36 -90 -36v0zM384 1024q-54 0 -92 36q-36 38 -36 92 q0 52 36 90q38 38 92 38q52 0 90 -38t38 -90q0 -54 -38 -92q-38 -36 -90 -36v0zM128 1280q-54 0 -92 36q-36 38 -36 92q0 52 36 90q38 38 92 38q52 0 90 -38t38 -90q0 -54 -38 -92q-38 -36 -90 -36v0zM384 1280q-54 0 -92 36q-36 38 -36 92q0 52 36 90q38 38 92 38 q52 0 90 -38t38 -90q0 -54 -38 -92q-38 -36 -90 -36v0zM128 1536q-54 0 -92 36q-36 38 -36 92q0 52 36 90q38 38 92 38q52 0 90 -38t38 -90q0 -54 -38 -92q-38 -36 -90 -36v0zM384 1536q-54 0 -92 36q-36 38 -36 92q0 52 36 90q38 38 92 38q52 0 90 -38t38 -90 q0 -54 -38 -92q-38 -36 -90 -36v0zM640 1536q-54 0 -92 36q-36 38 -36 92q0 52 36 90q38 38 92 38q52 0 90 -38t38 -90q0 -54 -38 -92q-38 -36 -90 -36v0zM896 1536q-54 0 -92 36q-36 38 -36 92q0 52 36 90q38 38 92 38q52 0 90 -38t38 -90q0 -54 -38 -92q-38 -36 -90 -36v0 zM1152 1536q-54 0 -92 36q-36 38 -36 92q0 52 36 90q38 38 92 38q52 0 90 -38t38 -90q0 -54 -38 -92q-38 -36 -90 -36v0zM1408 1536q-54 0 -92 36q-36 38 -36 92q0 52 36 90q38 38 92 38q52 0 90 -38t38 -90q0 -54 -38 -92q-38 -36 -90 -36v0z" />
<glyph unicode="G" d="M384 0q-54 0 -92 36q-36 38 -36 92q0 52 36 90q38 38 92 38q52 0 90 -38t38 -90q0 -54 -38 -92q-38 -36 -90 -36v0zM640 0q-54 0 -92 36q-36 38 -36 92q0 52 36 90q38 38 92 38q52 0 90 -38t38 -90q0 -54 -38 -92q-38 -36 -90 -36v0zM896 0q-54 0 -92 36q-36 38 -36 92 q0 52 36 90q38 38 92 38q52 0 90 -38t38 -90q0 -54 -38 -92q-38 -36 -90 -36v0zM1152 0q-54 0 -92 36q-36 38 -36 92q0 52 36 90q38 38 92 38q52 0 90 -38t38 -90q0 -54 -38 -92q-38 -36 -90 -36v0zM128 256q-54 0 -92 36q-36 38 -36 92q0 52 36 90q38 38 92 38q52 0 90 -38 t38 -90q0 -54 -38 -92q-38 -36 -90 -36v0zM384 256q-54 0 -92 36q-36 38 -36 92q0 52 36 90q38 38 92 38q52 0 90 -38t38 -90q0 -54 -38 -92q-38 -36 -90 -36v0zM1152 256q-54 0 -92 36q-36 38 -36 92q0 52 36 90q38 38 92 38q52 0 90 -38t38 -90q0 -54 -38 -92 q-38 -36 -90 -36v0zM1408 256q-54 0 -92 36q-36 38 -36 92q0 52 36 90q38 38 92 38q52 0 90 -38t38 -90q0 -54 -38 -92q-38 -36 -90 -36v0zM128 512q-54 0 -92 36q-36 38 -36 92q0 52 36 90q38 38 92 38q52 0 90 -38t38 -90q0 -54 -38 -92q-38 -36 -90 -36v0zM384 512 q-54 0 -92 36q-36 38 -36 92q0 52 36 90q38 38 92 38q52 0 90 -38t38 -90q0 -54 -38 -92q-38 -36 -90 -36v0zM1152 512q-54 0 -92 36q-36 38 -36 92q0 52 36 90q38 38 92 38q52 0 90 -38t38 -90q0 -54 -38 -92q-38 -36 -90 -36v0zM1408 512q-54 0 -92 36q-36 38 -36 92 q0 52 36 90q38 38 92 38q52 0 90 -38t38 -90q0 -54 -38 -92q-38 -36 -90 -36v0zM128 768q-54 0 -92 36q-36 38 -36 92q0 52 36 90q38 38 92 38q52 0 90 -38t38 -90q0 -54 -38 -92q-38 -36 -90 -36v0zM384 768q-54 0 -92 36q-36 38 -36 92q0 52 36 90q38 38 92 38 q52 0 90 -38t38 -90q0 -54 -38 -92q-38 -36 -90 -36v0zM896 768q-54 0 -92 36q-36 38 -36 92q0 52 36 90q38 38 92 38q52 0 90 -38t38 -90q0 -54 -38 -92q-38 -36 -90 -36v0zM1152 768q-54 0 -92 36q-36 38 -36 92q0 52 36 90q38 38 92 38q52 0 90 -38t38 -90q0 -54 -38 -92 q-38 -36 -90 -36v0zM1408 768q-54 0 -92 36q-36 38 -36 92q0 52 36 90q38 38 92 38q52 0 90 -38t38 -90q0 -54 -38 -92q-38 -36 -90 -36v0zM128 1024q-54 0 -92 36q-36 38 -36 92q0 52 36 90q38 38 92 38q52 0 90 -38t38 -90q0 -54 -38 -92q-38 -36 -90 -36v0zM384 1024 q-54 0 -92 36q-36 38 -36 92q0 52 36 90q38 38 92 38q52 0 90 -38t38 -90q0 -54 -38 -92q-38 -36 -90 -36v0zM128 1280q-54 0 -92 36q-36 38 -36 92q0 52 36 90q38 38 92 38q52 0 90 -38t38 -90q0 -54 -38 -92q-38 -36 -90 -36v0zM384 1280q-54 0 -92 36q-36 38 -36 92 q0 52 36 90q38 38 92 38q52 0 90 -38t38 -90q0 -54 -38 -92q-38 -36 -90 -36v0zM1152 1280q-54 0 -92 36q-36 38 -36 92q0 52 36 90q38 38 92 38q52 0 90 -38t38 -90q0 -54 -38 -92q-38 -36 -90 -36v0zM1408 1280q-54 0 -92 36q-36 38 -36 92q0 52 36 90q38 38 92 38 q52 0 90 -38t38 -90q0 -54 -38 -92q-38 -36 -90 -36v0zM384 1536q-54 0 -92 36q-36 38 -36 92q0 52 36 90q38 38 92 38q52 0 90 -38t38 -90q0 -54 -38 -92q-38 -36 -90 -36v0zM640 1536q-54 0 -92 36q-36 38 -36 92q0 52 36 90q38 38 92 38q52 0 90 -38t38 -90 q0 -54 -38 -92q-38 -36 -90 -36v0zM896 1536q-54 0 -92 36q-36 38 -36 92q0 52 36 90q38 38 92 38q52 0 90 -38t38 -90q0 -54 -38 -92q-38 -36 -90 -36v0zM1152 1536q-54 0 -92 36q-36 38 -36 92q0 52 36 90q38 38 92 38q52 0 90 -38t38 -90q0 -54 -38 -92q-38 -36 -90 -36 v0z" />
<glyph unicode="H" d="M128 0q-54 0 -92 36q-36 38 -36 92q0 52 36 90q38 38 92 38q52 0 90 -38t38 -90q0 -54 -38 -92q-38 -36 -90 -36v0zM384 0q-54 0 -92 36q-36 38 -36 92q0 52 36 90q38 38 92 38q52 0 90 -38t38 -90q0 -54 -38 -92q-38 -36 -90 -36v0zM1152 0q-54 0 -92 36q-36 38 -36 92 q0 52 36 90q38 38 92 38q52 0 90 -38t38 -90q0 -54 -38 -92q-38 -36 -90 -36v0zM1408 0q-54 0 -92 36q-36 38 -36 92q0 52 36 90q38 38 92 38q52 0 90 -38t38 -90q0 -54 -38 -92q-38 -36 -90 -36v0zM128 256q-54 0 -92 36q-36 38 -36 92q0 52 36 90q38 38 92 38q52 0 90 -38 t38 -90q0 -54 -38 -92q-38 -36 -90 -36v0zM384 256q-54 0 -92 36q-36 38 -36 92q0 52 36 90q38 38 92 38q52 0 90 -38t38 -90q0 -54 -38 -92q-38 -36 -90 -36v0zM1152 256q-54 0 -92 36q-36 38 -36 92q0 52 36 90q38 38 92 38q52 0 90 -38t38 -90q0 -54 -38 -92 q-38 -36 -90 -36v0zM1408 256q-54 0 -92 36q-36 38 -36 92q0 52 36 90q38 38 92 38q52 0 90 -38t38 -90q0 -54 -38 -92q-38 -36 -90 -36v0zM128 512q-54 0 -92 36q-36 38 -36 92q0 52 36 90q38 38 92 38q52 0 90 -38t38 -90q0 -54 -38 -92q-38 -36 -90 -36v0zM384 512 q-54 0 -92 36q-36 38 -36 92q0 52 36 90q38 38 92 38q52 0 90 -38t38 -90q0 -54 -38 -92q-38 -36 -90 -36v0zM1152 512q-54 0 -92 36q-36 38 -36 92q0 52 36 90q38 38 92 38q52 0 90 -38t38 -90q0 -54 -38 -92q-38 -36 -90 -36v0zM1408 512q-54 0 -92 36q-36 38 -36 92 q0 52 36 90q38 38 92 38q52 0 90 -38t38 -90q0 -54 -38 -92q-38 -36 -90 -36v0zM128 768q-54 0 -92 36q-36 38 -36 92q0 52 36 90q38 38 92 38q52 0 90 -38t38 -90q0 -54 -38 -92q-38 -36 -90 -36v0zM384 768q-54 0 -92 36q-36 38 -36 92q0 52 36 90q38 38 92 38 q52 0 90 -38t38 -90q0 -54 -38 -92q-38 -36 -90 -36v0zM640 768q-54 0 -92 36q-36 38 -36 92q0 52 36 90q38 38 92 38q52 0 90 -38t38 -90q0 -54 -38 -92q-38 -36 -90 -36v0zM896 768q-54 0 -92 36q-36 38 -36 92q0 52 36 90q38 38 92 38q52 0 90 -38t38 -90q0 -54 -38 -92 q-38 -36 -90 -36v0zM1152 768q-54 0 -92 36q-36 38 -36 92q0 52 36 90q38 38 92 38q52 0 90 -38t38 -90q0 -54 -38 -92q-38 -36 -90 -36v0zM1408 768q-54 0 -92 36q-36 38 -36 92q0 52 36 90q38 38 92 38q52 0 90 -38t38 -90q0 -54 -38 -92q-38 -36 -90 -36v0zM128 1024 q-54 0 -92 36q-36 38 -36 92q0 52 36 90q38 38 92 38q52 0 90 -38t38 -90q0 -54 -38 -92q-38 -36 -90 -36v0zM384 1024q-54 0 -92 36q-36 38 -36 92q0 52 36 90q38 38 92 38q52 0 90 -38t38 -90q0 -54 -38 -92q-38 -36 -90 -36v0zM1152 1024q-54 0 -92 36q-36 38 -36 92 q0 52 36 90q38 38 92 38q52 0 90 -38t38 -90q0 -54 -38 -92q-38 -36 -90 -36v0zM1408 1024q-54 0 -92 36q-36 38 -36 92q0 52 36 90q38 38 92 38q52 0 90 -38t38 -90q0 -54 -38 -92q-38 -36 -90 -36v0zM128 1280q-54 0 -92 36q-36 38 -36 92q0 52 36 90q38 38 92 38 q52 0 90 -38t38 -90q0 -54 -38 -92q-38 -36 -90 -36v0zM384 1280q-54 0 -92 36q-36 38 -36 92q0 52 36 90q38 38 92 38q52 0 90 -38t38 -90q0 -54 -38 -92q-38 -36 -90 -36v0zM1152 1280q-54 0 -92 36q-36 38 -36 92q0 52 36 90q38 38 92 38q52 0 90 -38t38 -90 q0 -54 -38 -92q-38 -36 -90 -36v0zM1408 1280q-54 0 -92 36q-36 38 -36 92q0 52 36 90q38 38 92 38q52 0 90 -38t38 -90q0 -54 -38 -92q-38 -36 -90 -36v0zM128 1536q-54 0 -92 36q-36 38 -36 92q0 52 36 90q38 38 92 38q52 0 90 -38t38 -90q0 -54 -38 -92q-38 -36 -90 -36 v0zM384 1536q-54 0 -92 36q-36 38 -36 92q0 52 36 90q38 38 92 38q52 0 90 -38t38 -90q0 -54 -38 -92q-38 -36 -90 -36v0zM1152 1536q-54 0 -92 36q-36 38 -36 92q0 52 36 90q38 38 92 38q52 0 90 -38t38 -90q0 -54 -38 -92q-38 -36 -90 -36v0zM1408 1536q-54 0 -92 36 q-36 38 -36 92q0 52 36 90q38 38 92 38q52 0 90 -38t38 -90q0 -54 -38 -92q-38 -36 -90 -36v0z" />
<glyph unicode="I" horiz-adv-x="768" d="M128 0q-54 0 -92 36q-36 38 -36 92q0 52 36 90q38 38 92 38q52 0 90 -38t38 -90q0 -54 -38 -92q-38 -36 -90 -36v0zM384 0q-54 0 -92 36q-36 38 -36 92q0 52 36 90q38 38 92 38q52 0 90 -38t38 -90q0 -54 -38 -92q-38 -36 -90 -36v0zM128 256q-54 0 -92 36q-36 38 -36 92 q0 52 36 90q38 38 92 38q52 0 90 -38t38 -90q0 -54 -38 -92q-38 -36 -90 -36v0zM384 256q-54 0 -92 36q-36 38 -36 92q0 52 36 90q38 38 92 38q52 0 90 -38t38 -90q0 -54 -38 -92q-38 -36 -90 -36v0zM128 512q-54 0 -92 36q-36 38 -36 92q0 52 36 90q38 38 92 38 q52 0 90 -38t38 -90q0 -54 -38 -92q-38 -36 -90 -36v0zM384 512q-54 0 -92 36q-36 38 -36 92q0 52 36 90q38 38 92 38q52 0 90 -38t38 -90q0 -54 -38 -92q-38 -36 -90 -36v0zM128 768q-54 0 -92 36q-36 38 -36 92q0 52 36 90q38 38 92 38q52 0 90 -38t38 -90q0 -54 -38 -92 q-38 -36 -90 -36v0zM384 768q-54 0 -92 36q-36 38 -36 92q0 52 36 90q38 38 92 38q52 0 90 -38t38 -90q0 -54 -38 -92q-38 -36 -90 -36v0zM128 1024q-54 0 -92 36q-36 38 -36 92q0 52 36 90q38 38 92 38q52 0 90 -38t38 -90q0 -54 -38 -92q-38 -36 -90 -36v0zM384 1024 q-54 0 -92 36q-36 38 -36 92q0 52 36 90q38 38 92 38q52 0 90 -38t38 -90q0 -54 -38 -92q-38 -36 -90 -36v0zM128 1280q-54 0 -92 36q-36 38 -36 92q0 52 36 90q38 38 92 38q52 0 90 -38t38 -90q0 -54 -38 -92q-38 -36 -90 -36v0zM384 1280q-54 0 -92 36q-36 38 -36 92 q0 52 36 90q38 38 92 38q52 0 90 -38t38 -90q0 -54 -38 -92q-38 -36 -90 -36v0zM128 1536q-54 0 -92 36q-36 38 -36 92q0 52 36 90q38 38 92 38q52 0 90 -38t38 -90q0 -54 -38 -92q-38 -36 -90 -36v0zM384 1536q-54 0 -92 36q-36 38 -36 92q0 52 36 90q38 38 92 38 q52 0 90 -38t38 -90q0 -54 -38 -92q-38 -36 -90 -36v0z" />
<glyph unicode="J" d="M384 0q-54 0 -92 36q-36 38 -36 92q0 52 36 90q38 38 92 38q52 0 90 -38t38 -90q0 -54 -38 -92q-38 -36 -90 -36v0zM640 0q-54 0 -92 36q-36 38 -36 92q0 52 36 90q38 38 92 38q52 0 90 -38t38 -90q0 -54 -38 -92q-38 -36 -90 -36v0zM896 0q-54 0 -92 36q-36 38 -36 92 q0 52 36 90q38 38 92 38q52 0 90 -38t38 -90q0 -54 -38 -92q-38 -36 -90 -36v0zM1152 0q-54 0 -92 36q-36 38 -36 92q0 52 36 90q38 38 92 38q52 0 90 -38t38 -90q0 -54 -38 -92q-38 -36 -90 -36v0zM128 256q-54 0 -92 36q-36 38 -36 92q0 52 36 90q38 38 92 38q52 0 90 -38 t38 -90q0 -54 -38 -92q-38 -36 -90 -36v0zM384 256q-54 0 -92 36q-36 38 -36 92q0 52 36 90q38 38 92 38q52 0 90 -38t38 -90q0 -54 -38 -92q-38 -36 -90 -36v0zM1152 256q-54 0 -92 36q-36 38 -36 92q0 52 36 90q38 38 92 38q52 0 90 -38t38 -90q0 -54 -38 -92 q-38 -36 -90 -36v0zM1408 256q-54 0 -92 36q-36 38 -36 92q0 52 36 90q38 38 92 38q52 0 90 -38t38 -90q0 -54 -38 -92q-38 -36 -90 -36v0zM1152 512q-54 0 -92 36q-36 38 -36 92q0 52 36 90q38 38 92 38q52 0 90 -38t38 -90q0 -54 -38 -92q-38 -36 -90 -36v0zM1408 512 q-54 0 -92 36q-36 38 -36 92q0 52 36 90q38 38 92 38q52 0 90 -38t38 -90q0 -54 -38 -92q-38 -36 -90 -36v0zM1152 768q-54 0 -92 36q-36 38 -36 92q0 52 36 90q38 38 92 38q52 0 90 -38t38 -90q0 -54 -38 -92q-38 -36 -90 -36v0zM1408 768q-54 0 -92 36q-36 38 -36 92 q0 52 36 90q38 38 92 38q52 0 90 -38t38 -90q0 -54 -38 -92q-38 -36 -90 -36v0zM1152 1024q-54 0 -92 36q-36 38 -36 92q0 52 36 90q38 38 92 38q52 0 90 -38t38 -90q0 -54 -38 -92q-38 -36 -90 -36v0zM1408 1024q-54 0 -92 36q-36 38 -36 92q0 52 36 90q38 38 92 38 q52 0 90 -38t38 -90q0 -54 -38 -92q-38 -36 -90 -36v0zM1152 1280q-54 0 -92 36q-36 38 -36 92q0 52 36 90q38 38 92 38q52 0 90 -38t38 -90q0 -54 -38 -92q-38 -36 -90 -36v0zM1408 1280q-54 0 -92 36q-36 38 -36 92q0 52 36 90q38 38 92 38q52 0 90 -38t38 -90 q0 -54 -38 -92q-38 -36 -90 -36v0zM1152 1536q-54 0 -92 36q-36 38 -36 92q0 52 36 90q38 38 92 38q52 0 90 -38t38 -90q0 -54 -38 -92q-38 -36 -90 -36v0zM1408 1536q-54 0 -92 36q-36 38 -36 92q0 52 36 90q38 38 92 38q52 0 90 -38t38 -90q0 -54 -38 -92q-38 -36 -90 -36 v0z" />
<glyph unicode="K" d="M128 0q-54 0 -92 36q-36 38 -36 92q0 52 36 90q38 38 92 38q52 0 90 -38t38 -90q0 -54 -38 -92q-38 -36 -90 -36v0zM384 0q-54 0 -92 36q-36 38 -36 92q0 52 36 90q38 38 92 38q52 0 90 -38t38 -90q0 -54 -38 -92q-38 -36 -90 -36v0zM1152 0q-54 0 -92 36q-36 38 -36 92 q0 52 36 90q38 38 92 38q52 0 90 -38t38 -90q0 -54 -38 -92q-38 -36 -90 -36v0zM1408 0q-54 0 -92 36q-36 38 -36 92q0 52 36 90q38 38 92 38q52 0 90 -38t38 -90q0 -54 -38 -92q-38 -36 -90 -36v0zM128 256q-54 0 -92 36q-36 38 -36 92q0 52 36 90q38 38 92 38q52 0 90 -38 t38 -90q0 -54 -38 -92q-38 -36 -90 -36v0zM384 256q-54 0 -92 36q-36 38 -36 92q0 52 36 90q38 38 92 38q52 0 90 -38t38 -90q0 -54 -38 -92q-38 -36 -90 -36v0zM896 256q-54 0 -92 36q-36 38 -36 92q0 52 36 90q38 38 92 38q52 0 90 -38t38 -90q0 -54 -38 -92 q-38 -36 -90 -36v0zM1152 256q-54 0 -92 36q-36 38 -36 92q0 52 36 90q38 38 92 38q52 0 90 -38t38 -90q0 -54 -38 -92q-38 -36 -90 -36v0zM128 512q-54 0 -92 36q-36 38 -36 92q0 52 36 90q38 38 92 38q52 0 90 -38t38 -90q0 -54 -38 -92q-38 -36 -90 -36v0zM384 512 q-54 0 -92 36q-36 38 -36 92q0 52 36 90q38 38 92 38q52 0 90 -38t38 -90q0 -54 -38 -92q-38 -36 -90 -36v0zM640 512q-54 0 -92 36q-36 38 -36 92q0 52 36 90q38 38 92 38q52 0 90 -38t38 -90q0 -54 -38 -92q-38 -36 -90 -36v0zM896 512q-54 0 -92 36q-36 38 -36 92 q0 52 36 90q38 38 92 38q52 0 90 -38t38 -90q0 -54 -38 -92q-38 -36 -90 -36v0zM128 768q-54 0 -92 36q-36 38 -36 92q0 52 36 90q38 38 92 38q52 0 90 -38t38 -90q0 -54 -38 -92q-38 -36 -90 -36v0zM384 768q-54 0 -92 36q-36 38 -36 92q0 52 36 90q38 38 92 38 q52 0 90 -38t38 -90q0 -54 -38 -92q-38 -36 -90 -36v0zM640 768q-54 0 -92 36q-36 38 -36 92q0 52 36 90q38 38 92 38q52 0 90 -38t38 -90q0 -54 -38 -92q-38 -36 -90 -36v0zM128 1024q-54 0 -92 36q-36 38 -36 92q0 52 36 90q38 38 92 38q52 0 90 -38t38 -90q0 -54 -38 -92 q-38 -36 -90 -36v0zM384 1024q-54 0 -92 36q-36 38 -36 92q0 52 36 90q38 38 92 38q52 0 90 -38t38 -90q0 -54 -38 -92q-38 -36 -90 -36v0zM640 1024q-54 0 -92 36q-36 38 -36 92q0 52 36 90q38 38 92 38q52 0 90 -38t38 -90q0 -54 -38 -92q-38 -36 -90 -36v0zM896 1024 q-54 0 -92 36q-36 38 -36 92q0 52 36 90q38 38 92 38q52 0 90 -38t38 -90q0 -54 -38 -92q-38 -36 -90 -36v0zM128 1280q-54 0 -92 36q-36 38 -36 92q0 52 36 90q38 38 92 38q52 0 90 -38t38 -90q0 -54 -38 -92q-38 -36 -90 -36v0zM384 1280q-54 0 -92 36q-36 38 -36 92 q0 52 36 90q38 38 92 38q52 0 90 -38t38 -90q0 -54 -38 -92q-38 -36 -90 -36v0zM896 1280q-54 0 -92 36q-36 38 -36 92q0 52 36 90q38 38 92 38q52 0 90 -38t38 -90q0 -54 -38 -92q-38 -36 -90 -36v0zM1152 1280q-54 0 -92 36q-36 38 -36 92q0 52 36 90q38 38 92 38 q52 0 90 -38t38 -90q0 -54 -38 -92q-38 -36 -90 -36v0zM128 1536q-54 0 -92 36q-36 38 -36 92q0 52 36 90q38 38 92 38q52 0 90 -38t38 -90q0 -54 -38 -92q-38 -36 -90 -36v0zM384 1536q-54 0 -92 36q-36 38 -36 92q0 52 36 90q38 38 92 38q52 0 90 -38t38 -90 q0 -54 -38 -92q-38 -36 -90 -36v0zM1152 1536q-54 0 -92 36q-36 38 -36 92q0 52 36 90q38 38 92 38q52 0 90 -38t38 -90q0 -54 -38 -92q-38 -36 -90 -36v0zM1408 1536q-54 0 -92 36q-36 38 -36 92q0 52 36 90q38 38 92 38q52 0 90 -38t38 -90q0 -54 -38 -92q-38 -36 -90 -36 v0z" />
<glyph unicode="L" d="M128 0q-54 0 -92 36q-36 38 -36 92q0 52 36 90q38 38 92 38q52 0 90 -38t38 -90q0 -54 -38 -92q-38 -36 -90 -36v0zM384 0q-54 0 -92 36q-36 38 -36 92q0 52 36 90q38 38 92 38q52 0 90 -38t38 -90q0 -54 -38 -92q-38 -36 -90 -36v0zM640 0q-54 0 -92 36q-36 38 -36 92 q0 52 36 90q38 38 92 38q52 0 90 -38t38 -90q0 -54 -38 -92q-38 -36 -90 -36v0zM896 0q-54 0 -92 36q-36 38 -36 92q0 52 36 90q38 38 92 38q52 0 90 -38t38 -90q0 -54 -38 -92q-38 -36 -90 -36v0zM1152 0q-54 0 -92 36q-36 38 -36 92q0 52 36 90q38 38 92 38q52 0 90 -38 t38 -90q0 -54 -38 -92q-38 -36 -90 -36v0zM1408 0q-54 0 -92 36q-36 38 -36 92q0 52 36 90q38 38 92 38q52 0 90 -38t38 -90q0 -54 -38 -92q-38 -36 -90 -36v0zM128 256q-54 0 -92 36q-36 38 -36 92q0 52 36 90q38 38 92 38q52 0 90 -38t38 -90q0 -54 -38 -92 q-38 -36 -90 -36v0zM384 256q-54 0 -92 36q-36 38 -36 92q0 52 36 90q38 38 92 38q52 0 90 -38t38 -90q0 -54 -38 -92q-38 -36 -90 -36v0zM128 512q-54 0 -92 36q-36 38 -36 92q0 52 36 90q38 38 92 38q52 0 90 -38t38 -90q0 -54 -38 -92q-38 -36 -90 -36v0zM384 512 q-54 0 -92 36q-36 38 -36 92q0 52 36 90q38 38 92 38q52 0 90 -38t38 -90q0 -54 -38 -92q-38 -36 -90 -36v0zM128 768q-54 0 -92 36q-36 38 -36 92q0 52 36 90q38 38 92 38q52 0 90 -38t38 -90q0 -54 -38 -92q-38 -36 -90 -36v0zM384 768q-54 0 -92 36q-36 38 -36 92 q0 52 36 90q38 38 92 38q52 0 90 -38t38 -90q0 -54 -38 -92q-38 -36 -90 -36v0zM128 1024q-54 0 -92 36q-36 38 -36 92q0 52 36 90q38 38 92 38q52 0 90 -38t38 -90q0 -54 -38 -92q-38 -36 -90 -36v0zM384 1024q-54 0 -92 36q-36 38 -36 92q0 52 36 90q38 38 92 38 q52 0 90 -38t38 -90q0 -54 -38 -92q-38 -36 -90 -36v0zM128 1280q-54 0 -92 36q-36 38 -36 92q0 52 36 90q38 38 92 38q52 0 90 -38t38 -90q0 -54 -38 -92q-38 -36 -90 -36v0zM384 1280q-54 0 -92 36q-36 38 -36 92q0 52 36 90q38 38 92 38q52 0 90 -38t38 -90 q0 -54 -38 -92q-38 -36 -90 -36v0zM128 1536q-54 0 -92 36q-36 38 -36 92q0 52 36 90q38 38 92 38q52 0 90 -38t38 -90q0 -54 -38 -92q-38 -36 -90 -36v0zM384 1536q-54 0 -92 36q-36 38 -36 92q0 52 36 90q38 38 92 38q52 0 90 -38t38 -90q0 -54 -38 -92q-38 -36 -90 -36v0 z" />
<glyph unicode="M" horiz-adv-x="2048" d="M128 0q-54 0 -92 36q-36 38 -36 92q0 52 36 90q38 38 92 38q52 0 90 -38t38 -90q0 -54 -38 -92q-38 -36 -90 -36v0zM384 0q-54 0 -92 36q-36 38 -36 92q0 52 36 90q38 38 92 38q52 0 90 -38t38 -90q0 -54 -38 -92q-38 -36 -90 -36v0zM1408 0q-54 0 -92 36q-36 38 -36 92 q0 52 36 90q38 38 92 38q52 0 90 -38t38 -90q0 -54 -38 -92q-38 -36 -90 -36v0zM1664 0q-54 0 -92 36q-36 38 -36 92q0 52 36 90q38 38 92 38q52 0 90 -38t38 -90q0 -54 -38 -92q-38 -36 -90 -36v0zM128 256q-54 0 -92 36q-36 38 -36 92q0 52 36 90q38 38 92 38q52 0 90 -38 t38 -90q0 -54 -38 -92q-38 -36 -90 -36v0zM384 256q-54 0 -92 36q-36 38 -36 92q0 52 36 90q38 38 92 38q52 0 90 -38t38 -90q0 -54 -38 -92q-38 -36 -90 -36v0zM1408 256q-54 0 -92 36q-36 38 -36 92q0 52 36 90q38 38 92 38q52 0 90 -38t38 -90q0 -54 -38 -92 q-38 -36 -90 -36v0zM1664 256q-54 0 -92 36q-36 38 -36 92q0 52 36 90q38 38 92 38q52 0 90 -38t38 -90q0 -54 -38 -92q-38 -36 -90 -36v0zM128 512q-54 0 -92 36q-36 38 -36 92q0 52 36 90q38 38 92 38q52 0 90 -38t38 -90q0 -54 -38 -92q-38 -36 -90 -36v0zM384 512 q-54 0 -92 36q-36 38 -36 92q0 52 36 90q38 38 92 38q52 0 90 -38t38 -90q0 -54 -38 -92q-38 -36 -90 -36v0zM1408 512q-54 0 -92 36q-36 38 -36 92q0 52 36 90q38 38 92 38q52 0 90 -38t38 -90q0 -54 -38 -92q-38 -36 -90 -36v0zM1664 512q-54 0 -92 36q-36 38 -36 92 q0 52 36 90q38 38 92 38q52 0 90 -38t38 -90q0 -54 -38 -92q-38 -36 -90 -36v0zM128 768q-54 0 -92 36q-36 38 -36 92q0 52 36 90q38 38 92 38q52 0 90 -38t38 -90q0 -54 -38 -92q-38 -36 -90 -36v0zM384 768q-54 0 -92 36q-36 38 -36 92q0 52 36 90q38 38 92 38 q52 0 90 -38t38 -90q0 -54 -38 -92q-38 -36 -90 -36v0zM896 768q-54 0 -92 36q-36 38 -36 92q0 52 36 90q38 38 92 38q52 0 90 -38t38 -90q0 -54 -38 -92q-38 -36 -90 -36v0zM1408 768q-54 0 -92 36q-36 38 -36 92q0 52 36 90q38 38 92 38q52 0 90 -38t38 -90q0 -54 -38 -92 q-38 -36 -90 -36v0zM1664 768q-54 0 -92 36q-36 38 -36 92q0 52 36 90q38 38 92 38q52 0 90 -38t38 -90q0 -54 -38 -92q-38 -36 -90 -36v0zM128 1024q-54 0 -92 36q-36 38 -36 92q0 52 36 90q38 38 92 38q52 0 90 -38t38 -90q0 -54 -38 -92q-38 -36 -90 -36v0zM384 1024 q-54 0 -92 36q-36 38 -36 92q0 52 36 90q38 38 92 38q52 0 90 -38t38 -90q0 -54 -38 -92q-38 -36 -90 -36v0zM640 1024q-54 0 -92 36q-36 38 -36 92q0 52 36 90q38 38 92 38q52 0 90 -38t38 -90q0 -54 -38 -92q-38 -36 -90 -36v0zM896 1024q-54 0 -92 36q-36 38 -36 92 q0 52 36 90q38 38 92 38q52 0 90 -38t38 -90q0 -54 -38 -92q-38 -36 -90 -36v0zM1152 1024q-54 0 -92 36q-36 38 -36 92q0 52 36 90q38 38 92 38q52 0 90 -38t38 -90q0 -54 -38 -92q-38 -36 -90 -36v0zM1408 1024q-54 0 -92 36q-36 38 -36 92q0 52 36 90q38 38 92 38 q52 0 90 -38t38 -90q0 -54 -38 -92q-38 -36 -90 -36v0zM1664 1024q-54 0 -92 36q-36 38 -36 92q0 52 36 90q38 38 92 38q52 0 90 -38t38 -90q0 -54 -38 -92q-38 -36 -90 -36v0zM128 1280q-54 0 -92 36q-36 38 -36 92q0 52 36 90q38 38 92 38q52 0 90 -38t38 -90 q0 -54 -38 -92q-38 -36 -90 -36v0zM384 1280q-54 0 -92 36q-36 38 -36 92q0 52 36 90q38 38 92 38q52 0 90 -38t38 -90q0 -54 -38 -92q-38 -36 -90 -36v0zM640 1280q-54 0 -92 36q-36 38 -36 92q0 52 36 90q38 38 92 38q52 0 90 -38t38 -90q0 -54 -38 -92q-38 -36 -90 -36v0 zM1152 1280q-54 0 -92 36q-36 38 -36 92q0 52 36 90q38 38 92 38q52 0 90 -38t38 -90q0 -54 -38 -92q-38 -36 -90 -36v0zM1408 1280q-54 0 -92 36q-36 38 -36 92q0 52 36 90q38 38 92 38q52 0 90 -38t38 -90q0 -54 -38 -92q-38 -36 -90 -36v0zM1664 1280q-54 0 -92 36 q-36 38 -36 92q0 52 36 90q38 38 92 38q52 0 90 -38t38 -90q0 -54 -38 -92q-38 -36 -90 -36v0zM128 1536q-54 0 -92 36q-36 38 -36 92q0 52 36 90q38 38 92 38q52 0 90 -38t38 -90q0 -54 -38 -92q-38 -36 -90 -36v0zM384 1536q-54 0 -92 36q-36 38 -36 92q0 52 36 90 q38 38 92 38q52 0 90 -38t38 -90q0 -54 -38 -92q-38 -36 -90 -36v0zM1408 1536q-54 0 -92 36q-36 38 -36 92q0 52 36 90q38 38 92 38q52 0 90 -38t38 -90q0 -54 -38 -92q-38 -36 -90 -36v0zM1664 1536q-54 0 -92 36q-36 38 -36 92q0 52 36 90q38 38 92 38q52 0 90 -38 t38 -90q0 -54 -38 -92q-38 -36 -90 -36v0z" />
<glyph unicode="N" d="M128 0q-54 0 -92 36q-36 38 -36 92q0 52 36 90q38 38 92 38q52 0 90 -38t38 -90q0 -54 -38 -92q-38 -36 -90 -36v0zM384 0q-54 0 -92 36q-36 38 -36 92q0 52 36 90q38 38 92 38q52 0 90 -38t38 -90q0 -54 -38 -92q-38 -36 -90 -36v0zM1152 0q-54 0 -92 36q-36 38 -36 92 q0 52 36 90q38 38 92 38q52 0 90 -38t38 -90q0 -54 -38 -92q-38 -36 -90 -36v0zM1408 0q-54 0 -92 36q-36 38 -36 92q0 52 36 90q38 38 92 38q52 0 90 -38t38 -90q0 -54 -38 -92q-38 -36 -90 -36v0zM128 256q-54 0 -92 36q-36 38 -36 92q0 52 36 90q38 38 92 38q52 0 90 -38 t38 -90q0 -54 -38 -92q-38 -36 -90 -36v0zM384 256q-54 0 -92 36q-36 38 -36 92q0 52 36 90q38 38 92 38q52 0 90 -38t38 -90q0 -54 -38 -92q-38 -36 -90 -36v0zM1152 256q-54 0 -92 36q-36 38 -36 92q0 52 36 90q38 38 92 38q52 0 90 -38t38 -90q0 -54 -38 -92 q-38 -36 -90 -36v0zM1408 256q-54 0 -92 36q-36 38 -36 92q0 52 36 90q38 38 92 38q52 0 90 -38t38 -90q0 -54 -38 -92q-38 -36 -90 -36v0zM128 512q-54 0 -92 36q-36 38 -36 92q0 52 36 90q38 38 92 38q52 0 90 -38t38 -90q0 -54 -38 -92q-38 -36 -90 -36v0zM384 512 q-54 0 -92 36q-36 38 -36 92q0 52 36 90q38 38 92 38q52 0 90 -38t38 -90q0 -54 -38 -92q-38 -36 -90 -36v0zM1152 512q-54 0 -92 36q-36 38 -36 92q0 52 36 90q38 38 92 38q52 0 90 -38t38 -90q0 -54 -38 -92q-38 -36 -90 -36v0zM1408 512q-54 0 -92 36q-36 38 -36 92 q0 52 36 90q38 38 92 38q52 0 90 -38t38 -90q0 -54 -38 -92q-38 -36 -90 -36v0zM128 768q-54 0 -92 36q-36 38 -36 92q0 52 36 90q38 38 92 38q52 0 90 -38t38 -90q0 -54 -38 -92q-38 -36 -90 -36v0zM384 768q-54 0 -92 36q-36 38 -36 92q0 52 36 90q38 38 92 38 q52 0 90 -38t38 -90q0 -54 -38 -92q-38 -36 -90 -36v0zM896 768q-54 0 -92 36q-36 38 -36 92q0 52 36 90q38 38 92 38q52 0 90 -38t38 -90q0 -54 -38 -92q-38 -36 -90 -36v0zM1152 768q-54 0 -92 36q-36 38 -36 92q0 52 36 90q38 38 92 38q52 0 90 -38t38 -90q0 -54 -38 -92 q-38 -36 -90 -36v0zM1408 768q-54 0 -92 36q-36 38 -36 92q0 52 36 90q38 38 92 38q52 0 90 -38t38 -90q0 -54 -38 -92q-38 -36 -90 -36v0zM128 1024q-54 0 -92 36q-36 38 -36 92q0 52 36 90q38 38 92 38q52 0 90 -38t38 -90q0 -54 -38 -92q-38 -36 -90 -36v0zM384 1024 q-54 0 -92 36q-36 38 -36 92q0 52 36 90q38 38 92 38q52 0 90 -38t38 -90q0 -54 -38 -92q-38 -36 -90 -36v0zM640 1024q-54 0 -92 36q-36 38 -36 92q0 52 36 90q38 38 92 38q52 0 90 -38t38 -90q0 -54 -38 -92q-38 -36 -90 -36v0zM896 1024q-54 0 -92 36q-36 38 -36 92 q0 52 36 90q38 38 92 38q52 0 90 -38t38 -90q0 -54 -38 -92q-38 -36 -90 -36v0zM1152 1024q-54 0 -92 36q-36 38 -36 92q0 52 36 90q38 38 92 38q52 0 90 -38t38 -90q0 -54 -38 -92q-38 -36 -90 -36v0zM1408 1024q-54 0 -92 36q-36 38 -36 92q0 52 36 90q38 38 92 38 q52 0 90 -38t38 -90q0 -54 -38 -92q-38 -36 -90 -36v0zM128 1280q-54 0 -92 36q-36 38 -36 92q0 52 36 90q38 38 92 38q52 0 90 -38t38 -90q0 -54 -38 -92q-38 -36 -90 -36v0zM384 1280q-54 0 -92 36q-36 38 -36 92q0 52 36 90q38 38 92 38q52 0 90 -38t38 -90 q0 -54 -38 -92q-38 -36 -90 -36v0zM640 1280q-54 0 -92 36q-36 38 -36 92q0 52 36 90q38 38 92 38q52 0 90 -38t38 -90q0 -54 -38 -92q-38 -36 -90 -36v0zM1152 1280q-54 0 -92 36q-36 38 -36 92q0 52 36 90q38 38 92 38q52 0 90 -38t38 -90q0 -54 -38 -92q-38 -36 -90 -36 v0zM1408 1280q-54 0 -92 36q-36 38 -36 92q0 52 36 90q38 38 92 38q52 0 90 -38t38 -90q0 -54 -38 -92q-38 -36 -90 -36v0zM128 1536q-54 0 -92 36q-36 38 -36 92q0 52 36 90q38 38 92 38q52 0 90 -38t38 -90q0 -54 -38 -92q-38 -36 -90 -36v0zM384 1536q-54 0 -92 36 q-36 38 -36 92q0 52 36 90q38 38 92 38q52 0 90 -38t38 -90q0 -54 -38 -92q-38 -36 -90 -36v0zM1152 1536q-54 0 -92 36q-36 38 -36 92q0 52 36 90q38 38 92 38q52 0 90 -38t38 -90q0 -54 -38 -92q-38 -36 -90 -36v0zM1408 1536q-54 0 -92 36q-36 38 -36 92q0 52 36 90 q38 38 92 38q52 0 90 -38t38 -90q0 -54 -38 -92q-38 -36 -90 -36v0z" />
<glyph unicode="O" d="M384 0q-54 0 -92 36q-36 38 -36 92q0 52 36 90q38 38 92 38q52 0 90 -38t38 -90q0 -54 -38 -92q-38 -36 -90 -36v0zM640 0q-54 0 -92 36q-36 38 -36 92q0 52 36 90q38 38 92 38q52 0 90 -38t38 -90q0 -54 -38 -92q-38 -36 -90 -36v0zM896 0q-54 0 -92 36q-36 38 -36 92 q0 52 36 90q38 38 92 38q52 0 90 -38t38 -90q0 -54 -38 -92q-38 -36 -90 -36v0zM1152 0q-54 0 -92 36q-36 38 -36 92q0 52 36 90q38 38 92 38q52 0 90 -38t38 -90q0 -54 -38 -92q-38 -36 -90 -36v0zM128 256q-54 0 -92 36q-36 38 -36 92q0 52 36 90q38 38 92 38q52 0 90 -38 t38 -90q0 -54 -38 -92q-38 -36 -90 -36v0zM384 256q-54 0 -92 36q-36 38 -36 92q0 52 36 90q38 38 92 38q52 0 90 -38t38 -90q0 -54 -38 -92q-38 -36 -90 -36v0zM1152 256q-54 0 -92 36q-36 38 -36 92q0 52 36 90q38 38 92 38q52 0 90 -38t38 -90q0 -54 -38 -92 q-38 -36 -90 -36v0zM1408 256q-54 0 -92 36q-36 38 -36 92q0 52 36 90q38 38 92 38q52 0 90 -38t38 -90q0 -54 -38 -92q-38 -36 -90 -36v0zM128 512q-54 0 -92 36q-36 38 -36 92q0 52 36 90q38 38 92 38q52 0 90 -38t38 -90q0 -54 -38 -92q-38 -36 -90 -36v0zM384 512 q-54 0 -92 36q-36 38 -36 92q0 52 36 90q38 38 92 38q52 0 90 -38t38 -90q0 -54 -38 -92q-38 -36 -90 -36v0zM1152 512q-54 0 -92 36q-36 38 -36 92q0 52 36 90q38 38 92 38q52 0 90 -38t38 -90q0 -54 -38 -92q-38 -36 -90 -36v0zM1408 512q-54 0 -92 36q-36 38 -36 92 q0 52 36 90q38 38 92 38q52 0 90 -38t38 -90q0 -54 -38 -92q-38 -36 -90 -36v0zM128 768q-54 0 -92 36q-36 38 -36 92q0 52 36 90q38 38 92 38q52 0 90 -38t38 -90q0 -54 -38 -92q-38 -36 -90 -36v0zM384 768q-54 0 -92 36q-36 38 -36 92q0 52 36 90q38 38 92 38 q52 0 90 -38t38 -90q0 -54 -38 -92q-38 -36 -90 -36v0zM1152 768q-54 0 -92 36q-36 38 -36 92q0 52 36 90q38 38 92 38q52 0 90 -38t38 -90q0 -54 -38 -92q-38 -36 -90 -36v0zM1408 768q-54 0 -92 36q-36 38 -36 92q0 52 36 90q38 38 92 38q52 0 90 -38t38 -90 q0 -54 -38 -92q-38 -36 -90 -36v0zM128 1024q-54 0 -92 36q-36 38 -36 92q0 52 36 90q38 38 92 38q52 0 90 -38t38 -90q0 -54 -38 -92q-38 -36 -90 -36v0zM384 1024q-54 0 -92 36q-36 38 -36 92q0 52 36 90q38 38 92 38q52 0 90 -38t38 -90q0 -54 -38 -92q-38 -36 -90 -36v0 zM1152 1024q-54 0 -92 36q-36 38 -36 92q0 52 36 90q38 38 92 38q52 0 90 -38t38 -90q0 -54 -38 -92q-38 -36 -90 -36v0zM1408 1024q-54 0 -92 36q-36 38 -36 92q0 52 36 90q38 38 92 38q52 0 90 -38t38 -90q0 -54 -38 -92q-38 -36 -90 -36v0zM128 1280q-54 0 -92 36 q-36 38 -36 92q0 52 36 90q38 38 92 38q52 0 90 -38t38 -90q0 -54 -38 -92q-38 -36 -90 -36v0zM384 1280q-54 0 -92 36q-36 38 -36 92q0 52 36 90q38 38 92 38q52 0 90 -38t38 -90q0 -54 -38 -92q-38 -36 -90 -36v0zM1152 1280q-54 0 -92 36q-36 38 -36 92q0 52 36 90 q38 38 92 38q52 0 90 -38t38 -90q0 -54 -38 -92q-38 -36 -90 -36v0zM1408 1280q-54 0 -92 36q-36 38 -36 92q0 52 36 90q38 38 92 38q52 0 90 -38t38 -90q0 -54 -38 -92q-38 -36 -90 -36v0zM384 1536q-54 0 -92 36q-36 38 -36 92q0 52 36 90q38 38 92 38q52 0 90 -38t38 -90 q0 -54 -38 -92q-38 -36 -90 -36v0zM640 1536q-54 0 -92 36q-36 38 -36 92q0 52 36 90q38 38 92 38q52 0 90 -38t38 -90q0 -54 -38 -92q-38 -36 -90 -36v0zM896 1536q-54 0 -92 36q-36 38 -36 92q0 52 36 90q38 38 92 38q52 0 90 -38t38 -90q0 -54 -38 -92q-38 -36 -90 -36v0 zM1152 1536q-54 0 -92 36q-36 38 -36 92q0 52 36 90q38 38 92 38q52 0 90 -38t38 -90q0 -54 -38 -92q-38 -36 -90 -36v0z" />
<glyph unicode="P" d="M128 0q-54 0 -92 36q-36 38 -36 92q0 52 36 90q38 38 92 38q52 0 90 -38t38 -90q0 -54 -38 -92q-38 -36 -90 -36v0zM384 0q-54 0 -92 36q-36 38 -36 92q0 52 36 90q38 38 92 38q52 0 90 -38t38 -90q0 -54 -38 -92q-38 -36 -90 -36v0zM128 256q-54 0 -92 36q-36 38 -36 92 q0 52 36 90q38 38 92 38q52 0 90 -38t38 -90q0 -54 -38 -92q-38 -36 -90 -36v0zM384 256q-54 0 -92 36q-36 38 -36 92q0 52 36 90q38 38 92 38q52 0 90 -38t38 -90q0 -54 -38 -92q-38 -36 -90 -36v0zM128 512q-54 0 -92 36q-36 38 -36 92q0 52 36 90q38 38 92 38 q52 0 90 -38t38 -90q0 -54 -38 -92q-38 -36 -90 -36v0zM384 512q-54 0 -92 36q-36 38 -36 92q0 52 36 90q38 38 92 38q52 0 90 -38t38 -90q0 -54 -38 -92q-38 -36 -90 -36v0zM128 768q-54 0 -92 36q-36 38 -36 92q0 52 36 90q38 38 92 38q52 0 90 -38t38 -90q0 -54 -38 -92 q-38 -36 -90 -36v0zM384 768q-54 0 -92 36q-36 38 -36 92q0 52 36 90q38 38 92 38q52 0 90 -38t38 -90q0 -54 -38 -92q-38 -36 -90 -36v0zM640 768q-54 0 -92 36q-36 38 -36 92q0 52 36 90q38 38 92 38q52 0 90 -38t38 -90q0 -54 -38 -92q-38 -36 -90 -36v0zM896 768 q-54 0 -92 36q-36 38 -36 92q0 52 36 90q38 38 92 38q52 0 90 -38t38 -90q0 -54 -38 -92q-38 -36 -90 -36v0zM1152 768q-54 0 -92 36q-36 38 -36 92q0 52 36 90q38 38 92 38q52 0 90 -38t38 -90q0 -54 -38 -92q-38 -36 -90 -36v0zM128 1024q-54 0 -92 36q-36 38 -36 92 q0 52 36 90q38 38 92 38q52 0 90 -38t38 -90q0 -54 -38 -92q-38 -36 -90 -36v0zM384 1024q-54 0 -92 36q-36 38 -36 92q0 52 36 90q38 38 92 38q52 0 90 -38t38 -90q0 -54 -38 -92q-38 -36 -90 -36v0zM1152 1024q-54 0 -92 36q-36 38 -36 92q0 52 36 90q38 38 92 38 q52 0 90 -38t38 -90q0 -54 -38 -92q-38 -36 -90 -36v0zM1408 1024q-54 0 -92 36q-36 38 -36 92q0 52 36 90q38 38 92 38q52 0 90 -38t38 -90q0 -54 -38 -92q-38 -36 -90 -36v0zM128 1280q-54 0 -92 36q-36 38 -36 92q0 52 36 90q38 38 92 38q52 0 90 -38t38 -90 q0 -54 -38 -92q-38 -36 -90 -36v0zM384 1280q-54 0 -92 36q-36 38 -36 92q0 52 36 90q38 38 92 38q52 0 90 -38t38 -90q0 -54 -38 -92q-38 -36 -90 -36v0zM1152 1280q-54 0 -92 36q-36 38 -36 92q0 52 36 90q38 38 92 38q52 0 90 -38t38 -90q0 -54 -38 -92q-38 -36 -90 -36 v0zM1408 1280q-54 0 -92 36q-36 38 -36 92q0 52 36 90q38 38 92 38q52 0 90 -38t38 -90q0 -54 -38 -92q-38 -36 -90 -36v0zM128 1536q-54 0 -92 36q-36 38 -36 92q0 52 36 90q38 38 92 38q52 0 90 -38t38 -90q0 -54 -38 -92q-38 -36 -90 -36v0zM384 1536q-54 0 -92 36 q-36 38 -36 92q0 52 36 90q38 38 92 38q52 0 90 -38t38 -90q0 -54 -38 -92q-38 -36 -90 -36v0zM640 1536q-54 0 -92 36q-36 38 -36 92q0 52 36 90q38 38 92 38q52 0 90 -38t38 -90q0 -54 -38 -92q-38 -36 -90 -36v0zM896 1536q-54 0 -92 36q-36 38 -36 92q0 52 36 90 q38 38 92 38q52 0 90 -38t38 -90q0 -54 -38 -92q-38 -36 -90 -36v0zM1152 1536q-54 0 -92 36q-36 38 -36 92q0 52 36 90q38 38 92 38q52 0 90 -38t38 -90q0 -54 -38 -92q-38 -36 -90 -36v0z" />
<glyph unicode="Q" d="M384 0q-54 0 -92 36q-36 38 -36 92q0 52 36 90q38 38 92 38q52 0 90 -38t38 -90q0 -54 -38 -92q-38 -36 -90 -36v0zM640 0q-54 0 -92 36q-36 38 -36 92q0 52 36 90q38 38 92 38q52 0 90 -38t38 -90q0 -54 -38 -92q-38 -36 -90 -36v0zM1152 0q-54 0 -92 36q-36 38 -36 92 q0 52 36 90q38 38 92 38q52 0 90 -38t38 -90q0 -54 -38 -92q-38 -36 -90 -36v0zM1408 0q-54 0 -92 36q-36 38 -36 92q0 52 36 90q38 38 92 38q52 0 90 -38t38 -90q0 -54 -38 -92q-38 -36 -90 -36v0zM128 256q-54 0 -92 36q-36 38 -36 92q0 52 36 90q38 38 92 38q52 0 90 -38 t38 -90q0 -54 -38 -92q-38 -36 -90 -36v0zM384 256q-54 0 -92 36q-36 38 -36 92q0 52 36 90q38 38 92 38q52 0 90 -38t38 -90q0 -54 -38 -92q-38 -36 -90 -36v0zM896 256q-54 0 -92 36q-36 38 -36 92q0 52 36 90q38 38 92 38q52 0 90 -38t38 -90q0 -54 -38 -92 q-38 -36 -90 -36v0zM1152 256q-54 0 -92 36q-36 38 -36 92q0 52 36 90q38 38 92 38q52 0 90 -38t38 -90q0 -54 -38 -92q-38 -36 -90 -36v0zM128 512q-54 0 -92 36q-36 38 -36 92q0 52 36 90q38 38 92 38q52 0 90 -38t38 -90q0 -54 -38 -92q-38 -36 -90 -36v0zM384 512 q-54 0 -92 36q-36 38 -36 92q0 52 36 90q38 38 92 38q52 0 90 -38t38 -90q0 -54 -38 -92q-38 -36 -90 -36v0zM1152 512q-54 0 -92 36q-36 38 -36 92q0 52 36 90q38 38 92 38q52 0 90 -38t38 -90q0 -54 -38 -92q-38 -36 -90 -36v0zM1408 512q-54 0 -92 36q-36 38 -36 92 q0 52 36 90q38 38 92 38q52 0 90 -38t38 -90q0 -54 -38 -92q-38 -36 -90 -36v0zM128 768q-54 0 -92 36q-36 38 -36 92q0 52 36 90q38 38 92 38q52 0 90 -38t38 -90q0 -54 -38 -92q-38 -36 -90 -36v0zM384 768q-54 0 -92 36q-36 38 -36 92q0 52 36 90q38 38 92 38 q52 0 90 -38t38 -90q0 -54 -38 -92q-38 -36 -90 -36v0zM1152 768q-54 0 -92 36q-36 38 -36 92q0 52 36 90q38 38 92 38q52 0 90 -38t38 -90q0 -54 -38 -92q-38 -36 -90 -36v0zM1408 768q-54 0 -92 36q-36 38 -36 92q0 52 36 90q38 38 92 38q52 0 90 -38t38 -90 q0 -54 -38 -92q-38 -36 -90 -36v0zM128 1024q-54 0 -92 36q-36 38 -36 92q0 52 36 90q38 38 92 38q52 0 90 -38t38 -90q0 -54 -38 -92q-38 -36 -90 -36v0zM384 1024q-54 0 -92 36q-36 38 -36 92q0 52 36 90q38 38 92 38q52 0 90 -38t38 -90q0 -54 -38 -92q-38 -36 -90 -36v0 zM1152 1024q-54 0 -92 36q-36 38 -36 92q0 52 36 90q38 38 92 38q52 0 90 -38t38 -90q0 -54 -38 -92q-38 -36 -90 -36v0zM1408 1024q-54 0 -92 36q-36 38 -36 92q0 52 36 90q38 38 92 38q52 0 90 -38t38 -90q0 -54 -38 -92q-38 -36 -90 -36v0zM128 1280q-54 0 -92 36 q-36 38 -36 92q0 52 36 90q38 38 92 38q52 0 90 -38t38 -90q0 -54 -38 -92q-38 -36 -90 -36v0zM384 1280q-54 0 -92 36q-36 38 -36 92q0 52 36 90q38 38 92 38q52 0 90 -38t38 -90q0 -54 -38 -92q-38 -36 -90 -36v0zM1152 1280q-54 0 -92 36q-36 38 -36 92q0 52 36 90 q38 38 92 38q52 0 90 -38t38 -90q0 -54 -38 -92q-38 -36 -90 -36v0zM1408 1280q-54 0 -92 36q-36 38 -36 92q0 52 36 90q38 38 92 38q52 0 90 -38t38 -90q0 -54 -38 -92q-38 -36 -90 -36v0zM384 1536q-54 0 -92 36q-36 38 -36 92q0 52 36 90q38 38 92 38q52 0 90 -38t38 -90 q0 -54 -38 -92q-38 -36 -90 -36v0zM640 1536q-54 0 -92 36q-36 38 -36 92q0 52 36 90q38 38 92 38q52 0 90 -38t38 -90q0 -54 -38 -92q-38 -36 -90 -36v0zM896 1536q-54 0 -92 36q-36 38 -36 92q0 52 36 90q38 38 92 38q52 0 90 -38t38 -90q0 -54 -38 -92q-38 -36 -90 -36v0 zM1152 1536q-54 0 -92 36q-36 38 -36 92q0 52 36 90q38 38 92 38q52 0 90 -38t38 -90q0 -54 -38 -92q-38 -36 -90 -36v0z" />
<glyph unicode="R" d="M128 0q-54 0 -92 36q-36 38 -36 92q0 52 36 90q38 38 92 38q52 0 90 -38t38 -90q0 -54 -38 -92q-38 -36 -90 -36v0zM384 0q-54 0 -92 36q-36 38 -36 92q0 52 36 90q38 38 92 38q52 0 90 -38t38 -90q0 -54 -38 -92q-38 -36 -90 -36v0zM1152 0q-54 0 -92 36q-36 38 -36 92 q0 52 36 90q38 38 92 38q52 0 90 -38t38 -90q0 -54 -38 -92q-38 -36 -90 -36v0zM1408 0q-54 0 -92 36q-36 38 -36 92q0 52 36 90q38 38 92 38q52 0 90 -38t38 -90q0 -54 -38 -92q-38 -36 -90 -36v0zM128 256q-54 0 -92 36q-36 38 -36 92q0 52 36 90q38 38 92 38q52 0 90 -38 t38 -90q0 -54 -38 -92q-38 -36 -90 -36v0zM384 256q-54 0 -92 36q-36 38 -36 92q0 52 36 90q38 38 92 38q52 0 90 -38t38 -90q0 -54 -38 -92q-38 -36 -90 -36v0zM896 256q-54 0 -92 36q-36 38 -36 92q0 52 36 90q38 38 92 38q52 0 90 -38t38 -90q0 -54 -38 -92 q-38 -36 -90 -36v0zM1152 256q-54 0 -92 36q-36 38 -36 92q0 52 36 90q38 38 92 38q52 0 90 -38t38 -90q0 -54 -38 -92q-38 -36 -90 -36v0zM128 512q-54 0 -92 36q-36 38 -36 92q0 52 36 90q38 38 92 38q52 0 90 -38t38 -90q0 -54 -38 -92q-38 -36 -90 -36v0zM384 512 q-54 0 -92 36q-36 38 -36 92q0 52 36 90q38 38 92 38q52 0 90 -38t38 -90q0 -54 -38 -92q-38 -36 -90 -36v0zM640 512q-54 0 -92 36q-36 38 -36 92q0 52 36 90q38 38 92 38q52 0 90 -38t38 -90q0 -54 -38 -92q-38 -36 -90 -36v0zM896 512q-54 0 -92 36q-36 38 -36 92 q0 52 36 90q38 38 92 38q52 0 90 -38t38 -90q0 -54 -38 -92q-38 -36 -90 -36v0zM128 768q-54 0 -92 36q-36 38 -36 92q0 52 36 90q38 38 92 38q52 0 90 -38t38 -90q0 -54 -38 -92q-38 -36 -90 -36v0zM384 768q-54 0 -92 36q-36 38 -36 92q0 52 36 90q38 38 92 38 q52 0 90 -38t38 -90q0 -54 -38 -92q-38 -36 -90 -36v0zM640 768q-54 0 -92 36q-36 38 -36 92q0 52 36 90q38 38 92 38q52 0 90 -38t38 -90q0 -54 -38 -92q-38 -36 -90 -36v0zM896 768q-54 0 -92 36q-36 38 -36 92q0 52 36 90q38 38 92 38q52 0 90 -38t38 -90q0 -54 -38 -92 q-38 -36 -90 -36v0zM1152 768q-54 0 -92 36q-36 38 -36 92q0 52 36 90q38 38 92 38q52 0 90 -38t38 -90q0 -54 -38 -92q-38 -36 -90 -36v0zM128 1024q-54 0 -92 36q-36 38 -36 92q0 52 36 90q38 38 92 38q52 0 90 -38t38 -90q0 -54 -38 -92q-38 -36 -90 -36v0zM384 1024 q-54 0 -92 36q-36 38 -36 92q0 52 36 90q38 38 92 38q52 0 90 -38t38 -90q0 -54 -38 -92q-38 -36 -90 -36v0zM1152 1024q-54 0 -92 36q-36 38 -36 92q0 52 36 90q38 38 92 38q52 0 90 -38t38 -90q0 -54 -38 -92q-38 -36 -90 -36v0zM1408 1024q-54 0 -92 36q-36 38 -36 92 q0 52 36 90q38 38 92 38q52 0 90 -38t38 -90q0 -54 -38 -92q-38 -36 -90 -36v0zM128 1280q-54 0 -92 36q-36 38 -36 92q0 52 36 90q38 38 92 38q52 0 90 -38t38 -90q0 -54 -38 -92q-38 -36 -90 -36v0zM384 1280q-54 0 -92 36q-36 38 -36 92q0 52 36 90q38 38 92 38 q52 0 90 -38t38 -90q0 -54 -38 -92q-38 -36 -90 -36v0zM1152 1280q-54 0 -92 36q-36 38 -36 92q0 52 36 90q38 38 92 38q52 0 90 -38t38 -90q0 -54 -38 -92q-38 -36 -90 -36v0zM1408 1280q-54 0 -92 36q-36 38 -36 92q0 52 36 90q38 38 92 38q52 0 90 -38t38 -90 q0 -54 -38 -92q-38 -36 -90 -36v0zM128 1536q-54 0 -92 36q-36 38 -36 92q0 52 36 90q38 38 92 38q52 0 90 -38t38 -90q0 -54 -38 -92q-38 -36 -90 -36v0zM384 1536q-54 0 -92 36q-36 38 -36 92q0 52 36 90q38 38 92 38q52 0 90 -38t38 -90q0 -54 -38 -92q-38 -36 -90 -36v0 zM640 1536q-54 0 -92 36q-36 38 -36 92q0 52 36 90q38 38 92 38q52 0 90 -38t38 -90q0 -54 -38 -92q-38 -36 -90 -36v0zM896 1536q-54 0 -92 36q-36 38 -36 92q0 52 36 90q38 38 92 38q52 0 90 -38t38 -90q0 -54 -38 -92q-38 -36 -90 -36v0zM1152 1536q-54 0 -92 36 q-36 38 -36 92q0 52 36 90q38 38 92 38q52 0 90 -38t38 -90q0 -54 -38 -92q-38 -36 -90 -36v0z" />
<glyph unicode="S" d="M384 0q-54 0 -92 36q-36 38 -36 92q0 52 36 90q38 38 92 38q52 0 90 -38t38 -90q0 -54 -38 -92q-38 -36 -90 -36v0zM640 0q-54 0 -92 36q-36 38 -36 92q0 52 36 90q38 38 92 38q52 0 90 -38t38 -90q0 -54 -38 -92q-38 -36 -90 -36v0zM896 0q-54 0 -92 36q-36 38 -36 92 q0 52 36 90q38 38 92 38q52 0 90 -38t38 -90q0 -54 -38 -92q-38 -36 -90 -36v0zM1152 0q-54 0 -92 36q-36 38 -36 92q0 52 36 90q38 38 92 38q52 0 90 -38t38 -90q0 -54 -38 -92q-38 -36 -90 -36v0zM128 256q-54 0 -92 36q-36 38 -36 92q0 52 36 90q38 38 92 38q52 0 90 -38 t38 -90q0 -54 -38 -92q-38 -36 -90 -36v0zM384 256q-54 0 -92 36q-36 38 -36 92q0 52 36 90q38 38 92 38q52 0 90 -38t38 -90q0 -54 -38 -92q-38 -36 -90 -36v0zM1152 256q-54 0 -92 36q-36 38 -36 92q0 52 36 90q38 38 92 38q52 0 90 -38t38 -90q0 -54 -38 -92 q-38 -36 -90 -36v0zM1408 256q-54 0 -92 36q-36 38 -36 92q0 52 36 90q38 38 92 38q52 0 90 -38t38 -90q0 -54 -38 -92q-38 -36 -90 -36v0zM1152 512q-54 0 -92 36q-36 38 -36 92q0 52 36 90q38 38 92 38q52 0 90 -38t38 -90q0 -54 -38 -92q-38 -36 -90 -36v0zM1408 512 q-54 0 -92 36q-36 38 -36 92q0 52 36 90q38 38 92 38q52 0 90 -38t38 -90q0 -54 -38 -92q-38 -36 -90 -36v0zM384 768q-54 0 -92 36q-36 38 -36 92q0 52 36 90q38 38 92 38q52 0 90 -38t38 -90q0 -54 -38 -92q-38 -36 -90 -36v0zM640 768q-54 0 -92 36q-36 38 -36 92 q0 52 36 90q38 38 92 38q52 0 90 -38t38 -90q0 -54 -38 -92q-38 -36 -90 -36v0zM896 768q-54 0 -92 36q-36 38 -36 92q0 52 36 90q38 38 92 38q52 0 90 -38t38 -90q0 -54 -38 -92q-38 -36 -90 -36v0zM1152 768q-54 0 -92 36q-36 38 -36 92q0 52 36 90q38 38 92 38 q52 0 90 -38t38 -90q0 -54 -38 -92q-38 -36 -90 -36v0zM128 1024q-54 0 -92 36q-36 38 -36 92q0 52 36 90q38 38 92 38q52 0 90 -38t38 -90q0 -54 -38 -92q-38 -36 -90 -36v0zM384 1024q-54 0 -92 36q-36 38 -36 92q0 52 36 90q38 38 92 38q52 0 90 -38t38 -90 q0 -54 -38 -92q-38 -36 -90 -36v0zM128 1280q-54 0 -92 36q-36 38 -36 92q0 52 36 90q38 38 92 38q52 0 90 -38t38 -90q0 -54 -38 -92q-38 -36 -90 -36v0zM384 1280q-54 0 -92 36q-36 38 -36 92q0 52 36 90q38 38 92 38q52 0 90 -38t38 -90q0 -54 -38 -92q-38 -36 -90 -36v0 zM1152 1280q-54 0 -92 36q-36 38 -36 92q0 52 36 90q38 38 92 38q52 0 90 -38t38 -90q0 -54 -38 -92q-38 -36 -90 -36v0zM1408 1280q-54 0 -92 36q-36 38 -36 92q0 52 36 90q38 38 92 38q52 0 90 -38t38 -90q0 -54 -38 -92q-38 -36 -90 -36v0zM384 1536q-54 0 -92 36 q-36 38 -36 92q0 52 36 90q38 38 92 38q52 0 90 -38t38 -90q0 -54 -38 -92q-38 -36 -90 -36v0zM640 1536q-54 0 -92 36q-36 38 -36 92q0 52 36 90q38 38 92 38q52 0 90 -38t38 -90q0 -54 -38 -92q-38 -36 -90 -36v0zM896 1536q-54 0 -92 36q-36 38 -36 92q0 52 36 90 q38 38 92 38q52 0 90 -38t38 -90q0 -54 -38 -92q-38 -36 -90 -36v0zM1152 1536q-54 0 -92 36q-36 38 -36 92q0 52 36 90q38 38 92 38q52 0 90 -38t38 -90q0 -54 -38 -92q-38 -36 -90 -36v0z" />
<glyph unicode="T" d="M640 0q-54 0 -92 36q-36 38 -36 92q0 52 36 90q38 38 92 38q52 0 90 -38t38 -90q0 -54 -38 -92q-38 -36 -90 -36v0zM896 0q-54 0 -92 36q-36 38 -36 92q0 52 36 90q38 38 92 38q52 0 90 -38t38 -90q0 -54 -38 -92q-38 -36 -90 -36v0zM640 256q-54 0 -92 36q-36 38 -36 92 q0 52 36 90q38 38 92 38q52 0 90 -38t38 -90q0 -54 -38 -92q-38 -36 -90 -36v0zM896 256q-54 0 -92 36q-36 38 -36 92q0 52 36 90q38 38 92 38q52 0 90 -38t38 -90q0 -54 -38 -92q-38 -36 -90 -36v0zM640 512q-54 0 -92 36q-36 38 -36 92q0 52 36 90q38 38 92 38 q52 0 90 -38t38 -90q0 -54 -38 -92q-38 -36 -90 -36v0zM896 512q-54 0 -92 36q-36 38 -36 92q0 52 36 90q38 38 92 38q52 0 90 -38t38 -90q0 -54 -38 -92q-38 -36 -90 -36v0zM640 768q-54 0 -92 36q-36 38 -36 92q0 52 36 90q38 38 92 38q52 0 90 -38t38 -90q0 -54 -38 -92 q-38 -36 -90 -36v0zM896 768q-54 0 -92 36q-36 38 -36 92q0 52 36 90q38 38 92 38q52 0 90 -38t38 -90q0 -54 -38 -92q-38 -36 -90 -36v0zM640 1024q-54 0 -92 36q-36 38 -36 92q0 52 36 90q38 38 92 38q52 0 90 -38t38 -90q0 -54 -38 -92q-38 -36 -90 -36v0zM896 1024 q-54 0 -92 36q-36 38 -36 92q0 52 36 90q38 38 92 38q52 0 90 -38t38 -90q0 -54 -38 -92q-38 -36 -90 -36v0zM640 1280q-54 0 -92 36q-36 38 -36 92q0 52 36 90q38 38 92 38q52 0 90 -38t38 -90q0 -54 -38 -92q-38 -36 -90 -36v0zM896 1280q-54 0 -92 36q-36 38 -36 92 q0 52 36 90q38 38 92 38q52 0 90 -38t38 -90q0 -54 -38 -92q-38 -36 -90 -36v0zM128 1536q-54 0 -92 36q-36 38 -36 92q0 52 36 90q38 38 92 38q52 0 90 -38t38 -90q0 -54 -38 -92q-38 -36 -90 -36v0zM384 1536q-54 0 -92 36q-36 38 -36 92q0 52 36 90q38 38 92 38 q52 0 90 -38t38 -90q0 -54 -38 -92q-38 -36 -90 -36v0zM640 1536q-54 0 -92 36q-36 38 -36 92q0 52 36 90q38 38 92 38q52 0 90 -38t38 -90q0 -54 -38 -92q-38 -36 -90 -36v0zM896 1536q-54 0 -92 36q-36 38 -36 92q0 52 36 90q38 38 92 38q52 0 90 -38t38 -90 q0 -54 -38 -92q-38 -36 -90 -36v0zM1152 1536q-54 0 -92 36q-36 38 -36 92q0 52 36 90q38 38 92 38q52 0 90 -38t38 -90q0 -54 -38 -92q-38 -36 -90 -36v0zM1408 1536q-54 0 -92 36q-36 38 -36 92q0 52 36 90q38 38 92 38q52 0 90 -38t38 -90q0 -54 -38 -92q-38 -36 -90 -36 v0z" />
<glyph unicode="U" d="M384 0q-54 0 -92 36q-36 38 -36 92q0 52 36 90q38 38 92 38q52 0 90 -38t38 -90q0 -54 -38 -92q-38 -36 -90 -36v0zM640 0q-54 0 -92 36q-36 38 -36 92q0 52 36 90q38 38 92 38q52 0 90 -38t38 -90q0 -54 -38 -92q-38 -36 -90 -36v0zM896 0q-54 0 -92 36q-36 38 -36 92 q0 52 36 90q38 38 92 38q52 0 90 -38t38 -90q0 -54 -38 -92q-38 -36 -90 -36v0zM1152 0q-54 0 -92 36q-36 38 -36 92q0 52 36 90q38 38 92 38q52 0 90 -38t38 -90q0 -54 -38 -92q-38 -36 -90 -36v0zM128 256q-54 0 -92 36q-36 38 -36 92q0 52 36 90q38 38 92 38q52 0 90 -38 t38 -90q0 -54 -38 -92q-38 -36 -90 -36v0zM384 256q-54 0 -92 36q-36 38 -36 92q0 52 36 90q38 38 92 38q52 0 90 -38t38 -90q0 -54 -38 -92q-38 -36 -90 -36v0zM1152 256q-54 0 -92 36q-36 38 -36 92q0 52 36 90q38 38 92 38q52 0 90 -38t38 -90q0 -54 -38 -92 q-38 -36 -90 -36v0zM1408 256q-54 0 -92 36q-36 38 -36 92q0 52 36 90q38 38 92 38q52 0 90 -38t38 -90q0 -54 -38 -92q-38 -36 -90 -36v0zM128 512q-54 0 -92 36q-36 38 -36 92q0 52 36 90q38 38 92 38q52 0 90 -38t38 -90q0 -54 -38 -92q-38 -36 -90 -36v0zM384 512 q-54 0 -92 36q-36 38 -36 92q0 52 36 90q38 38 92 38q52 0 90 -38t38 -90q0 -54 -38 -92q-38 -36 -90 -36v0zM1152 512q-54 0 -92 36q-36 38 -36 92q0 52 36 90q38 38 92 38q52 0 90 -38t38 -90q0 -54 -38 -92q-38 -36 -90 -36v0zM1408 512q-54 0 -92 36q-36 38 -36 92 q0 52 36 90q38 38 92 38q52 0 90 -38t38 -90q0 -54 -38 -92q-38 -36 -90 -36v0zM128 768q-54 0 -92 36q-36 38 -36 92q0 52 36 90q38 38 92 38q52 0 90 -38t38 -90q0 -54 -38 -92q-38 -36 -90 -36v0zM384 768q-54 0 -92 36q-36 38 -36 92q0 52 36 90q38 38 92 38 q52 0 90 -38t38 -90q0 -54 -38 -92q-38 -36 -90 -36v0zM1152 768q-54 0 -92 36q-36 38 -36 92q0 52 36 90q38 38 92 38q52 0 90 -38t38 -90q0 -54 -38 -92q-38 -36 -90 -36v0zM1408 768q-54 0 -92 36q-36 38 -36 92q0 52 36 90q38 38 92 38q52 0 90 -38t38 -90 q0 -54 -38 -92q-38 -36 -90 -36v0zM128 1024q-54 0 -92 36q-36 38 -36 92q0 52 36 90q38 38 92 38q52 0 90 -38t38 -90q0 -54 -38 -92q-38 -36 -90 -36v0zM384 1024q-54 0 -92 36q-36 38 -36 92q0 52 36 90q38 38 92 38q52 0 90 -38t38 -90q0 -54 -38 -92q-38 -36 -90 -36v0 zM1152 1024q-54 0 -92 36q-36 38 -36 92q0 52 36 90q38 38 92 38q52 0 90 -38t38 -90q0 -54 -38 -92q-38 -36 -90 -36v0zM1408 1024q-54 0 -92 36q-36 38 -36 92q0 52 36 90q38 38 92 38q52 0 90 -38t38 -90q0 -54 -38 -92q-38 -36 -90 -36v0zM128 1280q-54 0 -92 36 q-36 38 -36 92q0 52 36 90q38 38 92 38q52 0 90 -38t38 -90q0 -54 -38 -92q-38 -36 -90 -36v0zM384 1280q-54 0 -92 36q-36 38 -36 92q0 52 36 90q38 38 92 38q52 0 90 -38t38 -90q0 -54 -38 -92q-38 -36 -90 -36v0zM1152 1280q-54 0 -92 36q-36 38 -36 92q0 52 36 90 q38 38 92 38q52 0 90 -38t38 -90q0 -54 -38 -92q-38 -36 -90 -36v0zM1408 1280q-54 0 -92 36q-36 38 -36 92q0 52 36 90q38 38 92 38q52 0 90 -38t38 -90q0 -54 -38 -92q-38 -36 -90 -36v0zM128 1536q-54 0 -92 36q-36 38 -36 92q0 52 36 90q38 38 92 38q52 0 90 -38t38 -90 q0 -54 -38 -92q-38 -36 -90 -36v0zM384 1536q-54 0 -92 36q-36 38 -36 92q0 52 36 90q38 38 92 38q52 0 90 -38t38 -90q0 -54 -38 -92q-38 -36 -90 -36v0zM1152 1536q-54 0 -92 36q-36 38 -36 92q0 52 36 90q38 38 92 38q52 0 90 -38t38 -90q0 -54 -38 -92q-38 -36 -90 -36 v0zM1408 1536q-54 0 -92 36q-36 38 -36 92q0 52 36 90q38 38 92 38q52 0 90 -38t38 -90q0 -54 -38 -92q-38 -36 -90 -36v0z" />
<glyph unicode="V" d="M640 0q-54 0 -92 36q-36 38 -36 92q0 52 36 90q38 38 92 38q52 0 90 -38t38 -90q0 -54 -38 -92q-38 -36 -90 -36v0zM896 0q-54 0 -92 36q-36 38 -36 92q0 52 36 90q38 38 92 38q52 0 90 -38t38 -90q0 -54 -38 -92q-38 -36 -90 -36v0zM384 256q-54 0 -92 36q-36 38 -36 92 q0 52 36 90q38 38 92 38q52 0 90 -38t38 -90q0 -54 -38 -92q-38 -36 -90 -36v0zM640 256q-54 0 -92 36q-36 38 -36 92q0 52 36 90q38 38 92 38q52 0 90 -38t38 -90q0 -54 -38 -92q-38 -36 -90 -36v0zM896 256q-54 0 -92 36q-36 38 -36 92q0 52 36 90q38 38 92 38 q52 0 90 -38t38 -90q0 -54 -38 -92q-38 -36 -90 -36v0zM1152 256q-54 0 -92 36q-36 38 -36 92q0 52 36 90q38 38 92 38q52 0 90 -38t38 -90q0 -54 -38 -92q-38 -36 -90 -36v0zM128 512q-54 0 -92 36q-36 38 -36 92q0 52 36 90q38 38 92 38q52 0 90 -38t38 -90q0 -54 -38 -92 q-38 -36 -90 -36v0zM384 512q-54 0 -92 36q-36 38 -36 92q0 52 36 90q38 38 92 38q52 0 90 -38t38 -90q0 -54 -38 -92q-38 -36 -90 -36v0zM1152 512q-54 0 -92 36q-36 38 -36 92q0 52 36 90q38 38 92 38q52 0 90 -38t38 -90q0 -54 -38 -92q-38 -36 -90 -36v0zM1408 512 q-54 0 -92 36q-36 38 -36 92q0 52 36 90q38 38 92 38q52 0 90 -38t38 -90q0 -54 -38 -92q-38 -36 -90 -36v0zM128 768q-54 0 -92 36q-36 38 -36 92q0 52 36 90q38 38 92 38q52 0 90 -38t38 -90q0 -54 -38 -92q-38 -36 -90 -36v0zM384 768q-54 0 -92 36q-36 38 -36 92 q0 52 36 90q38 38 92 38q52 0 90 -38t38 -90q0 -54 -38 -92q-38 -36 -90 -36v0zM1152 768q-54 0 -92 36q-36 38 -36 92q0 52 36 90q38 38 92 38q52 0 90 -38t38 -90q0 -54 -38 -92q-38 -36 -90 -36v0zM1408 768q-54 0 -92 36q-36 38 -36 92q0 52 36 90q38 38 92 38 q52 0 90 -38t38 -90q0 -54 -38 -92q-38 -36 -90 -36v0zM128 1024q-54 0 -92 36q-36 38 -36 92q0 52 36 90q38 38 92 38q52 0 90 -38t38 -90q0 -54 -38 -92q-38 -36 -90 -36v0zM384 1024q-54 0 -92 36q-36 38 -36 92q0 52 36 90q38 38 92 38q52 0 90 -38t38 -90 q0 -54 -38 -92q-38 -36 -90 -36v0zM1152 1024q-54 0 -92 36q-36 38 -36 92q0 52 36 90q38 38 92 38q52 0 90 -38t38 -90q0 -54 -38 -92q-38 -36 -90 -36v0zM1408 1024q-54 0 -92 36q-36 38 -36 92q0 52 36 90q38 38 92 38q52 0 90 -38t38 -90q0 -54 -38 -92q-38 -36 -90 -36 v0zM128 1280q-54 0 -92 36q-36 38 -36 92q0 52 36 90q38 38 92 38q52 0 90 -38t38 -90q0 -54 -38 -92q-38 -36 -90 -36v0zM384 1280q-54 0 -92 36q-36 38 -36 92q0 52 36 90q38 38 92 38q52 0 90 -38t38 -90q0 -54 -38 -92q-38 -36 -90 -36v0zM1152 1280q-54 0 -92 36 q-36 38 -36 92q0 52 36 90q38 38 92 38q52 0 90 -38t38 -90q0 -54 -38 -92q-38 -36 -90 -36v0zM1408 1280q-54 0 -92 36q-36 38 -36 92q0 52 36 90q38 38 92 38q52 0 90 -38t38 -90q0 -54 -38 -92q-38 -36 -90 -36v0zM128 1536q-54 0 -92 36q-36 38 -36 92q0 52 36 90 q38 38 92 38q52 0 90 -38t38 -90q0 -54 -38 -92q-38 -36 -90 -36v0zM384 1536q-54 0 -92 36q-36 38 -36 92q0 52 36 90q38 38 92 38q52 0 90 -38t38 -90q0 -54 -38 -92q-38 -36 -90 -36v0zM1152 1536q-54 0 -92 36q-36 38 -36 92q0 52 36 90q38 38 92 38q52 0 90 -38t38 -90 q0 -54 -38 -92q-38 -36 -90 -36v0zM1408 1536q-54 0 -92 36q-36 38 -36 92q0 52 36 90q38 38 92 38q52 0 90 -38t38 -90q0 -54 -38 -92q-38 -36 -90 -36v0z" />
<glyph unicode="W" horiz-adv-x="2048" d="M384 0q-54 0 -92 36q-36 38 -36 92q0 52 36 90q38 38 92 38q52 0 90 -38t38 -90q0 -54 -38 -92q-38 -36 -90 -36v0zM640 0q-54 0 -92 36q-36 38 -36 92q0 52 36 90q38 38 92 38q52 0 90 -38t38 -90q0 -54 -38 -92q-38 -36 -90 -36v0zM1152 0q-54 0 -92 36q-36 38 -36 92 q0 52 36 90q38 38 92 38q52 0 90 -38t38 -90q0 -54 -38 -92q-38 -36 -90 -36v0zM1408 0q-54 0 -92 36q-36 38 -36 92q0 52 36 90q38 38 92 38q52 0 90 -38t38 -90q0 -54 -38 -92q-38 -36 -90 -36v0zM128 256q-54 0 -92 36q-36 38 -36 92q0 52 36 90q38 38 92 38q52 0 90 -38 t38 -90q0 -54 -38 -92q-38 -36 -90 -36v0zM384 256q-54 0 -92 36q-36 38 -36 92q0 52 36 90q38 38 92 38q52 0 90 -38t38 -90q0 -54 -38 -92q-38 -36 -90 -36v0zM640 256q-54 0 -92 36q-36 38 -36 92q0 52 36 90q38 38 92 38q52 0 90 -38t38 -90q0 -54 -38 -92 q-38 -36 -90 -36v0zM896 256q-54 0 -92 36q-36 38 -36 92q0 52 36 90q38 38 92 38q52 0 90 -38t38 -90q0 -54 -38 -92q-38 -36 -90 -36v0zM1152 256q-54 0 -92 36q-36 38 -36 92q0 52 36 90q38 38 92 38q52 0 90 -38t38 -90q0 -54 -38 -92q-38 -36 -90 -36v0zM1408 256 q-54 0 -92 36q-36 38 -36 92q0 52 36 90q38 38 92 38q52 0 90 -38t38 -90q0 -54 -38 -92q-38 -36 -90 -36v0zM1664 256q-54 0 -92 36q-36 38 -36 92q0 52 36 90q38 38 92 38q52 0 90 -38t38 -90q0 -54 -38 -92q-38 -36 -90 -36v0zM128 512q-54 0 -92 36q-36 38 -36 92 q0 52 36 90q38 38 92 38q52 0 90 -38t38 -90q0 -54 -38 -92q-38 -36 -90 -36v0zM384 512q-54 0 -92 36q-36 38 -36 92q0 52 36 90q38 38 92 38q52 0 90 -38t38 -90q0 -54 -38 -92q-38 -36 -90 -36v0zM896 512q-54 0 -92 36q-36 38 -36 92q0 52 36 90q38 38 92 38 q52 0 90 -38t38 -90q0 -54 -38 -92q-38 -36 -90 -36v0zM1408 512q-54 0 -92 36q-36 38 -36 92q0 52 36 90q38 38 92 38q52 0 90 -38t38 -90q0 -54 -38 -92q-38 -36 -90 -36v0zM1664 512q-54 0 -92 36q-36 38 -36 92q0 52 36 90q38 38 92 38q52 0 90 -38t38 -90 q0 -54 -38 -92q-38 -36 -90 -36v0zM128 768q-54 0 -92 36q-36 38 -36 92q0 52 36 90q38 38 92 38q52 0 90 -38t38 -90q0 -54 -38 -92q-38 -36 -90 -36v0zM384 768q-54 0 -92 36q-36 38 -36 92q0 52 36 90q38 38 92 38q52 0 90 -38t38 -90q0 -54 -38 -92q-38 -36 -90 -36v0z M896 768q-54 0 -92 36q-36 38 -36 92q0 52 36 90q38 38 92 38q52 0 90 -38t38 -90q0 -54 -38 -92q-38 -36 -90 -36v0zM1408 768q-54 0 -92 36q-36 38 -36 92q0 52 36 90q38 38 92 38q52 0 90 -38t38 -90q0 -54 -38 -92q-38 -36 -90 -36v0zM1664 768q-54 0 -92 36 q-36 38 -36 92q0 52 36 90q38 38 92 38q52 0 90 -38t38 -90q0 -54 -38 -92q-38 -36 -90 -36v0zM128 1024q-54 0 -92 36q-36 38 -36 92q0 52 36 90q38 38 92 38q52 0 90 -38t38 -90q0 -54 -38 -92q-38 -36 -90 -36v0zM384 1024q-54 0 -92 36q-36 38 -36 92q0 52 36 90 q38 38 92 38q52 0 90 -38t38 -90q0 -54 -38 -92q-38 -36 -90 -36v0zM1408 1024q-54 0 -92 36q-36 38 -36 92q0 52 36 90q38 38 92 38q52 0 90 -38t38 -90q0 -54 -38 -92q-38 -36 -90 -36v0zM1664 1024q-54 0 -92 36q-36 38 -36 92q0 52 36 90q38 38 92 38q52 0 90 -38 t38 -90q0 -54 -38 -92q-38 -36 -90 -36v0zM128 1280q-54 0 -92 36q-36 38 -36 92q0 52 36 90q38 38 92 38q52 0 90 -38t38 -90q0 -54 -38 -92q-38 -36 -90 -36v0zM384 1280q-54 0 -92 36q-36 38 -36 92q0 52 36 90q38 38 92 38q52 0 90 -38t38 -90q0 -54 -38 -92 q-38 -36 -90 -36v0zM1408 1280q-54 0 -92 36q-36 38 -36 92q0 52 36 90q38 38 92 38q52 0 90 -38t38 -90q0 -54 -38 -92q-38 -36 -90 -36v0zM1664 1280q-54 0 -92 36q-36 38 -36 92q0 52 36 90q38 38 92 38q52 0 90 -38t38 -90q0 -54 -38 -92q-38 -36 -90 -36v0zM128 1536 q-54 0 -92 36q-36 38 -36 92q0 52 36 90q38 38 92 38q52 0 90 -38t38 -90q0 -54 -38 -92q-38 -36 -90 -36v0zM384 1536q-54 0 -92 36q-36 38 -36 92q0 52 36 90q38 38 92 38q52 0 90 -38t38 -90q0 -54 -38 -92q-38 -36 -90 -36v0zM1408 1536q-54 0 -92 36q-36 38 -36 92 q0 52 36 90q38 38 92 38q52 0 90 -38t38 -90q0 -54 -38 -92q-38 -36 -90 -36v0zM1664 1536q-54 0 -92 36q-36 38 -36 92q0 52 36 90q38 38 92 38q52 0 90 -38t38 -90q0 -54 -38 -92q-38 -36 -90 -36v0z" />
<glyph unicode="X" d="M128 0q-54 0 -92 36q-36 38 -36 92q0 52 36 90q38 38 92 38q52 0 90 -38t38 -90q0 -54 -38 -92q-38 -36 -90 -36v0zM384 0q-54 0 -92 36q-36 38 -36 92q0 52 36 90q38 38 92 38q52 0 90 -38t38 -90q0 -54 -38 -92q-38 -36 -90 -36v0zM1152 0q-54 0 -92 36q-36 38 -36 92 q0 52 36 90q38 38 92 38q52 0 90 -38t38 -90q0 -54 -38 -92q-38 -36 -90 -36v0zM1408 0q-54 0 -92 36q-36 38 -36 92q0 52 36 90q38 38 92 38q52 0 90 -38t38 -90q0 -54 -38 -92q-38 -36 -90 -36v0zM128 256q-54 0 -92 36q-36 38 -36 92q0 52 36 90q38 38 92 38q52 0 90 -38 t38 -90q0 -54 -38 -92q-38 -36 -90 -36v0zM384 256q-54 0 -92 36q-36 38 -36 92q0 52 36 90q38 38 92 38q52 0 90 -38t38 -90q0 -54 -38 -92q-38 -36 -90 -36v0zM1152 256q-54 0 -92 36q-36 38 -36 92q0 52 36 90q38 38 92 38q52 0 90 -38t38 -90q0 -54 -38 -92 q-38 -36 -90 -36v0zM1408 256q-54 0 -92 36q-36 38 -36 92q0 52 36 90q38 38 92 38q52 0 90 -38t38 -90q0 -54 -38 -92q-38 -36 -90 -36v0zM384 512q-54 0 -92 36q-36 38 -36 92q0 52 36 90q38 38 92 38q52 0 90 -38t38 -90q0 -54 -38 -92q-38 -36 -90 -36v0zM640 512 q-54 0 -92 36q-36 38 -36 92q0 52 36 90q38 38 92 38q52 0 90 -38t38 -90q0 -54 -38 -92q-38 -36 -90 -36v0zM896 512q-54 0 -92 36q-36 38 -36 92q0 52 36 90q38 38 92 38q52 0 90 -38t38 -90q0 -54 -38 -92q-38 -36 -90 -36v0zM1152 512q-54 0 -92 36q-36 38 -36 92 q0 52 36 90q38 38 92 38q52 0 90 -38t38 -90q0 -54 -38 -92q-38 -36 -90 -36v0zM640 768q-54 0 -92 36q-36 38 -36 92q0 52 36 90q38 38 92 38q52 0 90 -38t38 -90q0 -54 -38 -92q-38 -36 -90 -36v0zM896 768q-54 0 -92 36q-36 38 -36 92q0 52 36 90q38 38 92 38 q52 0 90 -38t38 -90q0 -54 -38 -92q-38 -36 -90 -36v0zM384 1024q-54 0 -92 36q-36 38 -36 92q0 52 36 90q38 38 92 38q52 0 90 -38t38 -90q0 -54 -38 -92q-38 -36 -90 -36v0zM640 1024q-54 0 -92 36q-36 38 -36 92q0 52 36 90q38 38 92 38q52 0 90 -38t38 -90 q0 -54 -38 -92q-38 -36 -90 -36v0zM896 1024q-54 0 -92 36q-36 38 -36 92q0 52 36 90q38 38 92 38q52 0 90 -38t38 -90q0 -54 -38 -92q-38 -36 -90 -36v0zM1152 1024q-54 0 -92 36q-36 38 -36 92q0 52 36 90q38 38 92 38q52 0 90 -38t38 -90q0 -54 -38 -92q-38 -36 -90 -36 v0zM128 1280q-54 0 -92 36q-36 38 -36 92q0 52 36 90q38 38 92 38q52 0 90 -38t38 -90q0 -54 -38 -92q-38 -36 -90 -36v0zM384 1280q-54 0 -92 36q-36 38 -36 92q0 52 36 90q38 38 92 38q52 0 90 -38t38 -90q0 -54 -38 -92q-38 -36 -90 -36v0zM1152 1280q-54 0 -92 36 q-36 38 -36 92q0 52 36 90q38 38 92 38q52 0 90 -38t38 -90q0 -54 -38 -92q-38 -36 -90 -36v0zM1408 1280q-54 0 -92 36q-36 38 -36 92q0 52 36 90q38 38 92 38q52 0 90 -38t38 -90q0 -54 -38 -92q-38 -36 -90 -36v0zM128 1536q-54 0 -92 36q-36 38 -36 92q0 52 36 90 q38 38 92 38q52 0 90 -38t38 -90q0 -54 -38 -92q-38 -36 -90 -36v0zM384 1536q-54 0 -92 36q-36 38 -36 92q0 52 36 90q38 38 92 38q52 0 90 -38t38 -90q0 -54 -38 -92q-38 -36 -90 -36v0zM1152 1536q-54 0 -92 36q-36 38 -36 92q0 52 36 90q38 38 92 38q52 0 90 -38t38 -90 q0 -54 -38 -92q-38 -36 -90 -36v0zM1408 1536q-54 0 -92 36q-36 38 -36 92q0 52 36 90q38 38 92 38q52 0 90 -38t38 -90q0 -54 -38 -92q-38 -36 -90 -36v0z" />
<glyph unicode="Y" d="M640 0q-54 0 -92 36q-36 38 -36 92q0 52 36 90q38 38 92 38q52 0 90 -38t38 -90q0 -54 -38 -92q-38 -36 -90 -36v0zM896 0q-54 0 -92 36q-36 38 -36 92q0 52 36 90q38 38 92 38q52 0 90 -38t38 -90q0 -54 -38 -92q-38 -36 -90 -36v0zM640 256q-54 0 -92 36q-36 38 -36 92 q0 52 36 90q38 38 92 38q52 0 90 -38t38 -90q0 -54 -38 -92q-38 -36 -90 -36v0zM896 256q-54 0 -92 36q-36 38 -36 92q0 52 36 90q38 38 92 38q52 0 90 -38t38 -90q0 -54 -38 -92q-38 -36 -90 -36v0zM640 512q-54 0 -92 36q-36 38 -36 92q0 52 36 90q38 38 92 38 q52 0 90 -38t38 -90q0 -54 -38 -92q-38 -36 -90 -36v0zM896 512q-54 0 -92 36q-36 38 -36 92q0 52 36 90q38 38 92 38q52 0 90 -38t38 -90q0 -54 -38 -92q-38 -36 -90 -36v0zM384 768q-54 0 -92 36q-36 38 -36 92q0 52 36 90q38 38 92 38q52 0 90 -38t38 -90q0 -54 -38 -92 q-38 -36 -90 -36v0zM640 768q-54 0 -92 36q-36 38 -36 92q0 52 36 90q38 38 92 38q52 0 90 -38t38 -90q0 -54 -38 -92q-38 -36 -90 -36v0zM896 768q-54 0 -92 36q-36 38 -36 92q0 52 36 90q38 38 92 38q52 0 90 -38t38 -90q0 -54 -38 -92q-38 -36 -90 -36v0zM1152 768 q-54 0 -92 36q-36 38 -36 92q0 52 36 90q38 38 92 38q52 0 90 -38t38 -90q0 -54 -38 -92q-38 -36 -90 -36v0zM128 1024q-54 0 -92 36q-36 38 -36 92q0 52 36 90q38 38 92 38q52 0 90 -38t38 -90q0 -54 -38 -92q-38 -36 -90 -36v0zM384 1024q-54 0 -92 36q-36 38 -36 92 q0 52 36 90q38 38 92 38q52 0 90 -38t38 -90q0 -54 -38 -92q-38 -36 -90 -36v0zM1152 1024q-54 0 -92 36q-36 38 -36 92q0 52 36 90q38 38 92 38q52 0 90 -38t38 -90q0 -54 -38 -92q-38 -36 -90 -36v0zM1408 1024q-54 0 -92 36q-36 38 -36 92q0 52 36 90q38 38 92 38 q52 0 90 -38t38 -90q0 -54 -38 -92q-38 -36 -90 -36v0zM128 1280q-54 0 -92 36q-36 38 -36 92q0 52 36 90q38 38 92 38q52 0 90 -38t38 -90q0 -54 -38 -92q-38 -36 -90 -36v0zM384 1280q-54 0 -92 36q-36 38 -36 92q0 52 36 90q38 38 92 38q52 0 90 -38t38 -90 q0 -54 -38 -92q-38 -36 -90 -36v0zM1152 1280q-54 0 -92 36q-36 38 -36 92q0 52 36 90q38 38 92 38q52 0 90 -38t38 -90q0 -54 -38 -92q-38 -36 -90 -36v0zM1408 1280q-54 0 -92 36q-36 38 -36 92q0 52 36 90q38 38 92 38q52 0 90 -38t38 -90q0 -54 -38 -92q-38 -36 -90 -36 v0zM128 1536q-54 0 -92 36q-36 38 -36 92q0 52 36 90q38 38 92 38q52 0 90 -38t38 -90q0 -54 -38 -92q-38 -36 -90 -36v0zM384 1536q-54 0 -92 36q-36 38 -36 92q0 52 36 90q38 38 92 38q52 0 90 -38t38 -90q0 -54 -38 -92q-38 -36 -90 -36v0zM1152 1536q-54 0 -92 36 q-36 38 -36 92q0 52 36 90q38 38 92 38q52 0 90 -38t38 -90q0 -54 -38 -92q-38 -36 -90 -36v0zM1408 1536q-54 0 -92 36q-36 38 -36 92q0 52 36 90q38 38 92 38q52 0 90 -38t38 -90q0 -54 -38 -92q-38 -36 -90 -36v0z" />
<glyph unicode="Z" d="M128 0q-54 0 -92 36q-36 38 -36 92q0 52 36 90q38 38 92 38q52 0 90 -38t38 -90q0 -54 -38 -92q-38 -36 -90 -36v0zM384 0q-54 0 -92 36q-36 38 -36 92q0 52 36 90q38 38 92 38q52 0 90 -38t38 -90q0 -54 -38 -92q-38 -36 -90 -36v0zM640 0q-54 0 -92 36q-36 38 -36 92 q0 52 36 90q38 38 92 38q52 0 90 -38t38 -90q0 -54 -38 -92q-38 -36 -90 -36v0zM896 0q-54 0 -92 36q-36 38 -36 92q0 52 36 90q38 38 92 38q52 0 90 -38t38 -90q0 -54 -38 -92q-38 -36 -90 -36v0zM1152 0q-54 0 -92 36q-36 38 -36 92q0 52 36 90q38 38 92 38q52 0 90 -38 t38 -90q0 -54 -38 -92q-38 -36 -90 -36v0zM1408 0q-54 0 -92 36q-36 38 -36 92q0 52 36 90q38 38 92 38q52 0 90 -38t38 -90q0 -54 -38 -92q-38 -36 -90 -36v0zM128 256q-54 0 -92 36q-36 38 -36 92q0 52 36 90q38 38 92 38q52 0 90 -38t38 -90q0 -54 -38 -92 q-38 -36 -90 -36v0zM384 256q-54 0 -92 36q-36 38 -36 92q0 52 36 90q38 38 92 38q52 0 90 -38t38 -90q0 -54 -38 -92q-38 -36 -90 -36v0zM384 512q-54 0 -92 36q-36 38 -36 92q0 52 36 90q38 38 92 38q52 0 90 -38t38 -90q0 -54 -38 -92q-38 -36 -90 -36v0zM640 512 q-54 0 -92 36q-36 38 -36 92q0 52 36 90q38 38 92 38q52 0 90 -38t38 -90q0 -54 -38 -92q-38 -36 -90 -36v0zM640 768q-54 0 -92 36q-36 38 -36 92q0 52 36 90q38 38 92 38q52 0 90 -38t38 -90q0 -54 -38 -92q-38 -36 -90 -36v0zM896 768q-54 0 -92 36q-36 38 -36 92 q0 52 36 90q38 38 92 38q52 0 90 -38t38 -90q0 -54 -38 -92q-38 -36 -90 -36v0zM896 1024q-54 0 -92 36q-36 38 -36 92q0 52 36 90q38 38 92 38q52 0 90 -38t38 -90q0 -54 -38 -92q-38 -36 -90 -36v0zM1152 1024q-54 0 -92 36q-36 38 -36 92q0 52 36 90q38 38 92 38 q52 0 90 -38t38 -90q0 -54 -38 -92q-38 -36 -90 -36v0zM1152 1280q-54 0 -92 36q-36 38 -36 92q0 52 36 90q38 38 92 38q52 0 90 -38t38 -90q0 -54 -38 -92q-38 -36 -90 -36v0zM1408 1280q-54 0 -92 36q-36 38 -36 92q0 52 36 90q38 38 92 38q52 0 90 -38t38 -90 q0 -54 -38 -92q-38 -36 -90 -36v0zM128 1536q-54 0 -92 36q-36 38 -36 92q0 52 36 90q38 38 92 38q52 0 90 -38t38 -90q0 -54 -38 -92q-38 -36 -90 -36v0zM384 1536q-54 0 -92 36q-36 38 -36 92q0 52 36 90q38 38 92 38q52 0 90 -38t38 -90q0 -54 -38 -92q-38 -36 -90 -36v0 zM640 1536q-54 0 -92 36q-36 38 -36 92q0 52 36 90q38 38 92 38q52 0 90 -38t38 -90q0 -54 -38 -92q-38 -36 -90 -36v0zM896 1536q-54 0 -92 36q-36 38 -36 92q0 52 36 90q38 38 92 38q52 0 90 -38t38 -90q0 -54 -38 -92q-38 -36 -90 -36v0zM1152 1536q-54 0 -92 36 q-36 38 -36 92q0 52 36 90q38 38 92 38q52 0 90 -38t38 -90q0 -54 -38 -92q-38 -36 -90 -36v0zM1408 1536q-54 0 -92 36q-36 38 -36 92q0 52 36 90q38 38 92 38q52 0 90 -38t38 -90q0 -54 -38 -92q-38 -36 -90 -36v0z" />
<glyph unicode="a" d="M128 0q-54 0 -92 36q-36 38 -36 92q0 52 36 90q38 38 92 38q52 0 90 -38t38 -90q0 -54 -38 -92q-38 -36 -90 -36v0zM384 0q-54 0 -92 36q-36 38 -36 92q0 52 36 90q38 38 92 38q52 0 90 -38t38 -90q0 -54 -38 -92q-38 -36 -90 -36v0zM1152 0q-54 0 -92 36q-36 38 -36 92 q0 52 36 90q38 38 92 38q52 0 90 -38t38 -90q0 -54 -38 -92q-38 -36 -90 -36v0zM1408 0q-54 0 -92 36q-36 38 -36 92q0 52 36 90q38 38 92 38q52 0 90 -38t38 -90q0 -54 -38 -92q-38 -36 -90 -36v0zM128 256q-54 0 -92 36q-36 38 -36 92q0 52 36 90q38 38 92 38q52 0 90 -38 t38 -90q0 -54 -38 -92q-38 -36 -90 -36v0zM384 256q-54 0 -92 36q-36 38 -36 92q0 52 36 90q38 38 92 38q52 0 90 -38t38 -90q0 -54 -38 -92q-38 -36 -90 -36v0zM1152 256q-54 0 -92 36q-36 38 -36 92q0 52 36 90q38 38 92 38q52 0 90 -38t38 -90q0 -54 -38 -92 q-38 -36 -90 -36v0zM1408 256q-54 0 -92 36q-36 38 -36 92q0 52 36 90q38 38 92 38q52 0 90 -38t38 -90q0 -54 -38 -92q-38 -36 -90 -36v0zM128 512q-54 0 -92 36q-36 38 -36 92q0 52 36 90q38 38 92 38q52 0 90 -38t38 -90q0 -54 -38 -92q-38 -36 -90 -36v0zM384 512 q-54 0 -92 36q-36 38 -36 92q0 52 36 90q38 38 92 38q52 0 90 -38t38 -90q0 -54 -38 -92q-38 -36 -90 -36v0zM1152 512q-54 0 -92 36q-36 38 -36 92q0 52 36 90q38 38 92 38q52 0 90 -38t38 -90q0 -54 -38 -92q-38 -36 -90 -36v0zM1408 512q-54 0 -92 36q-36 38 -36 92 q0 52 36 90q38 38 92 38q52 0 90 -38t38 -90q0 -54 -38 -92q-38 -36 -90 -36v0zM128 768q-54 0 -92 36q-36 38 -36 92q0 52 36 90q38 38 92 38q52 0 90 -38t38 -90q0 -54 -38 -92q-38 -36 -90 -36v0zM384 768q-54 0 -92 36q-36 38 -36 92q0 52 36 90q38 38 92 38 q52 0 90 -38t38 -90q0 -54 -38 -92q-38 -36 -90 -36v0zM640 768q-54 0 -92 36q-36 38 -36 92q0 52 36 90q38 38 92 38q52 0 90 -38t38 -90q0 -54 -38 -92q-38 -36 -90 -36v0zM896 768q-54 0 -92 36q-36 38 -36 92q0 52 36 90q38 38 92 38q52 0 90 -38t38 -90q0 -54 -38 -92 q-38 -36 -90 -36v0zM1152 768q-54 0 -92 36q-36 38 -36 92q0 52 36 90q38 38 92 38q52 0 90 -38t38 -90q0 -54 -38 -92q-38 -36 -90 -36v0zM1408 768q-54 0 -92 36q-36 38 -36 92q0 52 36 90q38 38 92 38q52 0 90 -38t38 -90q0 -54 -38 -92q-38 -36 -90 -36v0zM128 1024 q-54 0 -92 36q-36 38 -36 92q0 52 36 90q38 38 92 38q52 0 90 -38t38 -90q0 -54 -38 -92q-38 -36 -90 -36v0zM384 1024q-54 0 -92 36q-36 38 -36 92q0 52 36 90q38 38 92 38q52 0 90 -38t38 -90q0 -54 -38 -92q-38 -36 -90 -36v0zM1152 1024q-54 0 -92 36q-36 38 -36 92 q0 52 36 90q38 38 92 38q52 0 90 -38t38 -90q0 -54 -38 -92q-38 -36 -90 -36v0zM1408 1024q-54 0 -92 36q-36 38 -36 92q0 52 36 90q38 38 92 38q52 0 90 -38t38 -90q0 -54 -38 -92q-38 -36 -90 -36v0zM128 1280q-54 0 -92 36q-36 38 -36 92q0 52 36 90q38 38 92 38 q52 0 90 -38t38 -90q0 -54 -38 -92q-38 -36 -90 -36v0zM384 1280q-54 0 -92 36q-36 38 -36 92q0 52 36 90q38 38 92 38q52 0 90 -38t38 -90q0 -54 -38 -92q-38 -36 -90 -36v0zM1152 1280q-54 0 -92 36q-36 38 -36 92q0 52 36 90q38 38 92 38q52 0 90 -38t38 -90 q0 -54 -38 -92q-38 -36 -90 -36v0zM1408 1280q-54 0 -92 36q-36 38 -36 92q0 52 36 90q38 38 92 38q52 0 90 -38t38 -90q0 -54 -38 -92q-38 -36 -90 -36v0zM384 1536q-54 0 -92 36q-36 38 -36 92q0 52 36 90q38 38 92 38q52 0 90 -38t38 -90q0 -54 -38 -92q-38 -36 -90 -36 v0zM640 1536q-54 0 -92 36q-36 38 -36 92q0 52 36 90q38 38 92 38q52 0 90 -38t38 -90q0 -54 -38 -92q-38 -36 -90 -36v0zM896 1536q-54 0 -92 36q-36 38 -36 92q0 52 36 90q38 38 92 38q52 0 90 -38t38 -90q0 -54 -38 -92q-38 -36 -90 -36v0zM1152 1536q-54 0 -92 36 q-36 38 -36 92q0 52 36 90q38 38 92 38q52 0 90 -38t38 -90q0 -54 -38 -92q-38 -36 -90 -36v0z" />
<glyph unicode="b" d="M128 0q-54 0 -92 36q-36 38 -36 92q0 52 36 90q38 38 92 38q52 0 90 -38t38 -90q0 -54 -38 -92q-38 -36 -90 -36v0zM384 0q-54 0 -92 36q-36 38 -36 92q0 52 36 90q38 38 92 38q52 0 90 -38t38 -90q0 -54 -38 -92q-38 -36 -90 -36v0zM640 0q-54 0 -92 36q-36 38 -36 92 q0 52 36 90q38 38 92 38q52 0 90 -38t38 -90q0 -54 -38 -92q-38 -36 -90 -36v0zM896 0q-54 0 -92 36q-36 38 -36 92q0 52 36 90q38 38 92 38q52 0 90 -38t38 -90q0 -54 -38 -92q-38 -36 -90 -36v0zM1152 0q-54 0 -92 36q-36 38 -36 92q0 52 36 90q38 38 92 38q52 0 90 -38 t38 -90q0 -54 -38 -92q-38 -36 -90 -36v0zM128 256q-54 0 -92 36q-36 38 -36 92q0 52 36 90q38 38 92 38q52 0 90 -38t38 -90q0 -54 -38 -92q-38 -36 -90 -36v0zM384 256q-54 0 -92 36q-36 38 -36 92q0 52 36 90q38 38 92 38q52 0 90 -38t38 -90q0 -54 -38 -92 q-38 -36 -90 -36v0zM1152 256q-54 0 -92 36q-36 38 -36 92q0 52 36 90q38 38 92 38q52 0 90 -38t38 -90q0 -54 -38 -92q-38 -36 -90 -36v0zM1408 256q-54 0 -92 36q-36 38 -36 92q0 52 36 90q38 38 92 38q52 0 90 -38t38 -90q0 -54 -38 -92q-38 -36 -90 -36v0zM128 512 q-54 0 -92 36q-36 38 -36 92q0 52 36 90q38 38 92 38q52 0 90 -38t38 -90q0 -54 -38 -92q-38 -36 -90 -36v0zM384 512q-54 0 -92 36q-36 38 -36 92q0 52 36 90q38 38 92 38q52 0 90 -38t38 -90q0 -54 -38 -92q-38 -36 -90 -36v0zM1152 512q-54 0 -92 36q-36 38 -36 92 q0 52 36 90q38 38 92 38q52 0 90 -38t38 -90q0 -54 -38 -92q-38 -36 -90 -36v0zM1408 512q-54 0 -92 36q-36 38 -36 92q0 52 36 90q38 38 92 38q52 0 90 -38t38 -90q0 -54 -38 -92q-38 -36 -90 -36v0zM128 768q-54 0 -92 36q-36 38 -36 92q0 52 36 90q38 38 92 38 q52 0 90 -38t38 -90q0 -54 -38 -92q-38 -36 -90 -36v0zM384 768q-54 0 -92 36q-36 38 -36 92q0 52 36 90q38 38 92 38q52 0 90 -38t38 -90q0 -54 -38 -92q-38 -36 -90 -36v0zM640 768q-54 0 -92 36q-36 38 -36 92q0 52 36 90q38 38 92 38q52 0 90 -38t38 -90q0 -54 -38 -92 q-38 -36 -90 -36v0zM896 768q-54 0 -92 36q-36 38 -36 92q0 52 36 90q38 38 92 38q52 0 90 -38t38 -90q0 -54 -38 -92q-38 -36 -90 -36v0zM1152 768q-54 0 -92 36q-36 38 -36 92q0 52 36 90q38 38 92 38q52 0 90 -38t38 -90q0 -54 -38 -92q-38 -36 -90 -36v0zM128 1024 q-54 0 -92 36q-36 38 -36 92q0 52 36 90q38 38 92 38q52 0 90 -38t38 -90q0 -54 -38 -92q-38 -36 -90 -36v0zM384 1024q-54 0 -92 36q-36 38 -36 92q0 52 36 90q38 38 92 38q52 0 90 -38t38 -90q0 -54 -38 -92q-38 -36 -90 -36v0zM1152 1024q-54 0 -92 36q-36 38 -36 92 q0 52 36 90q38 38 92 38q52 0 90 -38t38 -90q0 -54 -38 -92q-38 -36 -90 -36v0zM1408 1024q-54 0 -92 36q-36 38 -36 92q0 52 36 90q38 38 92 38q52 0 90 -38t38 -90q0 -54 -38 -92q-38 -36 -90 -36v0zM128 1280q-54 0 -92 36q-36 38 -36 92q0 52 36 90q38 38 92 38 q52 0 90 -38t38 -90q0 -54 -38 -92q-38 -36 -90 -36v0zM384 1280q-54 0 -92 36q-36 38 -36 92q0 52 36 90q38 38 92 38q52 0 90 -38t38 -90q0 -54 -38 -92q-38 -36 -90 -36v0zM1152 1280q-54 0 -92 36q-36 38 -36 92q0 52 36 90q38 38 92 38q52 0 90 -38t38 -90 q0 -54 -38 -92q-38 -36 -90 -36v0zM1408 1280q-54 0 -92 36q-36 38 -36 92q0 52 36 90q38 38 92 38q52 0 90 -38t38 -90q0 -54 -38 -92q-38 -36 -90 -36v0zM128 1536q-54 0 -92 36q-36 38 -36 92q0 52 36 90q38 38 92 38q52 0 90 -38t38 -90q0 -54 -38 -92q-38 -36 -90 -36 v0zM384 1536q-54 0 -92 36q-36 38 -36 92q0 52 36 90q38 38 92 38q52 0 90 -38t38 -90q0 -54 -38 -92q-38 -36 -90 -36v0zM640 1536q-54 0 -92 36q-36 38 -36 92q0 52 36 90q38 38 92 38q52 0 90 -38t38 -90q0 -54 -38 -92q-38 -36 -90 -36v0zM896 1536q-54 0 -92 36 q-36 38 -36 92q0 52 36 90q38 38 92 38q52 0 90 -38t38 -90q0 -54 -38 -92q-38 -36 -90 -36v0zM1152 1536q-54 0 -92 36q-36 38 -36 92q0 52 36 90q38 38 92 38q52 0 90 -38t38 -90q0 -54 -38 -92q-38 -36 -90 -36v0z" />
<glyph unicode="c" d="M384 0q-54 0 -92 36q-36 38 -36 92q0 52 36 90q38 38 92 38q52 0 90 -38t38 -90q0 -54 -38 -92q-38 -36 -90 -36v0zM640 0q-54 0 -92 36q-36 38 -36 92q0 52 36 90q38 38 92 38q52 0 90 -38t38 -90q0 -54 -38 -92q-38 -36 -90 -36v0zM896 0q-54 0 -92 36q-36 38 -36 92 q0 52 36 90q38 38 92 38q52 0 90 -38t38 -90q0 -54 -38 -92q-38 -36 -90 -36v0zM1152 0q-54 0 -92 36q-36 38 -36 92q0 52 36 90q38 38 92 38q52 0 90 -38t38 -90q0 -54 -38 -92q-38 -36 -90 -36v0zM128 256q-54 0 -92 36q-36 38 -36 92q0 52 36 90q38 38 92 38q52 0 90 -38 t38 -90q0 -54 -38 -92q-38 -36 -90 -36v0zM384 256q-54 0 -92 36q-36 38 -36 92q0 52 36 90q38 38 92 38q52 0 90 -38t38 -90q0 -54 -38 -92q-38 -36 -90 -36v0zM1152 256q-54 0 -92 36q-36 38 -36 92q0 52 36 90q38 38 92 38q52 0 90 -38t38 -90q0 -54 -38 -92 q-38 -36 -90 -36v0zM1408 256q-54 0 -92 36q-36 38 -36 92q0 52 36 90q38 38 92 38q52 0 90 -38t38 -90q0 -54 -38 -92q-38 -36 -90 -36v0zM128 512q-54 0 -92 36q-36 38 -36 92q0 52 36 90q38 38 92 38q52 0 90 -38t38 -90q0 -54 -38 -92q-38 -36 -90 -36v0zM384 512 q-54 0 -92 36q-36 38 -36 92q0 52 36 90q38 38 92 38q52 0 90 -38t38 -90q0 -54 -38 -92q-38 -36 -90 -36v0zM128 768q-54 0 -92 36q-36 38 -36 92q0 52 36 90q38 38 92 38q52 0 90 -38t38 -90q0 -54 -38 -92q-38 -36 -90 -36v0zM384 768q-54 0 -92 36q-36 38 -36 92 q0 52 36 90q38 38 92 38q52 0 90 -38t38 -90q0 -54 -38 -92q-38 -36 -90 -36v0zM128 1024q-54 0 -92 36q-36 38 -36 92q0 52 36 90q38 38 92 38q52 0 90 -38t38 -90q0 -54 -38 -92q-38 -36 -90 -36v0zM384 1024q-54 0 -92 36q-36 38 -36 92q0 52 36 90q38 38 92 38 q52 0 90 -38t38 -90q0 -54 -38 -92q-38 -36 -90 -36v0zM128 1280q-54 0 -92 36q-36 38 -36 92q0 52 36 90q38 38 92 38q52 0 90 -38t38 -90q0 -54 -38 -92q-38 -36 -90 -36v0zM384 1280q-54 0 -92 36q-36 38 -36 92q0 52 36 90q38 38 92 38q52 0 90 -38t38 -90 q0 -54 -38 -92q-38 -36 -90 -36v0zM1152 1280q-54 0 -92 36q-36 38 -36 92q0 52 36 90q38 38 92 38q52 0 90 -38t38 -90q0 -54 -38 -92q-38 -36 -90 -36v0zM1408 1280q-54 0 -92 36q-36 38 -36 92q0 52 36 90q38 38 92 38q52 0 90 -38t38 -90q0 -54 -38 -92q-38 -36 -90 -36 v0zM384 1536q-54 0 -92 36q-36 38 -36 92q0 52 36 90q38 38 92 38q52 0 90 -38t38 -90q0 -54 -38 -92q-38 -36 -90 -36v0zM640 1536q-54 0 -92 36q-36 38 -36 92q0 52 36 90q38 38 92 38q52 0 90 -38t38 -90q0 -54 -38 -92q-38 -36 -90 -36v0zM896 1536q-54 0 -92 36 q-36 38 -36 92q0 52 36 90q38 38 92 38q52 0 90 -38t38 -90q0 -54 -38 -92q-38 -36 -90 -36v0zM1152 1536q-54 0 -92 36q-36 38 -36 92q0 52 36 90q38 38 92 38q52 0 90 -38t38 -90q0 -54 -38 -92q-38 -36 -90 -36v0z" />
<glyph unicode="d" d="M128 0q-54 0 -92 36q-36 38 -36 92q0 52 36 90q38 38 92 38q52 0 90 -38t38 -90q0 -54 -38 -92q-38 -36 -90 -36v0zM384 0q-54 0 -92 36q-36 38 -36 92q0 52 36 90q38 38 92 38q52 0 90 -38t38 -90q0 -54 -38 -92q-38 -36 -90 -36v0zM640 0q-54 0 -92 36q-36 38 -36 92 q0 52 36 90q38 38 92 38q52 0 90 -38t38 -90q0 -54 -38 -92q-38 -36 -90 -36v0zM896 0q-54 0 -92 36q-36 38 -36 92q0 52 36 90q38 38 92 38q52 0 90 -38t38 -90q0 -54 -38 -92q-38 -36 -90 -36v0zM1152 0q-54 0 -92 36q-36 38 -36 92q0 52 36 90q38 38 92 38q52 0 90 -38 t38 -90q0 -54 -38 -92q-38 -36 -90 -36v0zM128 256q-54 0 -92 36q-36 38 -36 92q0 52 36 90q38 38 92 38q52 0 90 -38t38 -90q0 -54 -38 -92q-38 -36 -90 -36v0zM384 256q-54 0 -92 36q-36 38 -36 92q0 52 36 90q38 38 92 38q52 0 90 -38t38 -90q0 -54 -38 -92 q-38 -36 -90 -36v0zM1152 256q-54 0 -92 36q-36 38 -36 92q0 52 36 90q38 38 92 38q52 0 90 -38t38 -90q0 -54 -38 -92q-38 -36 -90 -36v0zM1408 256q-54 0 -92 36q-36 38 -36 92q0 52 36 90q38 38 92 38q52 0 90 -38t38 -90q0 -54 -38 -92q-38 -36 -90 -36v0zM128 512 q-54 0 -92 36q-36 38 -36 92q0 52 36 90q38 38 92 38q52 0 90 -38t38 -90q0 -54 -38 -92q-38 -36 -90 -36v0zM384 512q-54 0 -92 36q-36 38 -36 92q0 52 36 90q38 38 92 38q52 0 90 -38t38 -90q0 -54 -38 -92q-38 -36 -90 -36v0zM1152 512q-54 0 -92 36q-36 38 -36 92 q0 52 36 90q38 38 92 38q52 0 90 -38t38 -90q0 -54 -38 -92q-38 -36 -90 -36v0zM1408 512q-54 0 -92 36q-36 38 -36 92q0 52 36 90q38 38 92 38q52 0 90 -38t38 -90q0 -54 -38 -92q-38 -36 -90 -36v0zM128 768q-54 0 -92 36q-36 38 -36 92q0 52 36 90q38 38 92 38 q52 0 90 -38t38 -90q0 -54 -38 -92q-38 -36 -90 -36v0zM384 768q-54 0 -92 36q-36 38 -36 92q0 52 36 90q38 38 92 38q52 0 90 -38t38 -90q0 -54 -38 -92q-38 -36 -90 -36v0zM1152 768q-54 0 -92 36q-36 38 -36 92q0 52 36 90q38 38 92 38q52 0 90 -38t38 -90q0 -54 -38 -92 q-38 -36 -90 -36v0zM1408 768q-54 0 -92 36q-36 38 -36 92q0 52 36 90q38 38 92 38q52 0 90 -38t38 -90q0 -54 -38 -92q-38 -36 -90 -36v0zM128 1024q-54 0 -92 36q-36 38 -36 92q0 52 36 90q38 38 92 38q52 0 90 -38t38 -90q0 -54 -38 -92q-38 -36 -90 -36v0zM384 1024 q-54 0 -92 36q-36 38 -36 92q0 52 36 90q38 38 92 38q52 0 90 -38t38 -90q0 -54 -38 -92q-38 -36 -90 -36v0zM1152 1024q-54 0 -92 36q-36 38 -36 92q0 52 36 90q38 38 92 38q52 0 90 -38t38 -90q0 -54 -38 -92q-38 -36 -90 -36v0zM1408 1024q-54 0 -92 36q-36 38 -36 92 q0 52 36 90q38 38 92 38q52 0 90 -38t38 -90q0 -54 -38 -92q-38 -36 -90 -36v0zM128 1280q-54 0 -92 36q-36 38 -36 92q0 52 36 90q38 38 92 38q52 0 90 -38t38 -90q0 -54 -38 -92q-38 -36 -90 -36v0zM384 1280q-54 0 -92 36q-36 38 -36 92q0 52 36 90q38 38 92 38 q52 0 90 -38t38 -90q0 -54 -38 -92q-38 -36 -90 -36v0zM1152 1280q-54 0 -92 36q-36 38 -36 92q0 52 36 90q38 38 92 38q52 0 90 -38t38 -90q0 -54 -38 -92q-38 -36 -90 -36v0zM1408 1280q-54 0 -92 36q-36 38 -36 92q0 52 36 90q38 38 92 38q52 0 90 -38t38 -90 q0 -54 -38 -92q-38 -36 -90 -36v0zM128 1536q-54 0 -92 36q-36 38 -36 92q0 52 36 90q38 38 92 38q52 0 90 -38t38 -90q0 -54 -38 -92q-38 -36 -90 -36v0zM384 1536q-54 0 -92 36q-36 38 -36 92q0 52 36 90q38 38 92 38q52 0 90 -38t38 -90q0 -54 -38 -92q-38 -36 -90 -36v0 zM640 1536q-54 0 -92 36q-36 38 -36 92q0 52 36 90q38 38 92 38q52 0 90 -38t38 -90q0 -54 -38 -92q-38 -36 -90 -36v0zM896 1536q-54 0 -92 36q-36 38 -36 92q0 52 36 90q38 38 92 38q52 0 90 -38t38 -90q0 -54 -38 -92q-38 -36 -90 -36v0zM1152 1536q-54 0 -92 36 q-36 38 -36 92q0 52 36 90q38 38 92 38q52 0 90 -38t38 -90q0 -54 -38 -92q-38 -36 -90 -36v0z" />
<glyph unicode="e" d="M128 0q-54 0 -92 36q-36 38 -36 92q0 52 36 90q38 38 92 38q52 0 90 -38t38 -90q0 -54 -38 -92q-38 -36 -90 -36v0zM384 0q-54 0 -92 36q-36 38 -36 92q0 52 36 90q38 38 92 38q52 0 90 -38t38 -90q0 -54 -38 -92q-38 -36 -90 -36v0zM640 0q-54 0 -92 36q-36 38 -36 92 q0 52 36 90q38 38 92 38q52 0 90 -38t38 -90q0 -54 -38 -92q-38 -36 -90 -36v0zM896 0q-54 0 -92 36q-36 38 -36 92q0 52 36 90q38 38 92 38q52 0 90 -38t38 -90q0 -54 -38 -92q-38 -36 -90 -36v0zM1152 0q-54 0 -92 36q-36 38 -36 92q0 52 36 90q38 38 92 38q52 0 90 -38 t38 -90q0 -54 -38 -92q-38 -36 -90 -36v0zM1408 0q-54 0 -92 36q-36 38 -36 92q0 52 36 90q38 38 92 38q52 0 90 -38t38 -90q0 -54 -38 -92q-38 -36 -90 -36v0zM128 256q-54 0 -92 36q-36 38 -36 92q0 52 36 90q38 38 92 38q52 0 90 -38t38 -90q0 -54 -38 -92 q-38 -36 -90 -36v0zM384 256q-54 0 -92 36q-36 38 -36 92q0 52 36 90q38 38 92 38q52 0 90 -38t38 -90q0 -54 -38 -92q-38 -36 -90 -36v0zM128 512q-54 0 -92 36q-36 38 -36 92q0 52 36 90q38 38 92 38q52 0 90 -38t38 -90q0 -54 -38 -92q-38 -36 -90 -36v0zM384 512 q-54 0 -92 36q-36 38 -36 92q0 52 36 90q38 38 92 38q52 0 90 -38t38 -90q0 -54 -38 -92q-38 -36 -90 -36v0zM128 768q-54 0 -92 36q-36 38 -36 92q0 52 36 90q38 38 92 38q52 0 90 -38t38 -90q0 -54 -38 -92q-38 -36 -90 -36v0zM384 768q-54 0 -92 36q-36 38 -36 92 q0 52 36 90q38 38 92 38q52 0 90 -38t38 -90q0 -54 -38 -92q-38 -36 -90 -36v0zM640 768q-54 0 -92 36q-36 38 -36 92q0 52 36 90q38 38 92 38q52 0 90 -38t38 -90q0 -54 -38 -92q-38 -36 -90 -36v0zM896 768q-54 0 -92 36q-36 38 -36 92q0 52 36 90q38 38 92 38 q52 0 90 -38t38 -90q0 -54 -38 -92q-38 -36 -90 -36v0zM128 1024q-54 0 -92 36q-36 38 -36 92q0 52 36 90q38 38 92 38q52 0 90 -38t38 -90q0 -54 -38 -92q-38 -36 -90 -36v0zM384 1024q-54 0 -92 36q-36 38 -36 92q0 52 36 90q38 38 92 38q52 0 90 -38t38 -90 q0 -54 -38 -92q-38 -36 -90 -36v0zM128 1280q-54 0 -92 36q-36 38 -36 92q0 52 36 90q38 38 92 38q52 0 90 -38t38 -90q0 -54 -38 -92q-38 -36 -90 -36v0zM384 1280q-54 0 -92 36q-36 38 -36 92q0 52 36 90q38 38 92 38q52 0 90 -38t38 -90q0 -54 -38 -92q-38 -36 -90 -36v0 zM128 1536q-54 0 -92 36q-36 38 -36 92q0 52 36 90q38 38 92 38q52 0 90 -38t38 -90q0 -54 -38 -92q-38 -36 -90 -36v0zM384 1536q-54 0 -92 36q-36 38 -36 92q0 52 36 90q38 38 92 38q52 0 90 -38t38 -90q0 -54 -38 -92q-38 -36 -90 -36v0zM640 1536q-54 0 -92 36 q-36 38 -36 92q0 52 36 90q38 38 92 38q52 0 90 -38t38 -90q0 -54 -38 -92q-38 -36 -90 -36v0zM896 1536q-54 0 -92 36q-36 38 -36 92q0 52 36 90q38 38 92 38q52 0 90 -38t38 -90q0 -54 -38 -92q-38 -36 -90 -36v0zM1152 1536q-54 0 -92 36q-36 38 -36 92q0 52 36 90 q38 38 92 38q52 0 90 -38t38 -90q0 -54 -38 -92q-38 -36 -90 -36v0zM1408 1536q-54 0 -92 36q-36 38 -36 92q0 52 36 90q38 38 92 38q52 0 90 -38t38 -90q0 -54 -38 -92q-38 -36 -90 -36v0z" />
<glyph unicode="f" d="M128 0q-54 0 -92 36q-36 38 -36 92q0 52 36 90q38 38 92 38q52 0 90 -38t38 -90q0 -54 -38 -92q-38 -36 -90 -36v0zM384 0q-54 0 -92 36q-36 38 -36 92q0 52 36 90q38 38 92 38q52 0 90 -38t38 -90q0 -54 -38 -92q-38 -36 -90 -36v0zM128 256q-54 0 -92 36q-36 38 -36 92 q0 52 36 90q38 38 92 38q52 0 90 -38t38 -90q0 -54 -38 -92q-38 -36 -90 -36v0zM384 256q-54 0 -92 36q-36 38 -36 92q0 52 36 90q38 38 92 38q52 0 90 -38t38 -90q0 -54 -38 -92q-38 -36 -90 -36v0zM128 512q-54 0 -92 36q-36 38 -36 92q0 52 36 90q38 38 92 38 q52 0 90 -38t38 -90q0 -54 -38 -92q-38 -36 -90 -36v0zM384 512q-54 0 -92 36q-36 38 -36 92q0 52 36 90q38 38 92 38q52 0 90 -38t38 -90q0 -54 -38 -92q-38 -36 -90 -36v0zM128 768q-54 0 -92 36q-36 38 -36 92q0 52 36 90q38 38 92 38q52 0 90 -38t38 -90q0 -54 -38 -92 q-38 -36 -90 -36v0zM384 768q-54 0 -92 36q-36 38 -36 92q0 52 36 90q38 38 92 38q52 0 90 -38t38 -90q0 -54 -38 -92q-38 -36 -90 -36v0zM640 768q-54 0 -92 36q-36 38 -36 92q0 52 36 90q38 38 92 38q52 0 90 -38t38 -90q0 -54 -38 -92q-38 -36 -90 -36v0zM896 768 q-54 0 -92 36q-36 38 -36 92q0 52 36 90q38 38 92 38q52 0 90 -38t38 -90q0 -54 -38 -92q-38 -36 -90 -36v0zM128 1024q-54 0 -92 36q-36 38 -36 92q0 52 36 90q38 38 92 38q52 0 90 -38t38 -90q0 -54 -38 -92q-38 -36 -90 -36v0zM384 1024q-54 0 -92 36q-36 38 -36 92 q0 52 36 90q38 38 92 38q52 0 90 -38t38 -90q0 -54 -38 -92q-38 -36 -90 -36v0zM128 1280q-54 0 -92 36q-36 38 -36 92q0 52 36 90q38 38 92 38q52 0 90 -38t38 -90q0 -54 -38 -92q-38 -36 -90 -36v0zM384 1280q-54 0 -92 36q-36 38 -36 92q0 52 36 90q38 38 92 38 q52 0 90 -38t38 -90q0 -54 -38 -92q-38 -36 -90 -36v0zM128 1536q-54 0 -92 36q-36 38 -36 92q0 52 36 90q38 38 92 38q52 0 90 -38t38 -90q0 -54 -38 -92q-38 -36 -90 -36v0zM384 1536q-54 0 -92 36q-36 38 -36 92q0 52 36 90q38 38 92 38q52 0 90 -38t38 -90 q0 -54 -38 -92q-38 -36 -90 -36v0zM640 1536q-54 0 -92 36q-36 38 -36 92q0 52 36 90q38 38 92 38q52 0 90 -38t38 -90q0 -54 -38 -92q-38 -36 -90 -36v0zM896 1536q-54 0 -92 36q-36 38 -36 92q0 52 36 90q38 38 92 38q52 0 90 -38t38 -90q0 -54 -38 -92q-38 -36 -90 -36v0 zM1152 1536q-54 0 -92 36q-36 38 -36 92q0 52 36 90q38 38 92 38q52 0 90 -38t38 -90q0 -54 -38 -92q-38 -36 -90 -36v0zM1408 1536q-54 0 -92 36q-36 38 -36 92q0 52 36 90q38 38 92 38q52 0 90 -38t38 -90q0 -54 -38 -92q-38 -36 -90 -36v0z" />
<glyph unicode="g" d="M384 0q-54 0 -92 36q-36 38 -36 92q0 52 36 90q38 38 92 38q52 0 90 -38t38 -90q0 -54 -38 -92q-38 -36 -90 -36v0zM640 0q-54 0 -92 36q-36 38 -36 92q0 52 36 90q38 38 92 38q52 0 90 -38t38 -90q0 -54 -38 -92q-38 -36 -90 -36v0zM896 0q-54 0 -92 36q-36 38 -36 92 q0 52 36 90q38 38 92 38q52 0 90 -38t38 -90q0 -54 -38 -92q-38 -36 -90 -36v0zM1152 0q-54 0 -92 36q-36 38 -36 92q0 52 36 90q38 38 92 38q52 0 90 -38t38 -90q0 -54 -38 -92q-38 -36 -90 -36v0zM128 256q-54 0 -92 36q-36 38 -36 92q0 52 36 90q38 38 92 38q52 0 90 -38 t38 -90q0 -54 -38 -92q-38 -36 -90 -36v0zM384 256q-54 0 -92 36q-36 38 -36 92q0 52 36 90q38 38 92 38q52 0 90 -38t38 -90q0 -54 -38 -92q-38 -36 -90 -36v0zM1152 256q-54 0 -92 36q-36 38 -36 92q0 52 36 90q38 38 92 38q52 0 90 -38t38 -90q0 -54 -38 -92 q-38 -36 -90 -36v0zM1408 256q-54 0 -92 36q-36 38 -36 92q0 52 36 90q38 38 92 38q52 0 90 -38t38 -90q0 -54 -38 -92q-38 -36 -90 -36v0zM128 512q-54 0 -92 36q-36 38 -36 92q0 52 36 90q38 38 92 38q52 0 90 -38t38 -90q0 -54 -38 -92q-38 -36 -90 -36v0zM384 512 q-54 0 -92 36q-36 38 -36 92q0 52 36 90q38 38 92 38q52 0 90 -38t38 -90q0 -54 -38 -92q-38 -36 -90 -36v0zM1152 512q-54 0 -92 36q-36 38 -36 92q0 52 36 90q38 38 92 38q52 0 90 -38t38 -90q0 -54 -38 -92q-38 -36 -90 -36v0zM1408 512q-54 0 -92 36q-36 38 -36 92 q0 52 36 90q38 38 92 38q52 0 90 -38t38 -90q0 -54 -38 -92q-38 -36 -90 -36v0zM128 768q-54 0 -92 36q-36 38 -36 92q0 52 36 90q38 38 92 38q52 0 90 -38t38 -90q0 -54 -38 -92q-38 -36 -90 -36v0zM384 768q-54 0 -92 36q-36 38 -36 92q0 52 36 90q38 38 92 38 q52 0 90 -38t38 -90q0 -54 -38 -92q-38 -36 -90 -36v0zM896 768q-54 0 -92 36q-36 38 -36 92q0 52 36 90q38 38 92 38q52 0 90 -38t38 -90q0 -54 -38 -92q-38 -36 -90 -36v0zM1152 768q-54 0 -92 36q-36 38 -36 92q0 52 36 90q38 38 92 38q52 0 90 -38t38 -90q0 -54 -38 -92 q-38 -36 -90 -36v0zM1408 768q-54 0 -92 36q-36 38 -36 92q0 52 36 90q38 38 92 38q52 0 90 -38t38 -90q0 -54 -38 -92q-38 -36 -90 -36v0zM128 1024q-54 0 -92 36q-36 38 -36 92q0 52 36 90q38 38 92 38q52 0 90 -38t38 -90q0 -54 -38 -92q-38 -36 -90 -36v0zM384 1024 q-54 0 -92 36q-36 38 -36 92q0 52 36 90q38 38 92 38q52 0 90 -38t38 -90q0 -54 -38 -92q-38 -36 -90 -36v0zM128 1280q-54 0 -92 36q-36 38 -36 92q0 52 36 90q38 38 92 38q52 0 90 -38t38 -90q0 -54 -38 -92q-38 -36 -90 -36v0zM384 1280q-54 0 -92 36q-36 38 -36 92 q0 52 36 90q38 38 92 38q52 0 90 -38t38 -90q0 -54 -38 -92q-38 -36 -90 -36v0zM1152 1280q-54 0 -92 36q-36 38 -36 92q0 52 36 90q38 38 92 38q52 0 90 -38t38 -90q0 -54 -38 -92q-38 -36 -90 -36v0zM1408 1280q-54 0 -92 36q-36 38 -36 92q0 52 36 90q38 38 92 38 q52 0 90 -38t38 -90q0 -54 -38 -92q-38 -36 -90 -36v0zM384 1536q-54 0 -92 36q-36 38 -36 92q0 52 36 90q38 38 92 38q52 0 90 -38t38 -90q0 -54 -38 -92q-38 -36 -90 -36v0zM640 1536q-54 0 -92 36q-36 38 -36 92q0 52 36 90q38 38 92 38q52 0 90 -38t38 -90 q0 -54 -38 -92q-38 -36 -90 -36v0zM896 1536q-54 0 -92 36q-36 38 -36 92q0 52 36 90q38 38 92 38q52 0 90 -38t38 -90q0 -54 -38 -92q-38 -36 -90 -36v0zM1152 1536q-54 0 -92 36q-36 38 -36 92q0 52 36 90q38 38 92 38q52 0 90 -38t38 -90q0 -54 -38 -92q-38 -36 -90 -36 v0z" />
<glyph unicode="h" d="M128 0q-54 0 -92 36q-36 38 -36 92q0 52 36 90q38 38 92 38q52 0 90 -38t38 -90q0 -54 -38 -92q-38 -36 -90 -36v0zM384 0q-54 0 -92 36q-36 38 -36 92q0 52 36 90q38 38 92 38q52 0 90 -38t38 -90q0 -54 -38 -92q-38 -36 -90 -36v0zM1152 0q-54 0 -92 36q-36 38 -36 92 q0 52 36 90q38 38 92 38q52 0 90 -38t38 -90q0 -54 -38 -92q-38 -36 -90 -36v0zM1408 0q-54 0 -92 36q-36 38 -36 92q0 52 36 90q38 38 92 38q52 0 90 -38t38 -90q0 -54 -38 -92q-38 -36 -90 -36v0zM128 256q-54 0 -92 36q-36 38 -36 92q0 52 36 90q38 38 92 38q52 0 90 -38 t38 -90q0 -54 -38 -92q-38 -36 -90 -36v0zM384 256q-54 0 -92 36q-36 38 -36 92q0 52 36 90q38 38 92 38q52 0 90 -38t38 -90q0 -54 -38 -92q-38 -36 -90 -36v0zM1152 256q-54 0 -92 36q-36 38 -36 92q0 52 36 90q38 38 92 38q52 0 90 -38t38 -90q0 -54 -38 -92 q-38 -36 -90 -36v0zM1408 256q-54 0 -92 36q-36 38 -36 92q0 52 36 90q38 38 92 38q52 0 90 -38t38 -90q0 -54 -38 -92q-38 -36 -90 -36v0zM128 512q-54 0 -92 36q-36 38 -36 92q0 52 36 90q38 38 92 38q52 0 90 -38t38 -90q0 -54 -38 -92q-38 -36 -90 -36v0zM384 512 q-54 0 -92 36q-36 38 -36 92q0 52 36 90q38 38 92 38q52 0 90 -38t38 -90q0 -54 -38 -92q-38 -36 -90 -36v0zM1152 512q-54 0 -92 36q-36 38 -36 92q0 52 36 90q38 38 92 38q52 0 90 -38t38 -90q0 -54 -38 -92q-38 -36 -90 -36v0zM1408 512q-54 0 -92 36q-36 38 -36 92 q0 52 36 90q38 38 92 38q52 0 90 -38t38 -90q0 -54 -38 -92q-38 -36 -90 -36v0zM128 768q-54 0 -92 36q-36 38 -36 92q0 52 36 90q38 38 92 38q52 0 90 -38t38 -90q0 -54 -38 -92q-38 -36 -90 -36v0zM384 768q-54 0 -92 36q-36 38 -36 92q0 52 36 90q38 38 92 38 q52 0 90 -38t38 -90q0 -54 -38 -92q-38 -36 -90 -36v0zM640 768q-54 0 -92 36q-36 38 -36 92q0 52 36 90q38 38 92 38q52 0 90 -38t38 -90q0 -54 -38 -92q-38 -36 -90 -36v0zM896 768q-54 0 -92 36q-36 38 -36 92q0 52 36 90q38 38 92 38q52 0 90 -38t38 -90q0 -54 -38 -92 q-38 -36 -90 -36v0zM1152 768q-54 0 -92 36q-36 38 -36 92q0 52 36 90q38 38 92 38q52 0 90 -38t38 -90q0 -54 -38 -92q-38 -36 -90 -36v0zM1408 768q-54 0 -92 36q-36 38 -36 92q0 52 36 90q38 38 92 38q52 0 90 -38t38 -90q0 -54 -38 -92q-38 -36 -90 -36v0zM128 1024 q-54 0 -92 36q-36 38 -36 92q0 52 36 90q38 38 92 38q52 0 90 -38t38 -90q0 -54 -38 -92q-38 -36 -90 -36v0zM384 1024q-54 0 -92 36q-36 38 -36 92q0 52 36 90q38 38 92 38q52 0 90 -38t38 -90q0 -54 -38 -92q-38 -36 -90 -36v0zM1152 1024q-54 0 -92 36q-36 38 -36 92 q0 52 36 90q38 38 92 38q52 0 90 -38t38 -90q0 -54 -38 -92q-38 -36 -90 -36v0zM1408 1024q-54 0 -92 36q-36 38 -36 92q0 52 36 90q38 38 92 38q52 0 90 -38t38 -90q0 -54 -38 -92q-38 -36 -90 -36v0zM128 1280q-54 0 -92 36q-36 38 -36 92q0 52 36 90q38 38 92 38 q52 0 90 -38t38 -90q0 -54 -38 -92q-38 -36 -90 -36v0zM384 1280q-54 0 -92 36q-36 38 -36 92q0 52 36 90q38 38 92 38q52 0 90 -38t38 -90q0 -54 -38 -92q-38 -36 -90 -36v0zM1152 1280q-54 0 -92 36q-36 38 -36 92q0 52 36 90q38 38 92 38q52 0 90 -38t38 -90 q0 -54 -38 -92q-38 -36 -90 -36v0zM1408 1280q-54 0 -92 36q-36 38 -36 92q0 52 36 90q38 38 92 38q52 0 90 -38t38 -90q0 -54 -38 -92q-38 -36 -90 -36v0zM128 1536q-54 0 -92 36q-36 38 -36 92q0 52 36 90q38 38 92 38q52 0 90 -38t38 -90q0 -54 -38 -92q-38 -36 -90 -36 v0zM384 1536q-54 0 -92 36q-36 38 -36 92q0 52 36 90q38 38 92 38q52 0 90 -38t38 -90q0 -54 -38 -92q-38 -36 -90 -36v0zM1152 1536q-54 0 -92 36q-36 38 -36 92q0 52 36 90q38 38 92 38q52 0 90 -38t38 -90q0 -54 -38 -92q-38 -36 -90 -36v0zM1408 1536q-54 0 -92 36 q-36 38 -36 92q0 52 36 90q38 38 92 38q52 0 90 -38t38 -90q0 -54 -38 -92q-38 -36 -90 -36v0z" />
<glyph unicode="i" horiz-adv-x="768" d="M128 0q-54 0 -92 36q-36 38 -36 92q0 52 36 90q38 38 92 38q52 0 90 -38t38 -90q0 -54 -38 -92q-38 -36 -90 -36v0zM384 0q-54 0 -92 36q-36 38 -36 92q0 52 36 90q38 38 92 38q52 0 90 -38t38 -90q0 -54 -38 -92q-38 -36 -90 -36v0zM128 256q-54 0 -92 36q-36 38 -36 92 q0 52 36 90q38 38 92 38q52 0 90 -38t38 -90q0 -54 -38 -92q-38 -36 -90 -36v0zM384 256q-54 0 -92 36q-36 38 -36 92q0 52 36 90q38 38 92 38q52 0 90 -38t38 -90q0 -54 -38 -92q-38 -36 -90 -36v0zM128 512q-54 0 -92 36q-36 38 -36 92q0 52 36 90q38 38 92 38 q52 0 90 -38t38 -90q0 -54 -38 -92q-38 -36 -90 -36v0zM384 512q-54 0 -92 36q-36 38 -36 92q0 52 36 90q38 38 92 38q52 0 90 -38t38 -90q0 -54 -38 -92q-38 -36 -90 -36v0zM128 768q-54 0 -92 36q-36 38 -36 92q0 52 36 90q38 38 92 38q52 0 90 -38t38 -90q0 -54 -38 -92 q-38 -36 -90 -36v0zM384 768q-54 0 -92 36q-36 38 -36 92q0 52 36 90q38 38 92 38q52 0 90 -38t38 -90q0 -54 -38 -92q-38 -36 -90 -36v0zM128 1024q-54 0 -92 36q-36 38 -36 92q0 52 36 90q38 38 92 38q52 0 90 -38t38 -90q0 -54 -38 -92q-38 -36 -90 -36v0zM384 1024 q-54 0 -92 36q-36 38 -36 92q0 52 36 90q38 38 92 38q52 0 90 -38t38 -90q0 -54 -38 -92q-38 -36 -90 -36v0zM128 1280q-54 0 -92 36q-36 38 -36 92q0 52 36 90q38 38 92 38q52 0 90 -38t38 -90q0 -54 -38 -92q-38 -36 -90 -36v0zM384 1280q-54 0 -92 36q-36 38 -36 92 q0 52 36 90q38 38 92 38q52 0 90 -38t38 -90q0 -54 -38 -92q-38 -36 -90 -36v0zM128 1536q-54 0 -92 36q-36 38 -36 92q0 52 36 90q38 38 92 38q52 0 90 -38t38 -90q0 -54 -38 -92q-38 -36 -90 -36v0zM384 1536q-54 0 -92 36q-36 38 -36 92q0 52 36 90q38 38 92 38 q52 0 90 -38t38 -90q0 -54 -38 -92q-38 -36 -90 -36v0z" />
<glyph unicode="j" d="M384 0q-54 0 -92 36q-36 38 -36 92q0 52 36 90q38 38 92 38q52 0 90 -38t38 -90q0 -54 -38 -92q-38 -36 -90 -36v0zM640 0q-54 0 -92 36q-36 38 -36 92q0 52 36 90q38 38 92 38q52 0 90 -38t38 -90q0 -54 -38 -92q-38 -36 -90 -36v0zM896 0q-54 0 -92 36q-36 38 -36 92 q0 52 36 90q38 38 92 38q52 0 90 -38t38 -90q0 -54 -38 -92q-38 -36 -90 -36v0zM1152 0q-54 0 -92 36q-36 38 -36 92q0 52 36 90q38 38 92 38q52 0 90 -38t38 -90q0 -54 -38 -92q-38 -36 -90 -36v0zM128 256q-54 0 -92 36q-36 38 -36 92q0 52 36 90q38 38 92 38q52 0 90 -38 t38 -90q0 -54 -38 -92q-38 -36 -90 -36v0zM384 256q-54 0 -92 36q-36 38 -36 92q0 52 36 90q38 38 92 38q52 0 90 -38t38 -90q0 -54 -38 -92q-38 -36 -90 -36v0zM1152 256q-54 0 -92 36q-36 38 -36 92q0 52 36 90q38 38 92 38q52 0 90 -38t38 -90q0 -54 -38 -92 q-38 -36 -90 -36v0zM1408 256q-54 0 -92 36q-36 38 -36 92q0 52 36 90q38 38 92 38q52 0 90 -38t38 -90q0 -54 -38 -92q-38 -36 -90 -36v0zM1152 512q-54 0 -92 36q-36 38 -36 92q0 52 36 90q38 38 92 38q52 0 90 -38t38 -90q0 -54 -38 -92q-38 -36 -90 -36v0zM1408 512 q-54 0 -92 36q-36 38 -36 92q0 52 36 90q38 38 92 38q52 0 90 -38t38 -90q0 -54 -38 -92q-38 -36 -90 -36v0zM1152 768q-54 0 -92 36q-36 38 -36 92q0 52 36 90q38 38 92 38q52 0 90 -38t38 -90q0 -54 -38 -92q-38 -36 -90 -36v0zM1408 768q-54 0 -92 36q-36 38 -36 92 q0 52 36 90q38 38 92 38q52 0 90 -38t38 -90q0 -54 -38 -92q-38 -36 -90 -36v0zM1152 1024q-54 0 -92 36q-36 38 -36 92q0 52 36 90q38 38 92 38q52 0 90 -38t38 -90q0 -54 -38 -92q-38 -36 -90 -36v0zM1408 1024q-54 0 -92 36q-36 38 -36 92q0 52 36 90q38 38 92 38 q52 0 90 -38t38 -90q0 -54 -38 -92q-38 -36 -90 -36v0zM1152 1280q-54 0 -92 36q-36 38 -36 92q0 52 36 90q38 38 92 38q52 0 90 -38t38 -90q0 -54 -38 -92q-38 -36 -90 -36v0zM1408 1280q-54 0 -92 36q-36 38 -36 92q0 52 36 90q38 38 92 38q52 0 90 -38t38 -90 q0 -54 -38 -92q-38 -36 -90 -36v0zM1152 1536q-54 0 -92 36q-36 38 -36 92q0 52 36 90q38 38 92 38q52 0 90 -38t38 -90q0 -54 -38 -92q-38 -36 -90 -36v0zM1408 1536q-54 0 -92 36q-36 38 -36 92q0 52 36 90q38 38 92 38q52 0 90 -38t38 -90q0 -54 -38 -92q-38 -36 -90 -36 v0z" />
<glyph unicode="k" d="M128 0q-54 0 -92 36q-36 38 -36 92q0 52 36 90q38 38 92 38q52 0 90 -38t38 -90q0 -54 -38 -92q-38 -36 -90 -36v0zM384 0q-54 0 -92 36q-36 38 -36 92q0 52 36 90q38 38 92 38q52 0 90 -38t38 -90q0 -54 -38 -92q-38 -36 -90 -36v0zM1152 0q-54 0 -92 36q-36 38 -36 92 q0 52 36 90q38 38 92 38q52 0 90 -38t38 -90q0 -54 -38 -92q-38 -36 -90 -36v0zM1408 0q-54 0 -92 36q-36 38 -36 92q0 52 36 90q38 38 92 38q52 0 90 -38t38 -90q0 -54 -38 -92q-38 -36 -90 -36v0zM128 256q-54 0 -92 36q-36 38 -36 92q0 52 36 90q38 38 92 38q52 0 90 -38 t38 -90q0 -54 -38 -92q-38 -36 -90 -36v0zM384 256q-54 0 -92 36q-36 38 -36 92q0 52 36 90q38 38 92 38q52 0 90 -38t38 -90q0 -54 -38 -92q-38 -36 -90 -36v0zM896 256q-54 0 -92 36q-36 38 -36 92q0 52 36 90q38 38 92 38q52 0 90 -38t38 -90q0 -54 -38 -92 q-38 -36 -90 -36v0zM1152 256q-54 0 -92 36q-36 38 -36 92q0 52 36 90q38 38 92 38q52 0 90 -38t38 -90q0 -54 -38 -92q-38 -36 -90 -36v0zM128 512q-54 0 -92 36q-36 38 -36 92q0 52 36 90q38 38 92 38q52 0 90 -38t38 -90q0 -54 -38 -92q-38 -36 -90 -36v0zM384 512 q-54 0 -92 36q-36 38 -36 92q0 52 36 90q38 38 92 38q52 0 90 -38t38 -90q0 -54 -38 -92q-38 -36 -90 -36v0zM640 512q-54 0 -92 36q-36 38 -36 92q0 52 36 90q38 38 92 38q52 0 90 -38t38 -90q0 -54 -38 -92q-38 -36 -90 -36v0zM896 512q-54 0 -92 36q-36 38 -36 92 q0 52 36 90q38 38 92 38q52 0 90 -38t38 -90q0 -54 -38 -92q-38 -36 -90 -36v0zM128 768q-54 0 -92 36q-36 38 -36 92q0 52 36 90q38 38 92 38q52 0 90 -38t38 -90q0 -54 -38 -92q-38 -36 -90 -36v0zM384 768q-54 0 -92 36q-36 38 -36 92q0 52 36 90q38 38 92 38 q52 0 90 -38t38 -90q0 -54 -38 -92q-38 -36 -90 -36v0zM640 768q-54 0 -92 36q-36 38 -36 92q0 52 36 90q38 38 92 38q52 0 90 -38t38 -90q0 -54 -38 -92q-38 -36 -90 -36v0zM128 1024q-54 0 -92 36q-36 38 -36 92q0 52 36 90q38 38 92 38q52 0 90 -38t38 -90q0 -54 -38 -92 q-38 -36 -90 -36v0zM384 1024q-54 0 -92 36q-36 38 -36 92q0 52 36 90q38 38 92 38q52 0 90 -38t38 -90q0 -54 -38 -92q-38 -36 -90 -36v0zM640 1024q-54 0 -92 36q-36 38 -36 92q0 52 36 90q38 38 92 38q52 0 90 -38t38 -90q0 -54 -38 -92q-38 -36 -90 -36v0zM896 1024 q-54 0 -92 36q-36 38 -36 92q0 52 36 90q38 38 92 38q52 0 90 -38t38 -90q0 -54 -38 -92q-38 -36 -90 -36v0zM128 1280q-54 0 -92 36q-36 38 -36 92q0 52 36 90q38 38 92 38q52 0 90 -38t38 -90q0 -54 -38 -92q-38 -36 -90 -36v0zM384 1280q-54 0 -92 36q-36 38 -36 92 q0 52 36 90q38 38 92 38q52 0 90 -38t38 -90q0 -54 -38 -92q-38 -36 -90 -36v0zM896 1280q-54 0 -92 36q-36 38 -36 92q0 52 36 90q38 38 92 38q52 0 90 -38t38 -90q0 -54 -38 -92q-38 -36 -90 -36v0zM1152 1280q-54 0 -92 36q-36 38 -36 92q0 52 36 90q38 38 92 38 q52 0 90 -38t38 -90q0 -54 -38 -92q-38 -36 -90 -36v0zM128 1536q-54 0 -92 36q-36 38 -36 92q0 52 36 90q38 38 92 38q52 0 90 -38t38 -90q0 -54 -38 -92q-38 -36 -90 -36v0zM384 1536q-54 0 -92 36q-36 38 -36 92q0 52 36 90q38 38 92 38q52 0 90 -38t38 -90 q0 -54 -38 -92q-38 -36 -90 -36v0zM1152 1536q-54 0 -92 36q-36 38 -36 92q0 52 36 90q38 38 92 38q52 0 90 -38t38 -90q0 -54 -38 -92q-38 -36 -90 -36v0zM1408 1536q-54 0 -92 36q-36 38 -36 92q0 52 36 90q38 38 92 38q52 0 90 -38t38 -90q0 -54 -38 -92q-38 -36 -90 -36 v0z" />
<glyph unicode="l" d="M128 0q-54 0 -92 36q-36 38 -36 92q0 52 36 90q38 38 92 38q52 0 90 -38t38 -90q0 -54 -38 -92q-38 -36 -90 -36v0zM384 0q-54 0 -92 36q-36 38 -36 92q0 52 36 90q38 38 92 38q52 0 90 -38t38 -90q0 -54 -38 -92q-38 -36 -90 -36v0zM640 0q-54 0 -92 36q-36 38 -36 92 q0 52 36 90q38 38 92 38q52 0 90 -38t38 -90q0 -54 -38 -92q-38 -36 -90 -36v0zM896 0q-54 0 -92 36q-36 38 -36 92q0 52 36 90q38 38 92 38q52 0 90 -38t38 -90q0 -54 -38 -92q-38 -36 -90 -36v0zM1152 0q-54 0 -92 36q-36 38 -36 92q0 52 36 90q38 38 92 38q52 0 90 -38 t38 -90q0 -54 -38 -92q-38 -36 -90 -36v0zM1408 0q-54 0 -92 36q-36 38 -36 92q0 52 36 90q38 38 92 38q52 0 90 -38t38 -90q0 -54 -38 -92q-38 -36 -90 -36v0zM128 256q-54 0 -92 36q-36 38 -36 92q0 52 36 90q38 38 92 38q52 0 90 -38t38 -90q0 -54 -38 -92 q-38 -36 -90 -36v0zM384 256q-54 0 -92 36q-36 38 -36 92q0 52 36 90q38 38 92 38q52 0 90 -38t38 -90q0 -54 -38 -92q-38 -36 -90 -36v0zM128 512q-54 0 -92 36q-36 38 -36 92q0 52 36 90q38 38 92 38q52 0 90 -38t38 -90q0 -54 -38 -92q-38 -36 -90 -36v0zM384 512 q-54 0 -92 36q-36 38 -36 92q0 52 36 90q38 38 92 38q52 0 90 -38t38 -90q0 -54 -38 -92q-38 -36 -90 -36v0zM128 768q-54 0 -92 36q-36 38 -36 92q0 52 36 90q38 38 92 38q52 0 90 -38t38 -90q0 -54 -38 -92q-38 -36 -90 -36v0zM384 768q-54 0 -92 36q-36 38 -36 92 q0 52 36 90q38 38 92 38q52 0 90 -38t38 -90q0 -54 -38 -92q-38 -36 -90 -36v0zM128 1024q-54 0 -92 36q-36 38 -36 92q0 52 36 90q38 38 92 38q52 0 90 -38t38 -90q0 -54 -38 -92q-38 -36 -90 -36v0zM384 1024q-54 0 -92 36q-36 38 -36 92q0 52 36 90q38 38 92 38 q52 0 90 -38t38 -90q0 -54 -38 -92q-38 -36 -90 -36v0zM128 1280q-54 0 -92 36q-36 38 -36 92q0 52 36 90q38 38 92 38q52 0 90 -38t38 -90q0 -54 -38 -92q-38 -36 -90 -36v0zM384 1280q-54 0 -92 36q-36 38 -36 92q0 52 36 90q38 38 92 38q52 0 90 -38t38 -90 q0 -54 -38 -92q-38 -36 -90 -36v0zM128 1536q-54 0 -92 36q-36 38 -36 92q0 52 36 90q38 38 92 38q52 0 90 -38t38 -90q0 -54 -38 -92q-38 -36 -90 -36v0zM384 1536q-54 0 -92 36q-36 38 -36 92q0 52 36 90q38 38 92 38q52 0 90 -38t38 -90q0 -54 -38 -92q-38 -36 -90 -36v0 z" />
<glyph unicode="m" horiz-adv-x="2048" d="M128 0q-54 0 -92 36q-36 38 -36 92q0 52 36 90q38 38 92 38q52 0 90 -38t38 -90q0 -54 -38 -92q-38 -36 -90 -36v0zM384 0q-54 0 -92 36q-36 38 -36 92q0 52 36 90q38 38 92 38q52 0 90 -38t38 -90q0 -54 -38 -92q-38 -36 -90 -36v0zM1408 0q-54 0 -92 36q-36 38 -36 92 q0 52 36 90q38 38 92 38q52 0 90 -38t38 -90q0 -54 -38 -92q-38 -36 -90 -36v0zM1664 0q-54 0 -92 36q-36 38 -36 92q0 52 36 90q38 38 92 38q52 0 90 -38t38 -90q0 -54 -38 -92q-38 -36 -90 -36v0zM128 256q-54 0 -92 36q-36 38 -36 92q0 52 36 90q38 38 92 38q52 0 90 -38 t38 -90q0 -54 -38 -92q-38 -36 -90 -36v0zM384 256q-54 0 -92 36q-36 38 -36 92q0 52 36 90q38 38 92 38q52 0 90 -38t38 -90q0 -54 -38 -92q-38 -36 -90 -36v0zM1408 256q-54 0 -92 36q-36 38 -36 92q0 52 36 90q38 38 92 38q52 0 90 -38t38 -90q0 -54 -38 -92 q-38 -36 -90 -36v0zM1664 256q-54 0 -92 36q-36 38 -36 92q0 52 36 90q38 38 92 38q52 0 90 -38t38 -90q0 -54 -38 -92q-38 -36 -90 -36v0zM128 512q-54 0 -92 36q-36 38 -36 92q0 52 36 90q38 38 92 38q52 0 90 -38t38 -90q0 -54 -38 -92q-38 -36 -90 -36v0zM384 512 q-54 0 -92 36q-36 38 -36 92q0 52 36 90q38 38 92 38q52 0 90 -38t38 -90q0 -54 -38 -92q-38 -36 -90 -36v0zM1408 512q-54 0 -92 36q-36 38 -36 92q0 52 36 90q38 38 92 38q52 0 90 -38t38 -90q0 -54 -38 -92q-38 -36 -90 -36v0zM1664 512q-54 0 -92 36q-36 38 -36 92 q0 52 36 90q38 38 92 38q52 0 90 -38t38 -90q0 -54 -38 -92q-38 -36 -90 -36v0zM128 768q-54 0 -92 36q-36 38 -36 92q0 52 36 90q38 38 92 38q52 0 90 -38t38 -90q0 -54 -38 -92q-38 -36 -90 -36v0zM384 768q-54 0 -92 36q-36 38 -36 92q0 52 36 90q38 38 92 38 q52 0 90 -38t38 -90q0 -54 -38 -92q-38 -36 -90 -36v0zM896 768q-54 0 -92 36q-36 38 -36 92q0 52 36 90q38 38 92 38q52 0 90 -38t38 -90q0 -54 -38 -92q-38 -36 -90 -36v0zM1408 768q-54 0 -92 36q-36 38 -36 92q0 52 36 90q38 38 92 38q52 0 90 -38t38 -90q0 -54 -38 -92 q-38 -36 -90 -36v0zM1664 768q-54 0 -92 36q-36 38 -36 92q0 52 36 90q38 38 92 38q52 0 90 -38t38 -90q0 -54 -38 -92q-38 -36 -90 -36v0zM128 1024q-54 0 -92 36q-36 38 -36 92q0 52 36 90q38 38 92 38q52 0 90 -38t38 -90q0 -54 -38 -92q-38 -36 -90 -36v0zM384 1024 q-54 0 -92 36q-36 38 -36 92q0 52 36 90q38 38 92 38q52 0 90 -38t38 -90q0 -54 -38 -92q-38 -36 -90 -36v0zM640 1024q-54 0 -92 36q-36 38 -36 92q0 52 36 90q38 38 92 38q52 0 90 -38t38 -90q0 -54 -38 -92q-38 -36 -90 -36v0zM896 1024q-54 0 -92 36q-36 38 -36 92 q0 52 36 90q38 38 92 38q52 0 90 -38t38 -90q0 -54 -38 -92q-38 -36 -90 -36v0zM1152 1024q-54 0 -92 36q-36 38 -36 92q0 52 36 90q38 38 92 38q52 0 90 -38t38 -90q0 -54 -38 -92q-38 -36 -90 -36v0zM1408 1024q-54 0 -92 36q-36 38 -36 92q0 52 36 90q38 38 92 38 q52 0 90 -38t38 -90q0 -54 -38 -92q-38 -36 -90 -36v0zM1664 1024q-54 0 -92 36q-36 38 -36 92q0 52 36 90q38 38 92 38q52 0 90 -38t38 -90q0 -54 -38 -92q-38 -36 -90 -36v0zM128 1280q-54 0 -92 36q-36 38 -36 92q0 52 36 90q38 38 92 38q52 0 90 -38t38 -90 q0 -54 -38 -92q-38 -36 -90 -36v0zM384 1280q-54 0 -92 36q-36 38 -36 92q0 52 36 90q38 38 92 38q52 0 90 -38t38 -90q0 -54 -38 -92q-38 -36 -90 -36v0zM640 1280q-54 0 -92 36q-36 38 -36 92q0 52 36 90q38 38 92 38q52 0 90 -38t38 -90q0 -54 -38 -92q-38 -36 -90 -36v0 zM1152 1280q-54 0 -92 36q-36 38 -36 92q0 52 36 90q38 38 92 38q52 0 90 -38t38 -90q0 -54 -38 -92q-38 -36 -90 -36v0zM1408 1280q-54 0 -92 36q-36 38 -36 92q0 52 36 90q38 38 92 38q52 0 90 -38t38 -90q0 -54 -38 -92q-38 -36 -90 -36v0zM1664 1280q-54 0 -92 36 q-36 38 -36 92q0 52 36 90q38 38 92 38q52 0 90 -38t38 -90q0 -54 -38 -92q-38 -36 -90 -36v0zM128 1536q-54 0 -92 36q-36 38 -36 92q0 52 36 90q38 38 92 38q52 0 90 -38t38 -90q0 -54 -38 -92q-38 -36 -90 -36v0zM384 1536q-54 0 -92 36q-36 38 -36 92q0 52 36 90 q38 38 92 38q52 0 90 -38t38 -90q0 -54 -38 -92q-38 -36 -90 -36v0zM1408 1536q-54 0 -92 36q-36 38 -36 92q0 52 36 90q38 38 92 38q52 0 90 -38t38 -90q0 -54 -38 -92q-38 -36 -90 -36v0zM1664 1536q-54 0 -92 36q-36 38 -36 92q0 52 36 90q38 38 92 38q52 0 90 -38 t38 -90q0 -54 -38 -92q-38 -36 -90 -36v0z" />
<glyph unicode="n" d="M128 0q-54 0 -92 36q-36 38 -36 92q0 52 36 90q38 38 92 38q52 0 90 -38t38 -90q0 -54 -38 -92q-38 -36 -90 -36v0zM384 0q-54 0 -92 36q-36 38 -36 92q0 52 36 90q38 38 92 38q52 0 90 -38t38 -90q0 -54 -38 -92q-38 -36 -90 -36v0zM1152 0q-54 0 -92 36q-36 38 -36 92 q0 52 36 90q38 38 92 38q52 0 90 -38t38 -90q0 -54 -38 -92q-38 -36 -90 -36v0zM1408 0q-54 0 -92 36q-36 38 -36 92q0 52 36 90q38 38 92 38q52 0 90 -38t38 -90q0 -54 -38 -92q-38 -36 -90 -36v0zM128 256q-54 0 -92 36q-36 38 -36 92q0 52 36 90q38 38 92 38q52 0 90 -38 t38 -90q0 -54 -38 -92q-38 -36 -90 -36v0zM384 256q-54 0 -92 36q-36 38 -36 92q0 52 36 90q38 38 92 38q52 0 90 -38t38 -90q0 -54 -38 -92q-38 -36 -90 -36v0zM1152 256q-54 0 -92 36q-36 38 -36 92q0 52 36 90q38 38 92 38q52 0 90 -38t38 -90q0 -54 -38 -92 q-38 -36 -90 -36v0zM1408 256q-54 0 -92 36q-36 38 -36 92q0 52 36 90q38 38 92 38q52 0 90 -38t38 -90q0 -54 -38 -92q-38 -36 -90 -36v0zM128 512q-54 0 -92 36q-36 38 -36 92q0 52 36 90q38 38 92 38q52 0 90 -38t38 -90q0 -54 -38 -92q-38 -36 -90 -36v0zM384 512 q-54 0 -92 36q-36 38 -36 92q0 52 36 90q38 38 92 38q52 0 90 -38t38 -90q0 -54 -38 -92q-38 -36 -90 -36v0zM1152 512q-54 0 -92 36q-36 38 -36 92q0 52 36 90q38 38 92 38q52 0 90 -38t38 -90q0 -54 -38 -92q-38 -36 -90 -36v0zM1408 512q-54 0 -92 36q-36 38 -36 92 q0 52 36 90q38 38 92 38q52 0 90 -38t38 -90q0 -54 -38 -92q-38 -36 -90 -36v0zM128 768q-54 0 -92 36q-36 38 -36 92q0 52 36 90q38 38 92 38q52 0 90 -38t38 -90q0 -54 -38 -92q-38 -36 -90 -36v0zM384 768q-54 0 -92 36q-36 38 -36 92q0 52 36 90q38 38 92 38 q52 0 90 -38t38 -90q0 -54 -38 -92q-38 -36 -90 -36v0zM896 768q-54 0 -92 36q-36 38 -36 92q0 52 36 90q38 38 92 38q52 0 90 -38t38 -90q0 -54 -38 -92q-38 -36 -90 -36v0zM1152 768q-54 0 -92 36q-36 38 -36 92q0 52 36 90q38 38 92 38q52 0 90 -38t38 -90q0 -54 -38 -92 q-38 -36 -90 -36v0zM1408 768q-54 0 -92 36q-36 38 -36 92q0 52 36 90q38 38 92 38q52 0 90 -38t38 -90q0 -54 -38 -92q-38 -36 -90 -36v0zM128 1024q-54 0 -92 36q-36 38 -36 92q0 52 36 90q38 38 92 38q52 0 90 -38t38 -90q0 -54 -38 -92q-38 -36 -90 -36v0zM384 1024 q-54 0 -92 36q-36 38 -36 92q0 52 36 90q38 38 92 38q52 0 90 -38t38 -90q0 -54 -38 -92q-38 -36 -90 -36v0zM640 1024q-54 0 -92 36q-36 38 -36 92q0 52 36 90q38 38 92 38q52 0 90 -38t38 -90q0 -54 -38 -92q-38 -36 -90 -36v0zM896 1024q-54 0 -92 36q-36 38 -36 92 q0 52 36 90q38 38 92 38q52 0 90 -38t38 -90q0 -54 -38 -92q-38 -36 -90 -36v0zM1152 1024q-54 0 -92 36q-36 38 -36 92q0 52 36 90q38 38 92 38q52 0 90 -38t38 -90q0 -54 -38 -92q-38 -36 -90 -36v0zM1408 1024q-54 0 -92 36q-36 38 -36 92q0 52 36 90q38 38 92 38 q52 0 90 -38t38 -90q0 -54 -38 -92q-38 -36 -90 -36v0zM128 1280q-54 0 -92 36q-36 38 -36 92q0 52 36 90q38 38 92 38q52 0 90 -38t38 -90q0 -54 -38 -92q-38 -36 -90 -36v0zM384 1280q-54 0 -92 36q-36 38 -36 92q0 52 36 90q38 38 92 38q52 0 90 -38t38 -90 q0 -54 -38 -92q-38 -36 -90 -36v0zM640 1280q-54 0 -92 36q-36 38 -36 92q0 52 36 90q38 38 92 38q52 0 90 -38t38 -90q0 -54 -38 -92q-38 -36 -90 -36v0zM1152 1280q-54 0 -92 36q-36 38 -36 92q0 52 36 90q38 38 92 38q52 0 90 -38t38 -90q0 -54 -38 -92q-38 -36 -90 -36 v0zM1408 1280q-54 0 -92 36q-36 38 -36 92q0 52 36 90q38 38 92 38q52 0 90 -38t38 -90q0 -54 -38 -92q-38 -36 -90 -36v0zM128 1536q-54 0 -92 36q-36 38 -36 92q0 52 36 90q38 38 92 38q52 0 90 -38t38 -90q0 -54 -38 -92q-38 -36 -90 -36v0zM384 1536q-54 0 -92 36 q-36 38 -36 92q0 52 36 90q38 38 92 38q52 0 90 -38t38 -90q0 -54 -38 -92q-38 -36 -90 -36v0zM1152 1536q-54 0 -92 36q-36 38 -36 92q0 52 36 90q38 38 92 38q52 0 90 -38t38 -90q0 -54 -38 -92q-38 -36 -90 -36v0zM1408 1536q-54 0 -92 36q-36 38 -36 92q0 52 36 90 q38 38 92 38q52 0 90 -38t38 -90q0 -54 -38 -92q-38 -36 -90 -36v0z" />
<glyph unicode="o" d="M384 0q-54 0 -92 36q-36 38 -36 92q0 52 36 90q38 38 92 38q52 0 90 -38t38 -90q0 -54 -38 -92q-38 -36 -90 -36v0zM640 0q-54 0 -92 36q-36 38 -36 92q0 52 36 90q38 38 92 38q52 0 90 -38t38 -90q0 -54 -38 -92q-38 -36 -90 -36v0zM896 0q-54 0 -92 36q-36 38 -36 92 q0 52 36 90q38 38 92 38q52 0 90 -38t38 -90q0 -54 -38 -92q-38 -36 -90 -36v0zM1152 0q-54 0 -92 36q-36 38 -36 92q0 52 36 90q38 38 92 38q52 0 90 -38t38 -90q0 -54 -38 -92q-38 -36 -90 -36v0zM128 256q-54 0 -92 36q-36 38 -36 92q0 52 36 90q38 38 92 38q52 0 90 -38 t38 -90q0 -54 -38 -92q-38 -36 -90 -36v0zM384 256q-54 0 -92 36q-36 38 -36 92q0 52 36 90q38 38 92 38q52 0 90 -38t38 -90q0 -54 -38 -92q-38 -36 -90 -36v0zM1152 256q-54 0 -92 36q-36 38 -36 92q0 52 36 90q38 38 92 38q52 0 90 -38t38 -90q0 -54 -38 -92 q-38 -36 -90 -36v0zM1408 256q-54 0 -92 36q-36 38 -36 92q0 52 36 90q38 38 92 38q52 0 90 -38t38 -90q0 -54 -38 -92q-38 -36 -90 -36v0zM128 512q-54 0 -92 36q-36 38 -36 92q0 52 36 90q38 38 92 38q52 0 90 -38t38 -90q0 -54 -38 -92q-38 -36 -90 -36v0zM384 512 q-54 0 -92 36q-36 38 -36 92q0 52 36 90q38 38 92 38q52 0 90 -38t38 -90q0 -54 -38 -92q-38 -36 -90 -36v0zM1152 512q-54 0 -92 36q-36 38 -36 92q0 52 36 90q38 38 92 38q52 0 90 -38t38 -90q0 -54 -38 -92q-38 -36 -90 -36v0zM1408 512q-54 0 -92 36q-36 38 -36 92 q0 52 36 90q38 38 92 38q52 0 90 -38t38 -90q0 -54 -38 -92q-38 -36 -90 -36v0zM128 768q-54 0 -92 36q-36 38 -36 92q0 52 36 90q38 38 92 38q52 0 90 -38t38 -90q0 -54 -38 -92q-38 -36 -90 -36v0zM384 768q-54 0 -92 36q-36 38 -36 92q0 52 36 90q38 38 92 38 q52 0 90 -38t38 -90q0 -54 -38 -92q-38 -36 -90 -36v0zM1152 768q-54 0 -92 36q-36 38 -36 92q0 52 36 90q38 38 92 38q52 0 90 -38t38 -90q0 -54 -38 -92q-38 -36 -90 -36v0zM1408 768q-54 0 -92 36q-36 38 -36 92q0 52 36 90q38 38 92 38q52 0 90 -38t38 -90 q0 -54 -38 -92q-38 -36 -90 -36v0zM128 1024q-54 0 -92 36q-36 38 -36 92q0 52 36 90q38 38 92 38q52 0 90 -38t38 -90q0 -54 -38 -92q-38 -36 -90 -36v0zM384 1024q-54 0 -92 36q-36 38 -36 92q0 52 36 90q38 38 92 38q52 0 90 -38t38 -90q0 -54 -38 -92q-38 -36 -90 -36v0 zM1152 1024q-54 0 -92 36q-36 38 -36 92q0 52 36 90q38 38 92 38q52 0 90 -38t38 -90q0 -54 -38 -92q-38 -36 -90 -36v0zM1408 1024q-54 0 -92 36q-36 38 -36 92q0 52 36 90q38 38 92 38q52 0 90 -38t38 -90q0 -54 -38 -92q-38 -36 -90 -36v0zM128 1280q-54 0 -92 36 q-36 38 -36 92q0 52 36 90q38 38 92 38q52 0 90 -38t38 -90q0 -54 -38 -92q-38 -36 -90 -36v0zM384 1280q-54 0 -92 36q-36 38 -36 92q0 52 36 90q38 38 92 38q52 0 90 -38t38 -90q0 -54 -38 -92q-38 -36 -90 -36v0zM1152 1280q-54 0 -92 36q-36 38 -36 92q0 52 36 90 q38 38 92 38q52 0 90 -38t38 -90q0 -54 -38 -92q-38 -36 -90 -36v0zM1408 1280q-54 0 -92 36q-36 38 -36 92q0 52 36 90q38 38 92 38q52 0 90 -38t38 -90q0 -54 -38 -92q-38 -36 -90 -36v0zM384 1536q-54 0 -92 36q-36 38 -36 92q0 52 36 90q38 38 92 38q52 0 90 -38t38 -90 q0 -54 -38 -92q-38 -36 -90 -36v0zM640 1536q-54 0 -92 36q-36 38 -36 92q0 52 36 90q38 38 92 38q52 0 90 -38t38 -90q0 -54 -38 -92q-38 -36 -90 -36v0zM896 1536q-54 0 -92 36q-36 38 -36 92q0 52 36 90q38 38 92 38q52 0 90 -38t38 -90q0 -54 -38 -92q-38 -36 -90 -36v0 zM1152 1536q-54 0 -92 36q-36 38 -36 92q0 52 36 90q38 38 92 38q52 0 90 -38t38 -90q0 -54 -38 -92q-38 -36 -90 -36v0z" />
<glyph unicode="p" d="M128 0q-54 0 -92 36q-36 38 -36 92q0 52 36 90q38 38 92 38q52 0 90 -38t38 -90q0 -54 -38 -92q-38 -36 -90 -36v0zM384 0q-54 0 -92 36q-36 38 -36 92q0 52 36 90q38 38 92 38q52 0 90 -38t38 -90q0 -54 -38 -92q-38 -36 -90 -36v0zM128 256q-54 0 -92 36q-36 38 -36 92 q0 52 36 90q38 38 92 38q52 0 90 -38t38 -90q0 -54 -38 -92q-38 -36 -90 -36v0zM384 256q-54 0 -92 36q-36 38 -36 92q0 52 36 90q38 38 92 38q52 0 90 -38t38 -90q0 -54 -38 -92q-38 -36 -90 -36v0zM128 512q-54 0 -92 36q-36 38 -36 92q0 52 36 90q38 38 92 38 q52 0 90 -38t38 -90q0 -54 -38 -92q-38 -36 -90 -36v0zM384 512q-54 0 -92 36q-36 38 -36 92q0 52 36 90q38 38 92 38q52 0 90 -38t38 -90q0 -54 -38 -92q-38 -36 -90 -36v0zM128 768q-54 0 -92 36q-36 38 -36 92q0 52 36 90q38 38 92 38q52 0 90 -38t38 -90q0 -54 -38 -92 q-38 -36 -90 -36v0zM384 768q-54 0 -92 36q-36 38 -36 92q0 52 36 90q38 38 92 38q52 0 90 -38t38 -90q0 -54 -38 -92q-38 -36 -90 -36v0zM640 768q-54 0 -92 36q-36 38 -36 92q0 52 36 90q38 38 92 38q52 0 90 -38t38 -90q0 -54 -38 -92q-38 -36 -90 -36v0zM896 768 q-54 0 -92 36q-36 38 -36 92q0 52 36 90q38 38 92 38q52 0 90 -38t38 -90q0 -54 -38 -92q-38 -36 -90 -36v0zM1152 768q-54 0 -92 36q-36 38 -36 92q0 52 36 90q38 38 92 38q52 0 90 -38t38 -90q0 -54 -38 -92q-38 -36 -90 -36v0zM128 1024q-54 0 -92 36q-36 38 -36 92 q0 52 36 90q38 38 92 38q52 0 90 -38t38 -90q0 -54 -38 -92q-38 -36 -90 -36v0zM384 1024q-54 0 -92 36q-36 38 -36 92q0 52 36 90q38 38 92 38q52 0 90 -38t38 -90q0 -54 -38 -92q-38 -36 -90 -36v0zM1152 1024q-54 0 -92 36q-36 38 -36 92q0 52 36 90q38 38 92 38 q52 0 90 -38t38 -90q0 -54 -38 -92q-38 -36 -90 -36v0zM1408 1024q-54 0 -92 36q-36 38 -36 92q0 52 36 90q38 38 92 38q52 0 90 -38t38 -90q0 -54 -38 -92q-38 -36 -90 -36v0zM128 1280q-54 0 -92 36q-36 38 -36 92q0 52 36 90q38 38 92 38q52 0 90 -38t38 -90 q0 -54 -38 -92q-38 -36 -90 -36v0zM384 1280q-54 0 -92 36q-36 38 -36 92q0 52 36 90q38 38 92 38q52 0 90 -38t38 -90q0 -54 -38 -92q-38 -36 -90 -36v0zM1152 1280q-54 0 -92 36q-36 38 -36 92q0 52 36 90q38 38 92 38q52 0 90 -38t38 -90q0 -54 -38 -92q-38 -36 -90 -36 v0zM1408 1280q-54 0 -92 36q-36 38 -36 92q0 52 36 90q38 38 92 38q52 0 90 -38t38 -90q0 -54 -38 -92q-38 -36 -90 -36v0zM128 1536q-54 0 -92 36q-36 38 -36 92q0 52 36 90q38 38 92 38q52 0 90 -38t38 -90q0 -54 -38 -92q-38 -36 -90 -36v0zM384 1536q-54 0 -92 36 q-36 38 -36 92q0 52 36 90q38 38 92 38q52 0 90 -38t38 -90q0 -54 -38 -92q-38 -36 -90 -36v0zM640 1536q-54 0 -92 36q-36 38 -36 92q0 52 36 90q38 38 92 38q52 0 90 -38t38 -90q0 -54 -38 -92q-38 -36 -90 -36v0zM896 1536q-54 0 -92 36q-36 38 -36 92q0 52 36 90 q38 38 92 38q52 0 90 -38t38 -90q0 -54 -38 -92q-38 -36 -90 -36v0zM1152 1536q-54 0 -92 36q-36 38 -36 92q0 52 36 90q38 38 92 38q52 0 90 -38t38 -90q0 -54 -38 -92q-38 -36 -90 -36v0z" />
<glyph unicode="q" d="M384 0q-54 0 -92 36q-36 38 -36 92q0 52 36 90q38 38 92 38q52 0 90 -38t38 -90q0 -54 -38 -92q-38 -36 -90 -36v0zM640 0q-54 0 -92 36q-36 38 -36 92q0 52 36 90q38 38 92 38q52 0 90 -38t38 -90q0 -54 -38 -92q-38 -36 -90 -36v0zM1152 0q-54 0 -92 36q-36 38 -36 92 q0 52 36 90q38 38 92 38q52 0 90 -38t38 -90q0 -54 -38 -92q-38 -36 -90 -36v0zM1408 0q-54 0 -92 36q-36 38 -36 92q0 52 36 90q38 38 92 38q52 0 90 -38t38 -90q0 -54 -38 -92q-38 -36 -90 -36v0zM128 256q-54 0 -92 36q-36 38 -36 92q0 52 36 90q38 38 92 38q52 0 90 -38 t38 -90q0 -54 -38 -92q-38 -36 -90 -36v0zM384 256q-54 0 -92 36q-36 38 -36 92q0 52 36 90q38 38 92 38q52 0 90 -38t38 -90q0 -54 -38 -92q-38 -36 -90 -36v0zM896 256q-54 0 -92 36q-36 38 -36 92q0 52 36 90q38 38 92 38q52 0 90 -38t38 -90q0 -54 -38 -92 q-38 -36 -90 -36v0zM1152 256q-54 0 -92 36q-36 38 -36 92q0 52 36 90q38 38 92 38q52 0 90 -38t38 -90q0 -54 -38 -92q-38 -36 -90 -36v0zM128 512q-54 0 -92 36q-36 38 -36 92q0 52 36 90q38 38 92 38q52 0 90 -38t38 -90q0 -54 -38 -92q-38 -36 -90 -36v0zM384 512 q-54 0 -92 36q-36 38 -36 92q0 52 36 90q38 38 92 38q52 0 90 -38t38 -90q0 -54 -38 -92q-38 -36 -90 -36v0zM1152 512q-54 0 -92 36q-36 38 -36 92q0 52 36 90q38 38 92 38q52 0 90 -38t38 -90q0 -54 -38 -92q-38 -36 -90 -36v0zM1408 512q-54 0 -92 36q-36 38 -36 92 q0 52 36 90q38 38 92 38q52 0 90 -38t38 -90q0 -54 -38 -92q-38 -36 -90 -36v0zM128 768q-54 0 -92 36q-36 38 -36 92q0 52 36 90q38 38 92 38q52 0 90 -38t38 -90q0 -54 -38 -92q-38 -36 -90 -36v0zM384 768q-54 0 -92 36q-36 38 -36 92q0 52 36 90q38 38 92 38 q52 0 90 -38t38 -90q0 -54 -38 -92q-38 -36 -90 -36v0zM1152 768q-54 0 -92 36q-36 38 -36 92q0 52 36 90q38 38 92 38q52 0 90 -38t38 -90q0 -54 -38 -92q-38 -36 -90 -36v0zM1408 768q-54 0 -92 36q-36 38 -36 92q0 52 36 90q38 38 92 38q52 0 90 -38t38 -90 q0 -54 -38 -92q-38 -36 -90 -36v0zM128 1024q-54 0 -92 36q-36 38 -36 92q0 52 36 90q38 38 92 38q52 0 90 -38t38 -90q0 -54 -38 -92q-38 -36 -90 -36v0zM384 1024q-54 0 -92 36q-36 38 -36 92q0 52 36 90q38 38 92 38q52 0 90 -38t38 -90q0 -54 -38 -92q-38 -36 -90 -36v0 zM1152 1024q-54 0 -92 36q-36 38 -36 92q0 52 36 90q38 38 92 38q52 0 90 -38t38 -90q0 -54 -38 -92q-38 -36 -90 -36v0zM1408 1024q-54 0 -92 36q-36 38 -36 92q0 52 36 90q38 38 92 38q52 0 90 -38t38 -90q0 -54 -38 -92q-38 -36 -90 -36v0zM128 1280q-54 0 -92 36 q-36 38 -36 92q0 52 36 90q38 38 92 38q52 0 90 -38t38 -90q0 -54 -38 -92q-38 -36 -90 -36v0zM384 1280q-54 0 -92 36q-36 38 -36 92q0 52 36 90q38 38 92 38q52 0 90 -38t38 -90q0 -54 -38 -92q-38 -36 -90 -36v0zM1152 1280q-54 0 -92 36q-36 38 -36 92q0 52 36 90 q38 38 92 38q52 0 90 -38t38 -90q0 -54 -38 -92q-38 -36 -90 -36v0zM1408 1280q-54 0 -92 36q-36 38 -36 92q0 52 36 90q38 38 92 38q52 0 90 -38t38 -90q0 -54 -38 -92q-38 -36 -90 -36v0zM384 1536q-54 0 -92 36q-36 38 -36 92q0 52 36 90q38 38 92 38q52 0 90 -38t38 -90 q0 -54 -38 -92q-38 -36 -90 -36v0zM640 1536q-54 0 -92 36q-36 38 -36 92q0 52 36 90q38 38 92 38q52 0 90 -38t38 -90q0 -54 -38 -92q-38 -36 -90 -36v0zM896 1536q-54 0 -92 36q-36 38 -36 92q0 52 36 90q38 38 92 38q52 0 90 -38t38 -90q0 -54 -38 -92q-38 -36 -90 -36v0 zM1152 1536q-54 0 -92 36q-36 38 -36 92q0 52 36 90q38 38 92 38q52 0 90 -38t38 -90q0 -54 -38 -92q-38 -36 -90 -36v0z" />
<glyph unicode="r" d="M128 0q-54 0 -92 36q-36 38 -36 92q0 52 36 90q38 38 92 38q52 0 90 -38t38 -90q0 -54 -38 -92q-38 -36 -90 -36v0zM384 0q-54 0 -92 36q-36 38 -36 92q0 52 36 90q38 38 92 38q52 0 90 -38t38 -90q0 -54 -38 -92q-38 -36 -90 -36v0zM1152 0q-54 0 -92 36q-36 38 -36 92 q0 52 36 90q38 38 92 38q52 0 90 -38t38 -90q0 -54 -38 -92q-38 -36 -90 -36v0zM1408 0q-54 0 -92 36q-36 38 -36 92q0 52 36 90q38 38 92 38q52 0 90 -38t38 -90q0 -54 -38 -92q-38 -36 -90 -36v0zM128 256q-54 0 -92 36q-36 38 -36 92q0 52 36 90q38 38 92 38q52 0 90 -38 t38 -90q0 -54 -38 -92q-38 -36 -90 -36v0zM384 256q-54 0 -92 36q-36 38 -36 92q0 52 36 90q38 38 92 38q52 0 90 -38t38 -90q0 -54 -38 -92q-38 -36 -90 -36v0zM896 256q-54 0 -92 36q-36 38 -36 92q0 52 36 90q38 38 92 38q52 0 90 -38t38 -90q0 -54 -38 -92 q-38 -36 -90 -36v0zM1152 256q-54 0 -92 36q-36 38 -36 92q0 52 36 90q38 38 92 38q52 0 90 -38t38 -90q0 -54 -38 -92q-38 -36 -90 -36v0zM128 512q-54 0 -92 36q-36 38 -36 92q0 52 36 90q38 38 92 38q52 0 90 -38t38 -90q0 -54 -38 -92q-38 -36 -90 -36v0zM384 512 q-54 0 -92 36q-36 38 -36 92q0 52 36 90q38 38 92 38q52 0 90 -38t38 -90q0 -54 -38 -92q-38 -36 -90 -36v0zM640 512q-54 0 -92 36q-36 38 -36 92q0 52 36 90q38 38 92 38q52 0 90 -38t38 -90q0 -54 -38 -92q-38 -36 -90 -36v0zM896 512q-54 0 -92 36q-36 38 -36 92 q0 52 36 90q38 38 92 38q52 0 90 -38t38 -90q0 -54 -38 -92q-38 -36 -90 -36v0zM128 768q-54 0 -92 36q-36 38 -36 92q0 52 36 90q38 38 92 38q52 0 90 -38t38 -90q0 -54 -38 -92q-38 -36 -90 -36v0zM384 768q-54 0 -92 36q-36 38 -36 92q0 52 36 90q38 38 92 38 q52 0 90 -38t38 -90q0 -54 -38 -92q-38 -36 -90 -36v0zM640 768q-54 0 -92 36q-36 38 -36 92q0 52 36 90q38 38 92 38q52 0 90 -38t38 -90q0 -54 -38 -92q-38 -36 -90 -36v0zM896 768q-54 0 -92 36q-36 38 -36 92q0 52 36 90q38 38 92 38q52 0 90 -38t38 -90q0 -54 -38 -92 q-38 -36 -90 -36v0zM1152 768q-54 0 -92 36q-36 38 -36 92q0 52 36 90q38 38 92 38q52 0 90 -38t38 -90q0 -54 -38 -92q-38 -36 -90 -36v0zM128 1024q-54 0 -92 36q-36 38 -36 92q0 52 36 90q38 38 92 38q52 0 90 -38t38 -90q0 -54 -38 -92q-38 -36 -90 -36v0zM384 1024 q-54 0 -92 36q-36 38 -36 92q0 52 36 90q38 38 92 38q52 0 90 -38t38 -90q0 -54 -38 -92q-38 -36 -90 -36v0zM1152 1024q-54 0 -92 36q-36 38 -36 92q0 52 36 90q38 38 92 38q52 0 90 -38t38 -90q0 -54 -38 -92q-38 -36 -90 -36v0zM1408 1024q-54 0 -92 36q-36 38 -36 92 q0 52 36 90q38 38 92 38q52 0 90 -38t38 -90q0 -54 -38 -92q-38 -36 -90 -36v0zM128 1280q-54 0 -92 36q-36 38 -36 92q0 52 36 90q38 38 92 38q52 0 90 -38t38 -90q0 -54 -38 -92q-38 -36 -90 -36v0zM384 1280q-54 0 -92 36q-36 38 -36 92q0 52 36 90q38 38 92 38 q52 0 90 -38t38 -90q0 -54 -38 -92q-38 -36 -90 -36v0zM1152 1280q-54 0 -92 36q-36 38 -36 92q0 52 36 90q38 38 92 38q52 0 90 -38t38 -90q0 -54 -38 -92q-38 -36 -90 -36v0zM1408 1280q-54 0 -92 36q-36 38 -36 92q0 52 36 90q38 38 92 38q52 0 90 -38t38 -90 q0 -54 -38 -92q-38 -36 -90 -36v0zM128 1536q-54 0 -92 36q-36 38 -36 92q0 52 36 90q38 38 92 38q52 0 90 -38t38 -90q0 -54 -38 -92q-38 -36 -90 -36v0zM384 1536q-54 0 -92 36q-36 38 -36 92q0 52 36 90q38 38 92 38q52 0 90 -38t38 -90q0 -54 -38 -92q-38 -36 -90 -36v0 zM640 1536q-54 0 -92 36q-36 38 -36 92q0 52 36 90q38 38 92 38q52 0 90 -38t38 -90q0 -54 -38 -92q-38 -36 -90 -36v0zM896 1536q-54 0 -92 36q-36 38 -36 92q0 52 36 90q38 38 92 38q52 0 90 -38t38 -90q0 -54 -38 -92q-38 -36 -90 -36v0zM1152 1536q-54 0 -92 36 q-36 38 -36 92q0 52 36 90q38 38 92 38q52 0 90 -38t38 -90q0 -54 -38 -92q-38 -36 -90 -36v0z" />
<glyph unicode="s" d="M384 0q-54 0 -92 36q-36 38 -36 92q0 52 36 90q38 38 92 38q52 0 90 -38t38 -90q0 -54 -38 -92q-38 -36 -90 -36v0zM640 0q-54 0 -92 36q-36 38 -36 92q0 52 36 90q38 38 92 38q52 0 90 -38t38 -90q0 -54 -38 -92q-38 -36 -90 -36v0zM896 0q-54 0 -92 36q-36 38 -36 92 q0 52 36 90q38 38 92 38q52 0 90 -38t38 -90q0 -54 -38 -92q-38 -36 -90 -36v0zM1152 0q-54 0 -92 36q-36 38 -36 92q0 52 36 90q38 38 92 38q52 0 90 -38t38 -90q0 -54 -38 -92q-38 -36 -90 -36v0zM128 256q-54 0 -92 36q-36 38 -36 92q0 52 36 90q38 38 92 38q52 0 90 -38 t38 -90q0 -54 -38 -92q-38 -36 -90 -36v0zM384 256q-54 0 -92 36q-36 38 -36 92q0 52 36 90q38 38 92 38q52 0 90 -38t38 -90q0 -54 -38 -92q-38 -36 -90 -36v0zM1152 256q-54 0 -92 36q-36 38 -36 92q0 52 36 90q38 38 92 38q52 0 90 -38t38 -90q0 -54 -38 -92 q-38 -36 -90 -36v0zM1408 256q-54 0 -92 36q-36 38 -36 92q0 52 36 90q38 38 92 38q52 0 90 -38t38 -90q0 -54 -38 -92q-38 -36 -90 -36v0zM1152 512q-54 0 -92 36q-36 38 -36 92q0 52 36 90q38 38 92 38q52 0 90 -38t38 -90q0 -54 -38 -92q-38 -36 -90 -36v0zM1408 512 q-54 0 -92 36q-36 38 -36 92q0 52 36 90q38 38 92 38q52 0 90 -38t38 -90q0 -54 -38 -92q-38 -36 -90 -36v0zM384 768q-54 0 -92 36q-36 38 -36 92q0 52 36 90q38 38 92 38q52 0 90 -38t38 -90q0 -54 -38 -92q-38 -36 -90 -36v0zM640 768q-54 0 -92 36q-36 38 -36 92 q0 52 36 90q38 38 92 38q52 0 90 -38t38 -90q0 -54 -38 -92q-38 -36 -90 -36v0zM896 768q-54 0 -92 36q-36 38 -36 92q0 52 36 90q38 38 92 38q52 0 90 -38t38 -90q0 -54 -38 -92q-38 -36 -90 -36v0zM1152 768q-54 0 -92 36q-36 38 -36 92q0 52 36 90q38 38 92 38 q52 0 90 -38t38 -90q0 -54 -38 -92q-38 -36 -90 -36v0zM128 1024q-54 0 -92 36q-36 38 -36 92q0 52 36 90q38 38 92 38q52 0 90 -38t38 -90q0 -54 -38 -92q-38 -36 -90 -36v0zM384 1024q-54 0 -92 36q-36 38 -36 92q0 52 36 90q38 38 92 38q52 0 90 -38t38 -90 q0 -54 -38 -92q-38 -36 -90 -36v0zM128 1280q-54 0 -92 36q-36 38 -36 92q0 52 36 90q38 38 92 38q52 0 90 -38t38 -90q0 -54 -38 -92q-38 -36 -90 -36v0zM384 1280q-54 0 -92 36q-36 38 -36 92q0 52 36 90q38 38 92 38q52 0 90 -38t38 -90q0 -54 -38 -92q-38 -36 -90 -36v0 zM1152 1280q-54 0 -92 36q-36 38 -36 92q0 52 36 90q38 38 92 38q52 0 90 -38t38 -90q0 -54 -38 -92q-38 -36 -90 -36v0zM1408 1280q-54 0 -92 36q-36 38 -36 92q0 52 36 90q38 38 92 38q52 0 90 -38t38 -90q0 -54 -38 -92q-38 -36 -90 -36v0zM384 1536q-54 0 -92 36 q-36 38 -36 92q0 52 36 90q38 38 92 38q52 0 90 -38t38 -90q0 -54 -38 -92q-38 -36 -90 -36v0zM640 1536q-54 0 -92 36q-36 38 -36 92q0 52 36 90q38 38 92 38q52 0 90 -38t38 -90q0 -54 -38 -92q-38 -36 -90 -36v0zM896 1536q-54 0 -92 36q-36 38 -36 92q0 52 36 90 q38 38 92 38q52 0 90 -38t38 -90q0 -54 -38 -92q-38 -36 -90 -36v0zM1152 1536q-54 0 -92 36q-36 38 -36 92q0 52 36 90q38 38 92 38q52 0 90 -38t38 -90q0 -54 -38 -92q-38 -36 -90 -36v0z" />
<glyph unicode="t" d="M640 0q-54 0 -92 36q-36 38 -36 92q0 52 36 90q38 38 92 38q52 0 90 -38t38 -90q0 -54 -38 -92q-38 -36 -90 -36v0zM896 0q-54 0 -92 36q-36 38 -36 92q0 52 36 90q38 38 92 38q52 0 90 -38t38 -90q0 -54 -38 -92q-38 -36 -90 -36v0zM640 256q-54 0 -92 36q-36 38 -36 92 q0 52 36 90q38 38 92 38q52 0 90 -38t38 -90q0 -54 -38 -92q-38 -36 -90 -36v0zM896 256q-54 0 -92 36q-36 38 -36 92q0 52 36 90q38 38 92 38q52 0 90 -38t38 -90q0 -54 -38 -92q-38 -36 -90 -36v0zM640 512q-54 0 -92 36q-36 38 -36 92q0 52 36 90q38 38 92 38 q52 0 90 -38t38 -90q0 -54 -38 -92q-38 -36 -90 -36v0zM896 512q-54 0 -92 36q-36 38 -36 92q0 52 36 90q38 38 92 38q52 0 90 -38t38 -90q0 -54 -38 -92q-38 -36 -90 -36v0zM640 768q-54 0 -92 36q-36 38 -36 92q0 52 36 90q38 38 92 38q52 0 90 -38t38 -90q0 -54 -38 -92 q-38 -36 -90 -36v0zM896 768q-54 0 -92 36q-36 38 -36 92q0 52 36 90q38 38 92 38q52 0 90 -38t38 -90q0 -54 -38 -92q-38 -36 -90 -36v0zM640 1024q-54 0 -92 36q-36 38 -36 92q0 52 36 90q38 38 92 38q52 0 90 -38t38 -90q0 -54 -38 -92q-38 -36 -90 -36v0zM896 1024 q-54 0 -92 36q-36 38 -36 92q0 52 36 90q38 38 92 38q52 0 90 -38t38 -90q0 -54 -38 -92q-38 -36 -90 -36v0zM640 1280q-54 0 -92 36q-36 38 -36 92q0 52 36 90q38 38 92 38q52 0 90 -38t38 -90q0 -54 -38 -92q-38 -36 -90 -36v0zM896 1280q-54 0 -92 36q-36 38 -36 92 q0 52 36 90q38 38 92 38q52 0 90 -38t38 -90q0 -54 -38 -92q-38 -36 -90 -36v0zM128 1536q-54 0 -92 36q-36 38 -36 92q0 52 36 90q38 38 92 38q52 0 90 -38t38 -90q0 -54 -38 -92q-38 -36 -90 -36v0zM384 1536q-54 0 -92 36q-36 38 -36 92q0 52 36 90q38 38 92 38 q52 0 90 -38t38 -90q0 -54 -38 -92q-38 -36 -90 -36v0zM640 1536q-54 0 -92 36q-36 38 -36 92q0 52 36 90q38 38 92 38q52 0 90 -38t38 -90q0 -54 -38 -92q-38 -36 -90 -36v0zM896 1536q-54 0 -92 36q-36 38 -36 92q0 52 36 90q38 38 92 38q52 0 90 -38t38 -90 q0 -54 -38 -92q-38 -36 -90 -36v0zM1152 1536q-54 0 -92 36q-36 38 -36 92q0 52 36 90q38 38 92 38q52 0 90 -38t38 -90q0 -54 -38 -92q-38 -36 -90 -36v0zM1408 1536q-54 0 -92 36q-36 38 -36 92q0 52 36 90q38 38 92 38q52 0 90 -38t38 -90q0 -54 -38 -92q-38 -36 -90 -36 v0z" />
<glyph unicode="u" d="M384 0q-54 0 -92 36q-36 38 -36 92q0 52 36 90q38 38 92 38q52 0 90 -38t38 -90q0 -54 -38 -92q-38 -36 -90 -36v0zM640 0q-54 0 -92 36q-36 38 -36 92q0 52 36 90q38 38 92 38q52 0 90 -38t38 -90q0 -54 -38 -92q-38 -36 -90 -36v0zM896 0q-54 0 -92 36q-36 38 -36 92 q0 52 36 90q38 38 92 38q52 0 90 -38t38 -90q0 -54 -38 -92q-38 -36 -90 -36v0zM1152 0q-54 0 -92 36q-36 38 -36 92q0 52 36 90q38 38 92 38q52 0 90 -38t38 -90q0 -54 -38 -92q-38 -36 -90 -36v0zM128 256q-54 0 -92 36q-36 38 -36 92q0 52 36 90q38 38 92 38q52 0 90 -38 t38 -90q0 -54 -38 -92q-38 -36 -90 -36v0zM384 256q-54 0 -92 36q-36 38 -36 92q0 52 36 90q38 38 92 38q52 0 90 -38t38 -90q0 -54 -38 -92q-38 -36 -90 -36v0zM1152 256q-54 0 -92 36q-36 38 -36 92q0 52 36 90q38 38 92 38q52 0 90 -38t38 -90q0 -54 -38 -92 q-38 -36 -90 -36v0zM1408 256q-54 0 -92 36q-36 38 -36 92q0 52 36 90q38 38 92 38q52 0 90 -38t38 -90q0 -54 -38 -92q-38 -36 -90 -36v0zM128 512q-54 0 -92 36q-36 38 -36 92q0 52 36 90q38 38 92 38q52 0 90 -38t38 -90q0 -54 -38 -92q-38 -36 -90 -36v0zM384 512 q-54 0 -92 36q-36 38 -36 92q0 52 36 90q38 38 92 38q52 0 90 -38t38 -90q0 -54 -38 -92q-38 -36 -90 -36v0zM1152 512q-54 0 -92 36q-36 38 -36 92q0 52 36 90q38 38 92 38q52 0 90 -38t38 -90q0 -54 -38 -92q-38 -36 -90 -36v0zM1408 512q-54 0 -92 36q-36 38 -36 92 q0 52 36 90q38 38 92 38q52 0 90 -38t38 -90q0 -54 -38 -92q-38 -36 -90 -36v0zM128 768q-54 0 -92 36q-36 38 -36 92q0 52 36 90q38 38 92 38q52 0 90 -38t38 -90q0 -54 -38 -92q-38 -36 -90 -36v0zM384 768q-54 0 -92 36q-36 38 -36 92q0 52 36 90q38 38 92 38 q52 0 90 -38t38 -90q0 -54 -38 -92q-38 -36 -90 -36v0zM1152 768q-54 0 -92 36q-36 38 -36 92q0 52 36 90q38 38 92 38q52 0 90 -38t38 -90q0 -54 -38 -92q-38 -36 -90 -36v0zM1408 768q-54 0 -92 36q-36 38 -36 92q0 52 36 90q38 38 92 38q52 0 90 -38t38 -90 q0 -54 -38 -92q-38 -36 -90 -36v0zM128 1024q-54 0 -92 36q-36 38 -36 92q0 52 36 90q38 38 92 38q52 0 90 -38t38 -90q0 -54 -38 -92q-38 -36 -90 -36v0zM384 1024q-54 0 -92 36q-36 38 -36 92q0 52 36 90q38 38 92 38q52 0 90 -38t38 -90q0 -54 -38 -92q-38 -36 -90 -36v0 zM1152 1024q-54 0 -92 36q-36 38 -36 92q0 52 36 90q38 38 92 38q52 0 90 -38t38 -90q0 -54 -38 -92q-38 -36 -90 -36v0zM1408 1024q-54 0 -92 36q-36 38 -36 92q0 52 36 90q38 38 92 38q52 0 90 -38t38 -90q0 -54 -38 -92q-38 -36 -90 -36v0zM128 1280q-54 0 -92 36 q-36 38 -36 92q0 52 36 90q38 38 92 38q52 0 90 -38t38 -90q0 -54 -38 -92q-38 -36 -90 -36v0zM384 1280q-54 0 -92 36q-36 38 -36 92q0 52 36 90q38 38 92 38q52 0 90 -38t38 -90q0 -54 -38 -92q-38 -36 -90 -36v0zM1152 1280q-54 0 -92 36q-36 38 -36 92q0 52 36 90 q38 38 92 38q52 0 90 -38t38 -90q0 -54 -38 -92q-38 -36 -90 -36v0zM1408 1280q-54 0 -92 36q-36 38 -36 92q0 52 36 90q38 38 92 38q52 0 90 -38t38 -90q0 -54 -38 -92q-38 -36 -90 -36v0zM128 1536q-54 0 -92 36q-36 38 -36 92q0 52 36 90q38 38 92 38q52 0 90 -38t38 -90 q0 -54 -38 -92q-38 -36 -90 -36v0zM384 1536q-54 0 -92 36q-36 38 -36 92q0 52 36 90q38 38 92 38q52 0 90 -38t38 -90q0 -54 -38 -92q-38 -36 -90 -36v0zM1152 1536q-54 0 -92 36q-36 38 -36 92q0 52 36 90q38 38 92 38q52 0 90 -38t38 -90q0 -54 -38 -92q-38 -36 -90 -36 v0zM1408 1536q-54 0 -92 36q-36 38 -36 92q0 52 36 90q38 38 92 38q52 0 90 -38t38 -90q0 -54 -38 -92q-38 -36 -90 -36v0z" />
<glyph unicode="v" d="M640 0q-54 0 -92 36q-36 38 -36 92q0 52 36 90q38 38 92 38q52 0 90 -38t38 -90q0 -54 -38 -92q-38 -36 -90 -36v0zM896 0q-54 0 -92 36q-36 38 -36 92q0 52 36 90q38 38 92 38q52 0 90 -38t38 -90q0 -54 -38 -92q-38 -36 -90 -36v0zM384 256q-54 0 -92 36q-36 38 -36 92 q0 52 36 90q38 38 92 38q52 0 90 -38t38 -90q0 -54 -38 -92q-38 -36 -90 -36v0zM640 256q-54 0 -92 36q-36 38 -36 92q0 52 36 90q38 38 92 38q52 0 90 -38t38 -90q0 -54 -38 -92q-38 -36 -90 -36v0zM896 256q-54 0 -92 36q-36 38 -36 92q0 52 36 90q38 38 92 38 q52 0 90 -38t38 -90q0 -54 -38 -92q-38 -36 -90 -36v0zM1152 256q-54 0 -92 36q-36 38 -36 92q0 52 36 90q38 38 92 38q52 0 90 -38t38 -90q0 -54 -38 -92q-38 -36 -90 -36v0zM128 512q-54 0 -92 36q-36 38 -36 92q0 52 36 90q38 38 92 38q52 0 90 -38t38 -90q0 -54 -38 -92 q-38 -36 -90 -36v0zM384 512q-54 0 -92 36q-36 38 -36 92q0 52 36 90q38 38 92 38q52 0 90 -38t38 -90q0 -54 -38 -92q-38 -36 -90 -36v0zM1152 512q-54 0 -92 36q-36 38 -36 92q0 52 36 90q38 38 92 38q52 0 90 -38t38 -90q0 -54 -38 -92q-38 -36 -90 -36v0zM1408 512 q-54 0 -92 36q-36 38 -36 92q0 52 36 90q38 38 92 38q52 0 90 -38t38 -90q0 -54 -38 -92q-38 -36 -90 -36v0zM128 768q-54 0 -92 36q-36 38 -36 92q0 52 36 90q38 38 92 38q52 0 90 -38t38 -90q0 -54 -38 -92q-38 -36 -90 -36v0zM384 768q-54 0 -92 36q-36 38 -36 92 q0 52 36 90q38 38 92 38q52 0 90 -38t38 -90q0 -54 -38 -92q-38 -36 -90 -36v0zM1152 768q-54 0 -92 36q-36 38 -36 92q0 52 36 90q38 38 92 38q52 0 90 -38t38 -90q0 -54 -38 -92q-38 -36 -90 -36v0zM1408 768q-54 0 -92 36q-36 38 -36 92q0 52 36 90q38 38 92 38 q52 0 90 -38t38 -90q0 -54 -38 -92q-38 -36 -90 -36v0zM128 1024q-54 0 -92 36q-36 38 -36 92q0 52 36 90q38 38 92 38q52 0 90 -38t38 -90q0 -54 -38 -92q-38 -36 -90 -36v0zM384 1024q-54 0 -92 36q-36 38 -36 92q0 52 36 90q38 38 92 38q52 0 90 -38t38 -90 q0 -54 -38 -92q-38 -36 -90 -36v0zM1152 1024q-54 0 -92 36q-36 38 -36 92q0 52 36 90q38 38 92 38q52 0 90 -38t38 -90q0 -54 -38 -92q-38 -36 -90 -36v0zM1408 1024q-54 0 -92 36q-36 38 -36 92q0 52 36 90q38 38 92 38q52 0 90 -38t38 -90q0 -54 -38 -92q-38 -36 -90 -36 v0zM128 1280q-54 0 -92 36q-36 38 -36 92q0 52 36 90q38 38 92 38q52 0 90 -38t38 -90q0 -54 -38 -92q-38 -36 -90 -36v0zM384 1280q-54 0 -92 36q-36 38 -36 92q0 52 36 90q38 38 92 38q52 0 90 -38t38 -90q0 -54 -38 -92q-38 -36 -90 -36v0zM1152 1280q-54 0 -92 36 q-36 38 -36 92q0 52 36 90q38 38 92 38q52 0 90 -38t38 -90q0 -54 -38 -92q-38 -36 -90 -36v0zM1408 1280q-54 0 -92 36q-36 38 -36 92q0 52 36 90q38 38 92 38q52 0 90 -38t38 -90q0 -54 -38 -92q-38 -36 -90 -36v0zM128 1536q-54 0 -92 36q-36 38 -36 92q0 52 36 90 q38 38 92 38q52 0 90 -38t38 -90q0 -54 -38 -92q-38 -36 -90 -36v0zM384 1536q-54 0 -92 36q-36 38 -36 92q0 52 36 90q38 38 92 38q52 0 90 -38t38 -90q0 -54 -38 -92q-38 -36 -90 -36v0zM1152 1536q-54 0 -92 36q-36 38 -36 92q0 52 36 90q38 38 92 38q52 0 90 -38t38 -90 q0 -54 -38 -92q-38 -36 -90 -36v0zM1408 1536q-54 0 -92 36q-36 38 -36 92q0 52 36 90q38 38 92 38q52 0 90 -38t38 -90q0 -54 -38 -92q-38 -36 -90 -36v0z" />
<glyph unicode="w" horiz-adv-x="2048" d="M384 0q-54 0 -92 36q-36 38 -36 92q0 52 36 90q38 38 92 38q52 0 90 -38t38 -90q0 -54 -38 -92q-38 -36 -90 -36v0zM640 0q-54 0 -92 36q-36 38 -36 92q0 52 36 90q38 38 92 38q52 0 90 -38t38 -90q0 -54 -38 -92q-38 -36 -90 -36v0zM1152 0q-54 0 -92 36q-36 38 -36 92 q0 52 36 90q38 38 92 38q52 0 90 -38t38 -90q0 -54 -38 -92q-38 -36 -90 -36v0zM1408 0q-54 0 -92 36q-36 38 -36 92q0 52 36 90q38 38 92 38q52 0 90 -38t38 -90q0 -54 -38 -92q-38 -36 -90 -36v0zM128 256q-54 0 -92 36q-36 38 -36 92q0 52 36 90q38 38 92 38q52 0 90 -38 t38 -90q0 -54 -38 -92q-38 -36 -90 -36v0zM384 256q-54 0 -92 36q-36 38 -36 92q0 52 36 90q38 38 92 38q52 0 90 -38t38 -90q0 -54 -38 -92q-38 -36 -90 -36v0zM640 256q-54 0 -92 36q-36 38 -36 92q0 52 36 90q38 38 92 38q52 0 90 -38t38 -90q0 -54 -38 -92 q-38 -36 -90 -36v0zM896 256q-54 0 -92 36q-36 38 -36 92q0 52 36 90q38 38 92 38q52 0 90 -38t38 -90q0 -54 -38 -92q-38 -36 -90 -36v0zM1152 256q-54 0 -92 36q-36 38 -36 92q0 52 36 90q38 38 92 38q52 0 90 -38t38 -90q0 -54 -38 -92q-38 -36 -90 -36v0zM1408 256 q-54 0 -92 36q-36 38 -36 92q0 52 36 90q38 38 92 38q52 0 90 -38t38 -90q0 -54 -38 -92q-38 -36 -90 -36v0zM1664 256q-54 0 -92 36q-36 38 -36 92q0 52 36 90q38 38 92 38q52 0 90 -38t38 -90q0 -54 -38 -92q-38 -36 -90 -36v0zM128 512q-54 0 -92 36q-36 38 -36 92 q0 52 36 90q38 38 92 38q52 0 90 -38t38 -90q0 -54 -38 -92q-38 -36 -90 -36v0zM384 512q-54 0 -92 36q-36 38 -36 92q0 52 36 90q38 38 92 38q52 0 90 -38t38 -90q0 -54 -38 -92q-38 -36 -90 -36v0zM896 512q-54 0 -92 36q-36 38 -36 92q0 52 36 90q38 38 92 38 q52 0 90 -38t38 -90q0 -54 -38 -92q-38 -36 -90 -36v0zM1408 512q-54 0 -92 36q-36 38 -36 92q0 52 36 90q38 38 92 38q52 0 90 -38t38 -90q0 -54 -38 -92q-38 -36 -90 -36v0zM1664 512q-54 0 -92 36q-36 38 -36 92q0 52 36 90q38 38 92 38q52 0 90 -38t38 -90 q0 -54 -38 -92q-38 -36 -90 -36v0zM128 768q-54 0 -92 36q-36 38 -36 92q0 52 36 90q38 38 92 38q52 0 90 -38t38 -90q0 -54 -38 -92q-38 -36 -90 -36v0zM384 768q-54 0 -92 36q-36 38 -36 92q0 52 36 90q38 38 92 38q52 0 90 -38t38 -90q0 -54 -38 -92q-38 -36 -90 -36v0z M896 768q-54 0 -92 36q-36 38 -36 92q0 52 36 90q38 38 92 38q52 0 90 -38t38 -90q0 -54 -38 -92q-38 -36 -90 -36v0zM1408 768q-54 0 -92 36q-36 38 -36 92q0 52 36 90q38 38 92 38q52 0 90 -38t38 -90q0 -54 -38 -92q-38 -36 -90 -36v0zM1664 768q-54 0 -92 36 q-36 38 -36 92q0 52 36 90q38 38 92 38q52 0 90 -38t38 -90q0 -54 -38 -92q-38 -36 -90 -36v0zM128 1024q-54 0 -92 36q-36 38 -36 92q0 52 36 90q38 38 92 38q52 0 90 -38t38 -90q0 -54 -38 -92q-38 -36 -90 -36v0zM384 1024q-54 0 -92 36q-36 38 -36 92q0 52 36 90 q38 38 92 38q52 0 90 -38t38 -90q0 -54 -38 -92q-38 -36 -90 -36v0zM1408 1024q-54 0 -92 36q-36 38 -36 92q0 52 36 90q38 38 92 38q52 0 90 -38t38 -90q0 -54 -38 -92q-38 -36 -90 -36v0zM1664 1024q-54 0 -92 36q-36 38 -36 92q0 52 36 90q38 38 92 38q52 0 90 -38 t38 -90q0 -54 -38 -92q-38 -36 -90 -36v0zM128 1280q-54 0 -92 36q-36 38 -36 92q0 52 36 90q38 38 92 38q52 0 90 -38t38 -90q0 -54 -38 -92q-38 -36 -90 -36v0zM384 1280q-54 0 -92 36q-36 38 -36 92q0 52 36 90q38 38 92 38q52 0 90 -38t38 -90q0 -54 -38 -92 q-38 -36 -90 -36v0zM1408 1280q-54 0 -92 36q-36 38 -36 92q0 52 36 90q38 38 92 38q52 0 90 -38t38 -90q0 -54 -38 -92q-38 -36 -90 -36v0zM1664 1280q-54 0 -92 36q-36 38 -36 92q0 52 36 90q38 38 92 38q52 0 90 -38t38 -90q0 -54 -38 -92q-38 -36 -90 -36v0zM128 1536 q-54 0 -92 36q-36 38 -36 92q0 52 36 90q38 38 92 38q52 0 90 -38t38 -90q0 -54 -38 -92q-38 -36 -90 -36v0zM384 1536q-54 0 -92 36q-36 38 -36 92q0 52 36 90q38 38 92 38q52 0 90 -38t38 -90q0 -54 -38 -92q-38 -36 -90 -36v0zM1408 1536q-54 0 -92 36q-36 38 -36 92 q0 52 36 90q38 38 92 38q52 0 90 -38t38 -90q0 -54 -38 -92q-38 -36 -90 -36v0zM1664 1536q-54 0 -92 36q-36 38 -36 92q0 52 36 90q38 38 92 38q52 0 90 -38t38 -90q0 -54 -38 -92q-38 -36 -90 -36v0z" />
<glyph unicode="x" d="M128 0q-54 0 -92 36q-36 38 -36 92q0 52 36 90q38 38 92 38q52 0 90 -38t38 -90q0 -54 -38 -92q-38 -36 -90 -36v0zM384 0q-54 0 -92 36q-36 38 -36 92q0 52 36 90q38 38 92 38q52 0 90 -38t38 -90q0 -54 -38 -92q-38 -36 -90 -36v0zM1152 0q-54 0 -92 36q-36 38 -36 92 q0 52 36 90q38 38 92 38q52 0 90 -38t38 -90q0 -54 -38 -92q-38 -36 -90 -36v0zM1408 0q-54 0 -92 36q-36 38 -36 92q0 52 36 90q38 38 92 38q52 0 90 -38t38 -90q0 -54 -38 -92q-38 -36 -90 -36v0zM128 256q-54 0 -92 36q-36 38 -36 92q0 52 36 90q38 38 92 38q52 0 90 -38 t38 -90q0 -54 -38 -92q-38 -36 -90 -36v0zM384 256q-54 0 -92 36q-36 38 -36 92q0 52 36 90q38 38 92 38q52 0 90 -38t38 -90q0 -54 -38 -92q-38 -36 -90 -36v0zM1152 256q-54 0 -92 36q-36 38 -36 92q0 52 36 90q38 38 92 38q52 0 90 -38t38 -90q0 -54 -38 -92 q-38 -36 -90 -36v0zM1408 256q-54 0 -92 36q-36 38 -36 92q0 52 36 90q38 38 92 38q52 0 90 -38t38 -90q0 -54 -38 -92q-38 -36 -90 -36v0zM384 512q-54 0 -92 36q-36 38 -36 92q0 52 36 90q38 38 92 38q52 0 90 -38t38 -90q0 -54 -38 -92q-38 -36 -90 -36v0zM640 512 q-54 0 -92 36q-36 38 -36 92q0 52 36 90q38 38 92 38q52 0 90 -38t38 -90q0 -54 -38 -92q-38 -36 -90 -36v0zM896 512q-54 0 -92 36q-36 38 -36 92q0 52 36 90q38 38 92 38q52 0 90 -38t38 -90q0 -54 -38 -92q-38 -36 -90 -36v0zM1152 512q-54 0 -92 36q-36 38 -36 92 q0 52 36 90q38 38 92 38q52 0 90 -38t38 -90q0 -54 -38 -92q-38 -36 -90 -36v0zM640 768q-54 0 -92 36q-36 38 -36 92q0 52 36 90q38 38 92 38q52 0 90 -38t38 -90q0 -54 -38 -92q-38 -36 -90 -36v0zM896 768q-54 0 -92 36q-36 38 -36 92q0 52 36 90q38 38 92 38 q52 0 90 -38t38 -90q0 -54 -38 -92q-38 -36 -90 -36v0zM384 1024q-54 0 -92 36q-36 38 -36 92q0 52 36 90q38 38 92 38q52 0 90 -38t38 -90q0 -54 -38 -92q-38 -36 -90 -36v0zM640 1024q-54 0 -92 36q-36 38 -36 92q0 52 36 90q38 38 92 38q52 0 90 -38t38 -90 q0 -54 -38 -92q-38 -36 -90 -36v0zM896 1024q-54 0 -92 36q-36 38 -36 92q0 52 36 90q38 38 92 38q52 0 90 -38t38 -90q0 -54 -38 -92q-38 -36 -90 -36v0zM1152 1024q-54 0 -92 36q-36 38 -36 92q0 52 36 90q38 38 92 38q52 0 90 -38t38 -90q0 -54 -38 -92q-38 -36 -90 -36 v0zM128 1280q-54 0 -92 36q-36 38 -36 92q0 52 36 90q38 38 92 38q52 0 90 -38t38 -90q0 -54 -38 -92q-38 -36 -90 -36v0zM384 1280q-54 0 -92 36q-36 38 -36 92q0 52 36 90q38 38 92 38q52 0 90 -38t38 -90q0 -54 -38 -92q-38 -36 -90 -36v0zM1152 1280q-54 0 -92 36 q-36 38 -36 92q0 52 36 90q38 38 92 38q52 0 90 -38t38 -90q0 -54 -38 -92q-38 -36 -90 -36v0zM1408 1280q-54 0 -92 36q-36 38 -36 92q0 52 36 90q38 38 92 38q52 0 90 -38t38 -90q0 -54 -38 -92q-38 -36 -90 -36v0zM128 1536q-54 0 -92 36q-36 38 -36 92q0 52 36 90 q38 38 92 38q52 0 90 -38t38 -90q0 -54 -38 -92q-38 -36 -90 -36v0zM384 1536q-54 0 -92 36q-36 38 -36 92q0 52 36 90q38 38 92 38q52 0 90 -38t38 -90q0 -54 -38 -92q-38 -36 -90 -36v0zM1152 1536q-54 0 -92 36q-36 38 -36 92q0 52 36 90q38 38 92 38q52 0 90 -38t38 -90 q0 -54 -38 -92q-38 -36 -90 -36v0zM1408 1536q-54 0 -92 36q-36 38 -36 92q0 52 36 90q38 38 92 38q52 0 90 -38t38 -90q0 -54 -38 -92q-38 -36 -90 -36v0z" />
<glyph unicode="y" d="M640 0q-54 0 -92 36q-36 38 -36 92q0 52 36 90q38 38 92 38q52 0 90 -38t38 -90q0 -54 -38 -92q-38 -36 -90 -36v0zM896 0q-54 0 -92 36q-36 38 -36 92q0 52 36 90q38 38 92 38q52 0 90 -38t38 -90q0 -54 -38 -92q-38 -36 -90 -36v0zM640 256q-54 0 -92 36q-36 38 -36 92 q0 52 36 90q38 38 92 38q52 0 90 -38t38 -90q0 -54 -38 -92q-38 -36 -90 -36v0zM896 256q-54 0 -92 36q-36 38 -36 92q0 52 36 90q38 38 92 38q52 0 90 -38t38 -90q0 -54 -38 -92q-38 -36 -90 -36v0zM640 512q-54 0 -92 36q-36 38 -36 92q0 52 36 90q38 38 92 38 q52 0 90 -38t38 -90q0 -54 -38 -92q-38 -36 -90 -36v0zM896 512q-54 0 -92 36q-36 38 -36 92q0 52 36 90q38 38 92 38q52 0 90 -38t38 -90q0 -54 -38 -92q-38 -36 -90 -36v0zM384 768q-54 0 -92 36q-36 38 -36 92q0 52 36 90q38 38 92 38q52 0 90 -38t38 -90q0 -54 -38 -92 q-38 -36 -90 -36v0zM640 768q-54 0 -92 36q-36 38 -36 92q0 52 36 90q38 38 92 38q52 0 90 -38t38 -90q0 -54 -38 -92q-38 -36 -90 -36v0zM896 768q-54 0 -92 36q-36 38 -36 92q0 52 36 90q38 38 92 38q52 0 90 -38t38 -90q0 -54 -38 -92q-38 -36 -90 -36v0zM1152 768 q-54 0 -92 36q-36 38 -36 92q0 52 36 90q38 38 92 38q52 0 90 -38t38 -90q0 -54 -38 -92q-38 -36 -90 -36v0zM128 1024q-54 0 -92 36q-36 38 -36 92q0 52 36 90q38 38 92 38q52 0 90 -38t38 -90q0 -54 -38 -92q-38 -36 -90 -36v0zM384 1024q-54 0 -92 36q-36 38 -36 92 q0 52 36 90q38 38 92 38q52 0 90 -38t38 -90q0 -54 -38 -92q-38 -36 -90 -36v0zM1152 1024q-54 0 -92 36q-36 38 -36 92q0 52 36 90q38 38 92 38q52 0 90 -38t38 -90q0 -54 -38 -92q-38 -36 -90 -36v0zM1408 1024q-54 0 -92 36q-36 38 -36 92q0 52 36 90q38 38 92 38 q52 0 90 -38t38 -90q0 -54 -38 -92q-38 -36 -90 -36v0zM128 1280q-54 0 -92 36q-36 38 -36 92q0 52 36 90q38 38 92 38q52 0 90 -38t38 -90q0 -54 -38 -92q-38 -36 -90 -36v0zM384 1280q-54 0 -92 36q-36 38 -36 92q0 52 36 90q38 38 92 38q52 0 90 -38t38 -90 q0 -54 -38 -92q-38 -36 -90 -36v0zM1152 1280q-54 0 -92 36q-36 38 -36 92q0 52 36 90q38 38 92 38q52 0 90 -38t38 -90q0 -54 -38 -92q-38 -36 -90 -36v0zM1408 1280q-54 0 -92 36q-36 38 -36 92q0 52 36 90q38 38 92 38q52 0 90 -38t38 -90q0 -54 -38 -92q-38 -36 -90 -36 v0zM128 1536q-54 0 -92 36q-36 38 -36 92q0 52 36 90q38 38 92 38q52 0 90 -38t38 -90q0 -54 -38 -92q-38 -36 -90 -36v0zM384 1536q-54 0 -92 36q-36 38 -36 92q0 52 36 90q38 38 92 38q52 0 90 -38t38 -90q0 -54 -38 -92q-38 -36 -90 -36v0zM1152 1536q-54 0 -92 36 q-36 38 -36 92q0 52 36 90q38 38 92 38q52 0 90 -38t38 -90q0 -54 -38 -92q-38 -36 -90 -36v0zM1408 1536q-54 0 -92 36q-36 38 -36 92q0 52 36 90q38 38 92 38q52 0 90 -38t38 -90q0 -54 -38 -92q-38 -36 -90 -36v0z" />
<glyph unicode="z" d="M128 0q-54 0 -92 36q-36 38 -36 92q0 52 36 90q38 38 92 38q52 0 90 -38t38 -90q0 -54 -38 -92q-38 -36 -90 -36v0zM384 0q-54 0 -92 36q-36 38 -36 92q0 52 36 90q38 38 92 38q52 0 90 -38t38 -90q0 -54 -38 -92q-38 -36 -90 -36v0zM640 0q-54 0 -92 36q-36 38 -36 92 q0 52 36 90q38 38 92 38q52 0 90 -38t38 -90q0 -54 -38 -92q-38 -36 -90 -36v0zM896 0q-54 0 -92 36q-36 38 -36 92q0 52 36 90q38 38 92 38q52 0 90 -38t38 -90q0 -54 -38 -92q-38 -36 -90 -36v0zM1152 0q-54 0 -92 36q-36 38 -36 92q0 52 36 90q38 38 92 38q52 0 90 -38 t38 -90q0 -54 -38 -92q-38 -36 -90 -36v0zM1408 0q-54 0 -92 36q-36 38 -36 92q0 52 36 90q38 38 92 38q52 0 90 -38t38 -90q0 -54 -38 -92q-38 -36 -90 -36v0zM128 256q-54 0 -92 36q-36 38 -36 92q0 52 36 90q38 38 92 38q52 0 90 -38t38 -90q0 -54 -38 -92 q-38 -36 -90 -36v0zM384 256q-54 0 -92 36q-36 38 -36 92q0 52 36 90q38 38 92 38q52 0 90 -38t38 -90q0 -54 -38 -92q-38 -36 -90 -36v0zM384 512q-54 0 -92 36q-36 38 -36 92q0 52 36 90q38 38 92 38q52 0 90 -38t38 -90q0 -54 -38 -92q-38 -36 -90 -36v0zM640 512 q-54 0 -92 36q-36 38 -36 92q0 52 36 90q38 38 92 38q52 0 90 -38t38 -90q0 -54 -38 -92q-38 -36 -90 -36v0zM640 768q-54 0 -92 36q-36 38 -36 92q0 52 36 90q38 38 92 38q52 0 90 -38t38 -90q0 -54 -38 -92q-38 -36 -90 -36v0zM896 768q-54 0 -92 36q-36 38 -36 92 q0 52 36 90q38 38 92 38q52 0 90 -38t38 -90q0 -54 -38 -92q-38 -36 -90 -36v0zM896 1024q-54 0 -92 36q-36 38 -36 92q0 52 36 90q38 38 92 38q52 0 90 -38t38 -90q0 -54 -38 -92q-38 -36 -90 -36v0zM1152 1024q-54 0 -92 36q-36 38 -36 92q0 52 36 90q38 38 92 38 q52 0 90 -38t38 -90q0 -54 -38 -92q-38 -36 -90 -36v0zM1152 1280q-54 0 -92 36q-36 38 -36 92q0 52 36 90q38 38 92 38q52 0 90 -38t38 -90q0 -54 -38 -92q-38 -36 -90 -36v0zM1408 1280q-54 0 -92 36q-36 38 -36 92q0 52 36 90q38 38 92 38q52 0 90 -38t38 -90 q0 -54 -38 -92q-38 -36 -90 -36v0zM128 1536q-54 0 -92 36q-36 38 -36 92q0 52 36 90q38 38 92 38q52 0 90 -38t38 -90q0 -54 -38 -92q-38 -36 -90 -36v0zM384 1536q-54 0 -92 36q-36 38 -36 92q0 52 36 90q38 38 92 38q52 0 90 -38t38 -90q0 -54 -38 -92q-38 -36 -90 -36v0 zM640 1536q-54 0 -92 36q-36 38 -36 92q0 52 36 90q38 38 92 38q52 0 90 -38t38 -90q0 -54 -38 -92q-38 -36 -90 -36v0zM896 1536q-54 0 -92 36q-36 38 -36 92q0 52 36 90q38 38 92 38q52 0 90 -38t38 -90q0 -54 -38 -92q-38 -36 -90 -36v0zM1152 1536q-54 0 -92 36 q-36 38 -36 92q0 52 36 90q38 38 92 38q52 0 90 -38t38 -90q0 -54 -38 -92q-38 -36 -90 -36v0zM1408 1536q-54 0 -92 36q-36 38 -36 92q0 52 36 90q38 38 92 38q52 0 90 -38t38 -90q0 -54 -38 -92q-38 -36 -90 -36v0z" />
<glyph unicode="&#xad;" horiz-adv-x="768" d="M128 768q-54 0 -92 36q-36 38 -36 92q0 52 36 90q38 38 92 38q52 0 90 -38t38 -90q0 -54 -38 -92q-38 -36 -90 -36v0zM384 768q-54 0 -92 36q-36 38 -36 92q0 52 36 90q38 38 92 38q52 0 90 -38t38 -90q0 -54 -38 -92q-38 -36 -90 -36v0z" />
<glyph unicode="&#x2000;" horiz-adv-x="896" />
<glyph unicode="&#x2001;" />
<glyph unicode="&#x2002;" horiz-adv-x="896" />
<glyph unicode="&#x2003;" />
<glyph unicode="&#x2004;" horiz-adv-x="597" />
<glyph unicode="&#x2005;" horiz-adv-x="448" />
<glyph unicode="&#x2006;" horiz-adv-x="298" />
<glyph unicode="&#x2007;" horiz-adv-x="298" />
<glyph unicode="&#x2008;" horiz-adv-x="224" />
<glyph unicode="&#x2009;" horiz-adv-x="358" />
<glyph unicode="&#x200a;" horiz-adv-x="99" />
<glyph unicode="&#x2010;" horiz-adv-x="768" d="M128 768q-54 0 -92 36q-36 38 -36 92q0 52 36 90q38 38 92 38q52 0 90 -38t38 -90q0 -54 -38 -92q-38 -36 -90 -36v0zM384 768q-54 0 -92 36q-36 38 -36 92q0 52 36 90q38 38 92 38q52 0 90 -38t38 -90q0 -54 -38 -92q-38 -36 -90 -36v0z" />
<glyph unicode="&#x2011;" horiz-adv-x="768" d="M128 768q-54 0 -92 36q-36 38 -36 92q0 52 36 90q38 38 92 38q52 0 90 -38t38 -90q0 -54 -38 -92q-38 -36 -90 -36v0zM384 768q-54 0 -92 36q-36 38 -36 92q0 52 36 90q38 38 92 38q52 0 90 -38t38 -90q0 -54 -38 -92q-38 -36 -90 -36v0z" />
<glyph unicode="&#x2012;" horiz-adv-x="768" d="M128 768q-54 0 -92 36q-36 38 -36 92q0 52 36 90q38 38 92 38q52 0 90 -38t38 -90q0 -54 -38 -92q-38 -36 -90 -36v0zM384 768q-54 0 -92 36q-36 38 -36 92q0 52 36 90q38 38 92 38q52 0 90 -38t38 -90q0 -54 -38 -92q-38 -36 -90 -36v0z" />
<glyph unicode="&#x2013;" horiz-adv-x="1280" d="M256 768q-108 0 -184 36q-72 38 -72 92q0 52 72 90q76 38 184 38q104 0 180 -38t76 -90q0 -54 -76 -92q-76 -36 -180 -36v0zM768 768q-108 0 -184 36q-72 38 -72 92q0 52 72 90q76 38 184 38q104 0 180 -38t76 -90q0 -54 -76 -92q-76 -36 -180 -36v0z" />
<glyph unicode="&#x2014;" horiz-adv-x="2304" d="M512 768q-216 0 -368 36q-144 38 -144 92q0 52 144 90q152 38 368 38q208 0 360 -38t152 -90q0 -54 -152 -92q-152 -36 -360 -36v0zM1536 768q-216 0 -368 36q-144 38 -144 92q0 52 144 90q152 38 368 38q208 0 360 -38t152 -90q0 -54 -152 -92q-152 -36 -360 -36v0z" />
<glyph unicode="&#x202f;" horiz-adv-x="358" />
<glyph unicode="&#x205f;" horiz-adv-x="448" />
<glyph unicode="&#x25fc;" horiz-adv-x="1790" d="M0 1790h1790v-1790h-1790v1790z" />
</font>
</defs>
</svg>
